<?xml version="1.0" standalone="no"?>
<!DOCTYPE svg PUBLIC "-//W3C//DTD SVG 1.1//EN" "http://www.w3.org/Graphics/SVG/1.1/DTD/svg11.dtd" >
<svg xmlns="http://www.w3.org/2000/svg">
<metadata></metadata>
<defs>
<font id="newjuneproboldregular" horiz-adv-x="1208" >
<font-face units-per-em="2048" ascent="1597" descent="-451" />
<missing-glyph horiz-adv-x="530" />
<glyph unicode="IJ" horiz-adv-x="1519" d="M119 0v1524h356v-1524h-356zM625 51l41 266q153 -41 219 -41q90 0 129 45t39 144v1059h352v-1088q0 -214 -121 -327t-336 -113q-133 0 -323 55z" />
<glyph unicode="ij" horiz-adv-x="1079" d="M98 1419q0 72 45 115t123 43q79 0 123.5 -42.5t44.5 -115.5q0 -71 -44.5 -113t-123.5 -42q-78 0 -123 42t-45 113zM121 0v1124h291v-1124h-291zM516 -154q81 1 115.5 40.5t34.5 123.5v1114h290v-1120q0 -185 -111 -280t-329 -95v217zM643 1419q0 73 44.5 115.5 t123.5 42.5t123.5 -42.5t44.5 -115.5q0 -71 -44.5 -113t-123.5 -42t-123.5 42t-44.5 113z" />
<glyph unicode="&#x27;n" horiz-adv-x="1200" d="M115 0v903q0 74 35.5 116.5t109.5 63.5q200 54 365 54q237 0 349.5 -108.5t112.5 -295.5v-733h-294v707q0 178 -181 178q-81 0 -200 -31v-854h-297zM121 1407l49 190h285l-74 -247q-29 -99 -135 -99q-76 0 -109.5 45.5t-15.5 110.5z" />
<glyph unicode="ff" horiz-adv-x="1593" d="M35 893v223h160v82q0 185 109.5 279t316.5 94q224 0 456 -78q95 74 258 74q115 0 279 -45l-35 -222q-129 33 -195 33q-82 0 -115.5 -35t-33.5 -124v-58h324v-223h-324v-893h-289v893h-463v-893h-288v893h-160zM483 1116h463v82q0 60 10 94q-168 49 -294 49 q-96 0 -137.5 -38.5t-41.5 -128.5v-58z" />
<glyph unicode="fi" horiz-adv-x="1357" d="M35 893v223h160v82q0 182 101.5 276.5t285.5 94.5q103 0 280 -47l-35 -222q-140 35 -194 35q-82 0 -116 -36t-34 -125v-58h756v-1116h-295v893h-461v-893h-288v893h-160zM924 1425q0 71 45.5 114.5t122.5 43.5q78 0 123 -43t45 -115q0 -71 -44.5 -114t-123.5 -43 q-77 0 -122.5 43t-45.5 114z" />
<glyph unicode="fl" horiz-adv-x="1359" d="M35 893v223h160v82q0 182 105.5 277.5t297.5 95.5q147 0 346 -45l301 59v-1585h-301v1307q-194 32 -291 32q-93 0 -131.5 -37.5t-38.5 -127.5v-58h324v-223h-324v-893h-288v893h-160z" />
<glyph unicode="ffi" horiz-adv-x="2111" d="M35 893v223h160v82q0 185 109.5 279t316.5 94q226 0 456 -76q99 74 258 74q107 0 279 -47l-35 -222q-136 35 -195 35q-82 0 -114.5 -36t-34.5 -125v-58h756v-1116h-293v893h-463v-893h-289v893h-463v-893h-288v893h-160zM483 1116h463v82q0 60 10 94q-168 49 -294 49 q-96 0 -137.5 -38.5t-41.5 -128.5v-58zM1675 1425q0 71 45.5 114.5t124.5 43.5q77 0 122.5 -43.5t45.5 -114.5t-45.5 -114t-122.5 -43q-79 0 -124.5 43t-45.5 114z" />
<glyph unicode="&#xd;" horiz-adv-x="530" />
<glyph unicode=" "  horiz-adv-x="530" />
<glyph unicode="&#x09;" horiz-adv-x="530" />
<glyph unicode="&#xa0;" horiz-adv-x="530" />
<glyph unicode="!" horiz-adv-x="503" d="M86 137q0 73 44.5 115.5t123.5 42.5q78 0 123 -43t45 -115t-45 -114.5t-123 -42.5q-79 0 -123.5 42t-44.5 115zM106 459v1065h293v-1014z" />
<glyph unicode="&#x22;" horiz-adv-x="868" d="M98 1563h279l-27 -508h-227zM492 1563h278l-25 -508h-227z" />
<glyph unicode="#" d="M29 395l34 226h173l51 264h-178l32 221h189l78 418h243l-80 -418h197l78 418h244l-80 -418h170l-35 -221h-174l-49 -264h178l-33 -226h-188l-72 -395h-244l76 395h-203l-76 -395h-245l78 395h-164zM479 621h201l49 264h-199z" />
<glyph unicode="$" d="M80 90l51 281l119 -39q218 -76 385 -76q85 0 143 44t58 130q0 67 -37.5 107t-118.5 59l-223 53q-179 41 -277 146t-98 278q0 102 31.5 185t88 137.5t129 86.5t158.5 42v252h242v-252q126 -10 289 -64l119 -35l-52 -280l-118 41q-225 74 -381 74q-88 0 -143.5 -44 t-55.5 -129q0 -66 37.5 -106t116.5 -59l221 -54q379 -89 379 -422q0 -102 -32 -184t-89 -137t-130.5 -88.5t-160.5 -44.5v-256h-242v256q-143 11 -290 61z" />
<glyph unicode="%" horiz-adv-x="1452" d="M74 999v275q0 125 69 193.5t197 68.5q129 0 196.5 -68t67.5 -194v-270q0 -127 -67 -196t-195 -69q-130 0 -199 68t-69 192zM258 999q0 -108 82 -108t82 108v277q0 106 -82 106t-82 -106v-277zM264 0l717 1524h205l-715 -1524h-207zM846 250v272q0 126 69 195t197 69 q130 0 198 -68.5t68 -195.5v-268q0 -127 -67.5 -195.5t-196.5 -68.5q-130 0 -199 68t-69 192zM1030 250q0 -109 82 -109q84 0 84 109v276q0 107 -84 107q-82 0 -82 -107v-276z" />
<glyph unicode="&#x26;" horiz-adv-x="1517" d="M90 406q0 80 21.5 144.5t62 112t85.5 80.5t106 64q-74 86 -112 166t-38 178q0 190 127 294.5t328 104.5q198 0 314 -97t116 -275q0 -72 -20 -133t-49 -102.5t-78 -79.5t-90.5 -61.5t-102.5 -51.5l287 -312q96 150 96 340v152h260v-158q0 -310 -182 -524l227 -248h-354 l-76 84q-185 -107 -422 -107q-242 0 -374 121t-132 308zM387 410q0 -87 58.5 -145t168.5 -58q129 0 240 57l-332 369q-135 -89 -135 -223zM485 1151q0 -59 29.5 -113t95.5 -125q108 47 166 105.5t58 150.5q0 71 -43 115.5t-125 44.5q-88 0 -134.5 -48.5t-46.5 -129.5z" />
<glyph unicode="'" horiz-adv-x="501" d="M98 1563h305l-24 -508h-254z" />
<glyph unicode="(" horiz-adv-x="710" d="M78 696q0 149 18.5 270.5t49 206.5t76 149t93.5 101.5t107.5 61t112.5 31.5t114 8v-219q-25 -2 -46 -7.5t-50 -22t-52.5 -42t-47.5 -72t-40.5 -107.5t-27 -153t-10.5 -205q0 -118 10.5 -214t26.5 -159t40.5 -110.5t48 -73.5t52.5 -42t50 -20.5t46 -6.5v-222 q-55 0 -106 8.5t-110 33t-108.5 63.5t-96 105t-79 152.5t-52 210.5t-19.5 275z" />
<glyph unicode=")" horiz-adv-x="710" d="M66 70q25 2 46 6.5t50 20.5t52.5 42t48 73.5t40.5 110.5t26.5 159t10.5 214q0 113 -10.5 205t-27 153t-40.5 107.5t-47.5 72t-52.5 42t-50 22t-46 7.5v219q61 0 114 -8t112.5 -31.5t107.5 -61t93.5 -101.5t76 -149t49 -206.5t18.5 -270.5q0 -151 -19.5 -275t-52 -210.5 t-79 -152.5t-96 -105t-108.5 -63.5t-110 -33t-106 -8.5v222z" />
<glyph unicode="*" d="M111 1122l79 252l295 -123l-24 310h287l-27 -310l295 119l80 -250l-322 -76l213 -249l-229 -154l-154 272l-155 -270l-228 154l213 250z" />
<glyph unicode="+" d="M98 489v230h373v403h256v-403h381v-230h-381v-405h-256v405h-373z" />
<glyph unicode="," horiz-adv-x="503" d="M55 -100l90 393h306l-123 -449q-29 -98 -144 -98q-80 0 -112.5 43.5t-16.5 110.5z" />
<glyph unicode="-" horiz-adv-x="878" d="M88 522v234h703v-234h-703z" />
<glyph unicode="." horiz-adv-x="503" d="M84 143q0 74 45.5 118t124.5 44q78 0 123 -44t45 -118q0 -75 -45 -119t-123 -44q-79 0 -124.5 44t-45.5 119z" />
<glyph unicode="/" horiz-adv-x="882" d="M16 0l594 1524h256l-583 -1524h-267z" />
<glyph unicode="0" d="M98 485v547q0 243 131.5 375.5t376.5 132.5q248 0 377 -131.5t129 -376.5v-543q0 -245 -127.5 -377t-374.5 -132q-248 0 -380 131t-132 374zM401 479q0 -248 205 -248t205 248v561q0 248 -205 248t-205 -248v-561z" />
<glyph unicode="1" d="M92 0v244h408v1026h-56q-53 0 -122 -12.5t-111 -38.5l-49 241q64 32 155 48t172 16h132q95 0 145.5 -48t50.5 -135v-1097h330v-244h-1055z" />
<glyph unicode="2" d="M82 150q0 87 55 139l457 426q113 106 159 180.5t46 173.5q0 106 -64.5 158.5t-175.5 52.5q-132 0 -328 -63l-98 -33l-41 250l103 32q216 72 405 72q111 0 201.5 -26.5t160 -80.5t108 -143.5t38.5 -208.5q0 -130 -62 -251t-210 -261l-361 -329h633v-238h-881 q-71 0 -108 40.5t-37 109.5z" />
<glyph unicode="3" d="M63 90l46 248l106 -33q214 -69 365 -69q124 0 187.5 49t63.5 137q0 87 -63 156l-66 71h-301v232h295l52 67q53 68 53 154q0 87 -58 133.5t-176 46.5q-132 0 -329 -65l-99 -31l-41 250l103 32q230 70 403 70q241 0 370.5 -101.5t129.5 -306.5q0 -151 -98 -276l-60 -80 l70 -72q64 -67 93.5 -135.5t29.5 -152.5q0 -207 -143.5 -317.5t-395.5 -110.5q-194 0 -430 71z" />
<glyph unicode="4" d="M41 401q0 64 45 134l545 884q67 119 209 119q96 0 144 -43.5t48 -134.5v-868h150v-240h-150v-252h-297v252h-549q-71 0 -108 41t-37 108zM371 492h364v589z" />
<glyph unicode="5" d="M86 86l45 246l105 -31q219 -65 337 -65q132 0 197.5 69.5t65.5 194.5q0 258 -265 258q-114 0 -288 -49l-127 -35v850h925v-258h-667v-303q124 36 237 36q240 0 365 -124.5t125 -372.5t-144 -382t-401 -134q-186 0 -403 67z" />
<glyph unicode="6" d="M90 510v541q0 223 144 354t382 131q171 0 392 -68l102 -32l-47 -250l-96 33q-209 61 -330 61q-242 0 -242 -227v-97q142 43 258 43q245 0 367.5 -124.5t122.5 -364.5q0 -114 -34.5 -208.5t-100 -164t-166.5 -108.5t-228 -39q-246 0 -385 141t-139 379zM395 510 q0 -131 57.5 -201.5t168.5 -70.5q103 0 158 67t55 189q0 123 -55 189.5t-183 66.5q-58 0 -201 -35v-205z" />
<glyph unicode="7" d="M98 1270v254h887q80 0 121 -41t41 -113q0 -58 -37 -149l-498 -1221h-338l537 1270h-713z" />
<glyph unicode="8" d="M66 408q0 87 28.5 156.5t91.5 135.5l68 72l-59 80q-91 120 -91 276q0 195 135 303.5t365 108.5q232 0 367 -108t135 -304q0 -157 -90 -276l-60 -80l68 -72q63 -66 92 -136t29 -156q0 -203 -142.5 -314.5t-394.5 -111.5t-397 112t-145 314zM365 414q0 -88 62.5 -140.5 t178.5 -52.5t178 51.5t62 141.5q0 87 -66 159l-63 72h-223l-64 -72q-65 -74 -65 -159zM391 1108q0 -81 58 -160l47 -69h219l49 69q55 80 55 160q0 83 -54.5 133.5t-158.5 50.5t-159.5 -50.5t-55.5 -133.5z" />
<glyph unicode="9" d="M68 1016q0 232 138 376t390 144q246 0 385 -141.5t139 -380.5v-539q0 -223 -143.5 -354t-382.5 -131q-177 0 -391 65l-103 33l47 250l99 -31q201 -64 327 -61q242 0 242 227v96q-127 -43 -256 -43q-491 0 -491 490zM377 1030q0 -124 55 -190t182 -66q61 0 201 35v205 q0 132 -57 203t-168 71q-102 0 -157.5 -68t-55.5 -190z" />
<glyph unicode=":" horiz-adv-x="503" d="M84 143q0 74 45.5 118t124.5 44q78 0 123 -44t45 -118q0 -75 -45 -119t-123 -44q-79 0 -124.5 44t-45.5 119zM84 956q0 74 45.5 118t124.5 44q78 0 123 -44t45 -118q0 -75 -45 -118t-123 -43q-79 0 -124.5 43t-45.5 118z" />
<glyph unicode=";" horiz-adv-x="503" d="M53 -100l90 393h306l-123 -449q-26 -98 -144 -98q-79 0 -111 43.5t-18 110.5zM106 956q0 74 45 118t123 44q79 0 123.5 -44t44.5 -118q0 -75 -44.5 -118t-123.5 -43q-78 0 -123 43t-45 118z" />
<glyph unicode="&#x3c;" d="M90 606q0 149 135 193l893 327v-297l-719 -225l719 -227v-289l-891 324q-137 46 -137 194z" />
<glyph unicode="=" d="M98 315v226h1010v-226h-1010zM98 682v225h1010v-225h-1010z" />
<glyph unicode="&#x3e;" d="M90 88v289l719 227l-719 225v297l895 -327q133 -45 133 -193q0 -149 -137 -194z" />
<glyph unicode="?" horiz-adv-x="956" d="M51 1450l101 29q167 49 325 49q198 0 312 -97.5t114 -269.5q0 -111 -40 -191.5t-122 -160.5l-153 -150v-149l-283 -51v135q0 75 14 117t62 90l139 141q53 55 74.5 97.5t21.5 101.5q0 141 -172 141q-99 0 -241 -39l-111 -33zM279 137q0 73 44 115.5t123 42.5q78 0 123 -43 t45 -115t-45 -114.5t-123 -42.5q-79 0 -123 42t-44 115z" />
<glyph unicode="@" horiz-adv-x="1910" d="M172 717q0 234 107.5 423t296 295.5t421.5 106.5q218 0 388 -88t265 -249t95 -369q0 -114 -35.5 -211t-94.5 -162t-136 -101t-160 -36q-49 0 -107.5 19.5t-85.5 19.5q-36 0 -114 -16.5t-135 -16.5q-171 0 -258 95t-87 257q0 88 29.5 168t83.5 142t138.5 99t187.5 37 q71 0 151 -12l8 58h209l-92 -666q1 0 8 -4l14 -8t17 -8t21.5 -6.5t21.5 -2.5q88 0 153.5 97t65.5 260q0 239 -147.5 378.5t-403.5 139.5q-183 0 -326 -84t-220.5 -229.5t-77.5 -325.5q0 -249 140.5 -406t385.5 -157q87 0 234 38.5t219 38.5q81 0 139 -34l119 -70l-74 -147 l-119 55q-35 14 -76 14q-47 0 -114.5 -18t-155 -36t-182.5 -18q-166 0 -302.5 57t-226.5 157t-139 235t-49 291zM752 680q0 -82 36 -130t111 -48q14 0 31.5 2t30.5 4t37.5 6.5t41.5 7.5l60 432q-92 9 -129 9q-108 0 -163.5 -81t-55.5 -202z" />
<glyph unicode="A" horiz-adv-x="1478" d="M18 0l484 1378q53 162 248 162q192 0 243 -160l465 -1380h-358l-88 272h-549l-90 -272h-355zM530 528h416l-203 658z" />
<glyph unicode="B" horiz-adv-x="1431" d="M119 182v1159q0 86 51 134.5t143 48.5h529q219 0 335.5 -98t116.5 -293q0 -144 -96 -275l-59 -80l71 -73q138 -135 138 -299q0 -193 -128 -299.5t-370 -106.5h-535q-92 0 -144 48.5t-52 133.5zM463 250h346q96 0 146.5 44.5t50.5 121.5t-62 145l-78 82h-403v-393z M463 887h397l58 82q45 72 45 147q0 73 -43 116.5t-134 43.5h-323v-389z" />
<glyph unicode="C" horiz-adv-x="1396" d="M84 762q0 189 53.5 338t150 243.5t226.5 143.5t287 49q189 0 420 -76l120 -37l-45 -282l-122 39q-180 59 -332 59q-189 0 -290 -117.5t-101 -359.5q0 -243 101.5 -361t289.5 -118q152 0 332 59l122 39l45 -285l-120 -37q-222 -73 -422 -73q-159 0 -289 48t-225.5 142 t-148 243.5t-52.5 342.5z" />
<glyph unicode="D" horiz-adv-x="1515" d="M119 182v1159q0 85 52 134t144 49h396q332 0 526.5 -204t194.5 -562q0 -238 -91 -410t-254 -260t-380 -88h-392q-92 0 -144 48.5t-52 133.5zM471 270h229q182 0 282.5 126.5t100.5 361.5q0 233 -104.5 366t-292.5 133h-215v-987z" />
<glyph unicode="E" horiz-adv-x="1288" d="M119 182v1159q0 85 52 134t144 49h883v-262h-727v-359h637v-254h-637v-387h733v-262h-889q-92 0 -144 48.5t-52 133.5z" />
<glyph unicode="F" horiz-adv-x="1241" d="M119 0v1341q0 85 52 134t144 49h865v-267h-707v-385h645v-251h-645v-621h-354z" />
<glyph unicode="G" horiz-adv-x="1521" d="M84 760q0 188 55 336t154 243.5t234 145t298 49.5q185 0 445 -76l127 -37l-49 -284l-129 39q-215 63 -361 63q-204 0 -314 -122t-110 -365q0 -252 111.5 -378t318.5 -126q111 0 221 20v291h-305v246h434q92 0 144.5 -48.5t52.5 -133.5v-385q0 -120 -129 -175 q-187 -77 -455 -77q-166 0 -301.5 48.5t-234 143.5t-153 243t-54.5 339z" />
<glyph unicode="H" horiz-adv-x="1482" d="M119 0v1524h352v-621h541v621h352v-1524h-352v643h-541v-643h-352z" />
<glyph unicode="I" horiz-adv-x="593" d="M119 0v1524h356v-1524h-356z" />
<glyph unicode="J" horiz-adv-x="931" d="M37 51l41 266q153 -41 219 -41q90 0 129 45t39 144v1059h352v-1088q0 -214 -121 -327t-336 -113q-133 0 -323 55z" />
<glyph unicode="K" horiz-adv-x="1437" d="M119 0v1524h346v-680l528 680h400l-426 -531l426 -993h-375l-307 713l-131 -158q-41 -50 -61 -78.5t-37 -78t-17 -107.5v-291h-346z" />
<glyph unicode="L" horiz-adv-x="1228" d="M119 182v1342h356v-1239h678v-285h-838q-92 0 -144 48.5t-52 133.5z" />
<glyph unicode="M" horiz-adv-x="1857" d="M119 0v1317q0 107 70.5 163t191.5 56q234 0 283 -195l266 -847l280 849q54 193 281 193q115 0 181.5 -55t66.5 -160v-1321h-316v1090l-313 -973q-37 -127 -188 -127q-161 0 -191 127l-307 973v-1090h-305z" />
<glyph unicode="N" horiz-adv-x="1546" d="M119 0v1321q0 105 65 161t183 56q106 0 161.5 -45t98.5 -139l493 -875v1045h307v-1319q0 -105 -65.5 -161t-183.5 -56q-106 0 -161.5 45t-96.5 139l-494 875v-1047h-307z" />
<glyph unicode="O" horiz-adv-x="1652" d="M84 760q0 364 204 569t543 205q337 0 537.5 -204t200.5 -570q0 -185 -54.5 -332t-153 -243.5t-236 -147.5t-304.5 -51q-337 0 -537 204t-200 570zM438 760q0 -249 103.5 -384.5t289.5 -135.5q182 0 281.5 134.5t99.5 385.5q0 247 -103 381.5t-288 134.5 q-183 0 -283 -134.5t-100 -381.5z" />
<glyph unicode="P" horiz-adv-x="1349" d="M119 0v1341q0 85 52 134t144 49h463q226 0 361 -132t135 -358q0 -229 -139.5 -360t-376.5 -131h-293v-543h-346zM465 801h262q106 0 167.5 61.5t61.5 171.5q0 108 -60 171t-159 63h-272v-467z" />
<glyph unicode="Q" horiz-adv-x="1652" d="M84 758q0 182 54.5 329t152.5 244.5t235 150t303 52.5q338 0 537 -202.5t199 -567.5q0 -224 -91.5 -384t-244.5 -235q14 -6 38 -15t90.5 -23.5t123.5 -14.5h65v-252h-90q-82 0 -154.5 16.5t-126 40t-104.5 47t-111.5 40t-125.5 16.5q-165 0 -301.5 48t-237 140.5 t-156 238t-55.5 331.5zM438 760q0 -248 103.5 -380t289.5 -132q183 0 282 131t99 381q0 247 -103 381.5t-288 134.5q-183 0 -283 -134.5t-100 -381.5z" />
<glyph unicode="R" horiz-adv-x="1425" d="M119 0v1341q0 86 51 134.5t143 48.5h529q226 0 352.5 -115.5t126.5 -327.5q0 -168 -133 -323l-84 -105l289 -653h-373l-232 555h-317v-555h-352zM471 807h379l61 84q72 103 72 180q0 94 -49 147.5t-150 53.5h-313v-465z" />
<glyph unicode="S" horiz-adv-x="1341" d="M88 104l57 291l131 -45q250 -88 435 -88q92 0 151.5 42t59.5 128q0 66 -39.5 105.5t-126.5 58.5l-262 55q-198 41 -299 143t-101 279q0 153 72.5 259t192.5 155t276 49q230 0 489 -82l131 -41l-59 -297l-131 49q-243 90 -426 90q-96 0 -153.5 -42.5t-57.5 -127.5 q0 -66 39.5 -105t126.5 -58l262 -56q198 -40 298.5 -140.5t100.5 -279.5q0 -114 -42 -204t-116 -146t-171 -85t-211 -29q-253 0 -494 79z" />
<glyph unicode="T" horiz-adv-x="1343" d="M61 1253v271h1221v-271h-432v-1253h-354v1253h-435z" />
<glyph unicode="U" horiz-adv-x="1495" d="M109 559v965h354v-963q0 -146 72 -220.5t213 -74.5q284 0 284 295v963h354v-965q0 -278 -165.5 -432t-475.5 -154q-308 0 -472 154t-164 432z" />
<glyph unicode="V" horiz-adv-x="1445" d="M18 1524h361l344 -1147l350 1147h354l-475 -1385q-54 -153 -239 -153q-184 0 -234 153z" />
<glyph unicode="W" horiz-adv-x="1982" d="M29 1524h338l172 -1141l272 1020q13 59 62 90t124 31q73 0 122.5 -31t64.5 -90l264 -1022l174 1143h332l-260 -1372q-17 -82 -75.5 -126t-154.5 -44q-194 0 -237 157l-236 887l-243 -887q-44 -157 -238 -157q-95 0 -152.5 44.5t-72.5 125.5z" />
<glyph unicode="X" horiz-adv-x="1509" d="M53 0l486 766l-478 758h390l309 -518l299 518h383l-465 -748l479 -776h-387l-313 539l-322 -539h-381z" />
<glyph unicode="Y" horiz-adv-x="1470" d="M14 1524h385l346 -594l330 594h381l-541 -893v-631h-354v627z" />
<glyph unicode="Z" horiz-adv-x="1372" d="M78 168q0 74 57 147l717 947h-735v262h999q83 0 124.5 -45.5t41.5 -122.5t-55 -148l-713 -946h764v-262h-1034q-82 0 -124 45.5t-42 122.5z" />
<glyph unicode="[" horiz-adv-x="710" d="M143 -133v1657h506v-219h-231v-1219h231v-219h-506z" />
<glyph unicode="\" horiz-adv-x="882" d="M16 1524h256l594 -1524h-266z" />
<glyph unicode="]" horiz-adv-x="710" d="M66 86h229v1219h-229v219h503v-1657h-503v219z" />
<glyph unicode="^" d="M86 88l326 901q45 133 188 133q148 0 193 -131l329 -903h-297l-225 717l-225 -717h-289z" />
<glyph unicode="_" horiz-adv-x="1024" d="M-4 -160h1032v-200h-1032v200z" />
<glyph unicode="`" horiz-adv-x="1099" d="M270 1563h379l150 -140q43 -41 43 -90q0 -37 -28 -65.5t-79 -28.5q-64 0 -121 47z" />
<glyph unicode="a" horiz-adv-x="1239" d="M80 317q0 78 25 138.5t68 100t105 65t131.5 36.5t151.5 11h236v69q0 162 -193 162q-149 0 -336 -59l-110 -35l-39 231l110 33q233 70 406 70q98 0 176.5 -21t139 -66t93.5 -121.5t33 -180.5v-510l123 -74l-108 -193l-103 56q-43 24 -95 24q-30 0 -63 -8l-61 -14 q-172 -43 -293 -43q-186 0 -291.5 87t-105.5 242zM369 328q0 -64 43 -96.5t120 -32.5q74 0 183 28l84 21v221h-232q-198 0 -198 -141z" />
<glyph unicode="b" horiz-adv-x="1230" d="M115 221v1311l293 53v-498q136 46 249 46q494 0 494 -570q0 -265 -144.5 -419t-398.5 -154q-172 0 -354 53q-74 22 -106.5 63.5t-32.5 114.5zM408 250q113 -25 188 -25q134 0 199 88t65 248q0 165 -60.5 248.5t-193.5 83.5q-68 0 -198 -37v-606z" />
<glyph unicode="c" horiz-adv-x="1087" d="M80 563q0 276 144.5 425t387.5 149q141 0 322 -54l94 -28l-37 -242l-90 29q-174 49 -256 49q-264 0 -264 -328q0 -330 264 -330q78 0 256 50l90 26l37 -239l-94 -29q-184 -55 -322 -55q-244 0 -388 147t-144 430z" />
<glyph unicode="d" horiz-adv-x="1230" d="M80 557q0 275 129 425.5t377 150.5q93 0 237 -46v445l293 53v-1364q0 -73 -32.5 -114.5t-106.5 -63.5q-185 -53 -359 -53q-255 0 -396.5 149t-141.5 418zM371 561q0 -162 65 -249t199 -87q63 0 188 25v606q-130 37 -200 37q-132 0 -192 -84t-60 -248z" />
<glyph unicode="e" horiz-adv-x="1200" d="M80 561q0 145 42.5 258t116.5 182t168.5 104.5t204.5 35.5q243 0 380.5 -139t137.5 -412q0 -63 -29.5 -93t-92.5 -30h-639q10 -121 88 -181.5t207 -60.5q138 0 305 49l108 35l39 -221l-108 -35q-204 -65 -365 -65q-261 0 -412 147t-151 426zM367 666h475 q0 115 -59.5 188.5t-178.5 73.5q-105 0 -167 -70t-70 -192z" />
<glyph unicode="f" horiz-adv-x="841" d="M35 893v223h160v82q0 182 101.5 275.5t285.5 93.5q111 0 280 -45l-35 -222q-132 33 -194 33q-82 0 -116 -35t-34 -124v-58h324v-223h-324v-893h-288v893h-160z" />
<glyph unicode="g" horiz-adv-x="1245" d="M80 760q0 179 132 269.5t363 90.5h113q123 0 205 23l266 78l53 -217l-198 -56q3 -2 8 -7t18.5 -22t23.5 -37t18 -53t8 -69q0 -171 -128.5 -257.5t-361.5 -86.5q-25 0 -48 2t-34 4l-10 2q16 -21 16 -62q0 -47 -32 -88h313q193 0 289 -75.5t96 -210.5q0 -171 -146.5 -263 t-435.5 -92q-113 0 -205.5 18t-164 55t-111 99t-39.5 146q0 120 78 213l94 119q37 48 37 94q0 33 -15 56t-51 50q-30 22 -51.5 42.5t-47 54.5t-39 79.5t-13.5 100.5zM352 -43q0 -69 68 -99t198 -30q310 0 310 149q0 44 -35.5 69.5t-108.5 25.5h-393q-39 -42 -39 -115z M356 760q0 -166 228 -166q105 0 167 40.5t62 125.5q0 162 -229 162q-228 0 -228 -162z" />
<glyph unicode="h" horiz-adv-x="1187" d="M115 0v1532l297 53v-498q144 46 254 46q415 0 415 -404v-729h-293v707q0 174 -176 174q-70 0 -200 -37v-844h-297z" />
<glyph unicode="i" horiz-adv-x="532" d="M98 1419q0 72 45 115t123 43q79 0 123.5 -42.5t44.5 -115.5q0 -71 -44.5 -113t-123.5 -42q-78 0 -123 42t-45 113zM121 0v1124h291v-1124h-291z" />
<glyph unicode="j" horiz-adv-x="544" d="M-16 -154q81 1 115 40.5t34 123.5v1114h291v-1120q0 -185 -111 -280t-329 -95v217zM111 1419q0 73 44.5 115.5t123.5 42.5t123 -42.5t44 -115.5q0 -71 -44 -113t-123 -42t-123.5 42t-44.5 113z" />
<glyph unicode="k" horiz-adv-x="1187" d="M115 0v1532l291 53v-928l393 467h354l-328 -379l338 -745h-336l-231 502l-86 -94q-54 -59 -79 -108.5t-25 -129.5v-170h-291z" />
<glyph unicode="l" horiz-adv-x="530" d="M115 0v1532l301 53v-1585h-301z" />
<glyph unicode="m" horiz-adv-x="1787" d="M115 0v903q0 73 35.5 115.5t109.5 64.5q173 54 340 54q194 0 299 -82q187 82 354 82q216 0 318 -105t102 -289v-743h-291v715q0 82 -36.5 126t-124.5 44q-41 0 -83 -8.5t-59 -14t-57 -20.5q18 -41 18 -113v-729h-290v715q0 82 -37 126t-125 44q-81 0 -180 -31v-854h-293z " />
<glyph unicode="n" horiz-adv-x="1200" d="M115 0v903q0 74 35.5 116.5t109.5 63.5q200 54 365 54q237 0 349.5 -108.5t112.5 -295.5v-733h-294v707q0 178 -181 178q-81 0 -200 -31v-854h-297z" />
<glyph unicode="o" horiz-adv-x="1265" d="M80 563q0 272 149.5 423t407.5 151q257 0 403 -150.5t146 -423.5q0 -274 -149.5 -424.5t-407.5 -150.5q-257 0 -403 151.5t-146 423.5zM381 563q0 -177 65 -267.5t191 -90.5q124 0 187 91t63 267q0 174 -66 265.5t-192 91.5q-123 0 -185.5 -91.5t-62.5 -265.5z" />
<glyph unicode="p" horiz-adv-x="1230" d="M115 -381v1286q0 72 32.5 113.5t106.5 64.5q198 54 358 54q255 0 397 -150t142 -420q0 -275 -129 -424t-377 -149q-91 0 -237 43v-365zM408 268q127 -34 198 -37q133 0 193.5 84t60.5 250q0 160 -65 247t-199 87q-71 0 -188 -27v-604z" />
<glyph unicode="q" horiz-adv-x="1230" d="M80 561q0 266 144 421t399 155q168 0 354 -54q74 -23 106.5 -64.5t32.5 -113.5v-1237l-293 -53v422q-138 -43 -250 -43q-493 0 -493 567zM371 565q0 -166 60 -250t192 -84q61 0 200 37v604q-124 27 -188 27q-134 0 -199 -87.5t-65 -246.5z" />
<glyph unicode="r" horiz-adv-x="790" d="M115 0v899q0 75 35.5 118t109.5 64q107 30 217.5 41t282.5 11v-242q-226 0 -354 -37v-854h-291z" />
<glyph unicode="s" horiz-adv-x="1126" d="M88 82l43 233l111 -36q220 -68 350 -68q71 0 115.5 28t44.5 89q0 91 -134 108l-204 33q-322 51 -322 315q0 115 59 196.5t156 119t223 37.5q199 0 402 -62l106 -33l-43 -233l-108 35q-214 69 -352 69q-70 0 -115 -28.5t-45 -87.5q0 -91 135 -111l203 -33 q321 -51 321 -311q0 -172 -121.5 -263t-316.5 -91q-201 0 -401 61z" />
<glyph unicode="t" horiz-adv-x="899" d="M29 893v223h157v238l289 53v-291h338v-223h-338v-506q0 -88 34.5 -127t115.5 -39q59 0 188 33l35 -223q-169 -43 -277 -43q-186 0 -285.5 95.5t-99.5 278.5v531h-157z" />
<glyph unicode="u" horiz-adv-x="1200" d="M115 391v733h293v-706q0 -84 41.5 -131t140.5 -47q85 0 198 32v852h299v-903q0 -73 -36.5 -116t-110.5 -62q-187 -53 -365 -53q-237 0 -348.5 107t-111.5 294z" />
<glyph unicode="v" horiz-adv-x="1171" d="M29 1124h319l234 -809l245 809h316l-352 -1009q-48 -138 -216 -138q-165 0 -213 138z" />
<glyph unicode="w" horiz-adv-x="1681" d="M43 1124h305l129 -798l207 702q13 52 55.5 78.5t106.5 26.5q62 0 104.5 -27.5t55.5 -77.5l204 -704l131 800h297l-215 -995q-32 -152 -202 -152t-211 140l-170 563l-178 -565q-40 -138 -209 -138q-85 0 -137.5 39.5t-67.5 112.5z" />
<glyph unicode="x" horiz-adv-x="1204" d="M39 0l373 565l-365 559h342l217 -348l205 348h340l-354 -549l370 -575h-342l-223 365l-225 -365h-338z" />
<glyph unicode="y" horiz-adv-x="1173" d="M33 1124h327l256 -782l222 782h309l-406 -1220q-94 -279 -383 -279q-108 0 -266 47l37 219q137 -36 197 -36q111 0 137 104l10 39z" />
<glyph unicode="z" horiz-adv-x="1130" d="M80 150q0 76 51 133l545 622h-574v219h807q71 0 108.5 -40t37.5 -107q0 -72 -51 -133l-543 -623h590v-221h-826q-71 0 -108 40.5t-37 109.5z" />
<glyph unicode="{" horiz-adv-x="706" d="M100 604v178q172 0 172 99q0 38 -26 97t-52 130t-26 139q0 131 86 204t242 73h147v-221h-92q-117 0 -117 -115q0 -60 47 -169t47 -165q0 -109 -96 -162q43 -22 69.5 -63t26.5 -97t-47 -166.5t-47 -170.5q0 -111 117 -111h92v-221h-147q-156 0 -242 72.5t-86 203.5 q0 68 26 139t52 130t26 96q0 100 -172 100z" />
<glyph unicode="|" horiz-adv-x="552" d="M137 -369v1932h279v-1932h-279z" />
<glyph unicode="}" horiz-adv-x="706" d="M68 84h92q119 0 119 111q0 60 -47.5 170.5t-47.5 166.5q0 55 27 96.5t70 63.5q-97 53 -97 162q0 56 47.5 165t47.5 169q0 115 -119 115h-92v221h147q157 0 242.5 -73t85.5 -204q0 -53 -16.5 -110t-36 -96.5t-36 -84t-16.5 -75.5q0 -99 172 -99v-178q-172 0 -172 -100 q0 -31 16.5 -75t36 -83.5t36 -96.5t16.5 -110q0 -131 -85.5 -203.5t-242.5 -72.5h-147v221z" />
<glyph unicode="~" d="M55 549q57 151 151.5 221t207.5 70q109 0 204 -68l91 -63q45 -39 100 -39q94 0 162 157l178 -116q-58 -150 -152 -219.5t-206 -69.5q-115 0 -205 67l-88 64q-50 37 -103 37q-47 0 -86 -35.5t-76 -120.5z" />
<glyph unicode="&#xa1;" horiz-adv-x="503" d="M86 1006q0 71 44.5 113t123.5 42q78 0 123 -42t45 -113q0 -72 -45 -115t-123 -43q-79 0 -123.5 42.5t-44.5 115.5zM109 -381v1012l292 51v-1063h-292z" />
<glyph unicode="&#xa2;" d="M115 563q0 234 105.5 377.5t291.5 181.5v267h244v-263q104 -13 211 -45l96 -28l-37 -240l-92 27q-159 49 -256 49q-262 0 -262 -326q0 -330 264 -330q85 0 254 52l92 26l37 -241l-96 -27q-108 -36 -211 -45v-268h-244v272q-187 35 -292 176.5t-105 384.5z" />
<glyph unicode="&#xa3;" d="M53 115q0 52 26.5 84t84.5 32q213 0 213 201q0 44 -21 109h-254v192h156q-75 125 -105 200t-30 173q0 207 134.5 319.5t360.5 112.5q186 0 396 -68l102 -34l-41 -248l-98 31q-186 63 -320 63q-229 0 -229 -199q0 -55 15 -108.5t33.5 -94.5t70.5 -145h325v-194h-258 q17 -63 17 -109q0 -116 -60 -196h207q157 0 160 153h223q0 -190 -94.5 -289.5t-284.5 -99.5h-618q-57 0 -84 31t-27 84z" />
<glyph unicode="&#xa4;" horiz-adv-x="1024" d="M41 178l102 111q-96 110 -96 284q0 180 98 283l-104 111l86 86l104 -103q111 97 279 97q170 0 278 -97l107 103l86 -86l-104 -111q96 -110 96 -283q0 -177 -96 -284l104 -111l-86 -84l-107 103q-111 -97 -278 -97q-171 0 -279 97l-104 -103zM182 573q0 -138 95 -237.5 t233 -99.5t233 99.5t95 237.5q0 137 -96 237.5t-232 100.5q-138 0 -233 -100t-95 -238z" />
<glyph unicode="&#xa5;" d="M29 1524h342l239 -598l232 598h338l-318 -627h271v-192h-355v-125h355v-193h-355v-387h-344v387h-356v193h356v125h-356v192h270z" />
<glyph unicode="&#xa6;" horiz-adv-x="552" d="M137 -369v770h279v-770h-279zM137 795v770h279v-770h-279z" />
<glyph unicode="&#xa7;" d="M84 641v410q0 223 144 354t386 131q166 0 390 -68l102 -32l-47 -250l-98 33q-205 61 -328 61q-248 0 -248 -227v-97q142 43 258 43q246 0 363.5 -122t117.5 -363v-412q0 -224 -143 -354.5t-385 -130.5q-168 0 -389 68l-103 32l46 248l98 -31q201 -64 330 -61 q247 0 247 227v97q-142 -43 -258 -43q-483 0 -483 487zM385 639q0 -121 54.5 -184.5t183.5 -63.5q59 0 202 35v90q0 121 -54 183.5t-183 62.5q-60 0 -203 -35v-88z" />
<glyph unicode="&#xa8;" horiz-adv-x="1132" d="M215 1421q0 71 43 113.5t117 42.5q73 0 114 -42.5t41 -113.5t-41 -113t-114 -42q-74 0 -117 42t-43 113zM645 1421q0 71 42.5 113.5t115.5 42.5t115.5 -42.5t42.5 -113.5t-42.5 -113t-115.5 -42t-115.5 42t-42.5 113z" />
<glyph unicode="&#xa9;" horiz-adv-x="1910" d="M152 752q0 172 63.5 322t171.5 253.5t255.5 163t311.5 59.5q163 0 309.5 -58.5t255 -161.5t172.5 -253.5t64 -324.5q0 -171 -64 -321t-172 -255.5t-255.5 -166t-309.5 -60.5q-164 0 -311.5 60.5t-255.5 166t-171.5 255.5t-63.5 321zM352 752q0 -179 79.5 -320t216.5 -218 t306 -77q125 0 235 45.5t190 125.5t126.5 195.5t46.5 248.5q0 183 -79.5 323.5t-215 214.5t-303.5 74q-127 0 -237.5 -44t-191 -122.5t-127 -194t-46.5 -251.5zM555 750q0 207 109.5 316.5t293.5 109.5q117 0 244 -39l72 -23l-31 -180l-69 22q-132 33 -191 33 q-199 0 -199 -239q0 -238 201 -238q63 0 189 35l69 20l31 -180l-72 -20q-134 -41 -244 -41q-185 0 -294 108t-109 316z" />
<glyph unicode="&#xaa;" d="M188 909q0 275 373 275h168v41q0 66 -34.5 93.5t-100.5 27.5q-102 0 -256 -41l-92 -29l-33 182l96 29q172 51 309 51q157 0 247.5 -72t90.5 -231v-389l93 -55l-88 -154l-80 41q-51 25 -133 8l-66 -12q-133 -27 -188 -27q-144 0 -225 71t-81 191zM422 920q0 -101 117 -101 q28 0 129 19l63 14v168h-166q-71 0 -107 -22.5t-36 -77.5z" />
<glyph unicode="&#xab;" horiz-adv-x="1193" d="M74 578q0 63 51 120l266 277h299l-381 -397l381 -398h-299l-266 275q-51 57 -51 123zM526 578q0 63 54 120l270 277h299l-387 -397l387 -398h-299l-270 275q-54 57 -54 123z" />
<glyph unicode="&#xac;" d="M96 682v223h1010v-626h-242v403h-768z" />
<glyph unicode="&#xad;" d="M100 489v232h1008v-232h-1008z" />
<glyph unicode="&#xae;" horiz-adv-x="1910" d="M152 752q0 172 63.5 322t171.5 253.5t255.5 163t311.5 59.5q163 0 309.5 -58.5t255 -161.5t172.5 -253.5t64 -324.5q0 -171 -64 -321t-172 -255.5t-255.5 -166t-309.5 -60.5q-164 0 -311.5 60.5t-255.5 166t-171.5 255.5t-63.5 321zM352 752q0 -179 79.5 -320t216.5 -218 t306 -77q125 0 235 45.5t190 125.5t126.5 195.5t46.5 248.5q0 183 -79.5 323.5t-215 214.5t-303.5 74q-127 0 -237.5 -44t-191 -122.5t-127 -194t-46.5 -251.5zM629 358v703q0 113 121 113h290q123 0 195 -66.5t72 -179.5q0 -92 -62 -176l-49 -66l145 -328h-217l-112 271 h-176v-271h-207zM836 780h200l39 51q27 46 27 91q0 46 -26 73t-72 27h-168v-242z" />
<glyph unicode="&#xaf;" horiz-adv-x="1087" d="M176 1286v225h733v-225h-733z" />
<glyph unicode="&#xb0;" d="M205 1159q0 175 108.5 290.5t288.5 115.5t285.5 -114.5t105.5 -291.5q0 -178 -107.5 -292.5t-287.5 -114.5t-286.5 114.5t-106.5 292.5zM420 1159q0 -95 48 -153t134 -58q84 0 131 58t47 153q0 93 -48.5 150t-133.5 57t-131.5 -56.5t-46.5 -150.5z" />
<glyph unicode="&#xb1;" d="M98 0v219h1010v-219h-1010zM98 594v229h373v299h256v-299h381v-229h-381v-287h-256v287h-373z" />
<glyph unicode="&#xb2;" horiz-adv-x="636" d="M43 1036q0 49 33 78l225 209q53 51 73.5 84t20.5 80q0 92 -104 92q-65 0 -156 -31l-61 -22l-27 149l62 23q107 35 204 35q122 0 194.5 -59t72.5 -181q0 -67 -32 -129.5t-108 -132.5l-147 -137h289v-146h-451q-43 0 -65.5 23.5t-22.5 64.5z" />
<glyph unicode="&#xb3;" horiz-adv-x="636" d="M33 995l28 152l64 -21q104 -34 178 -34q53 0 81 21t28 58q0 39 -29 68l-25 29h-157v139h153l19 29q24 27 24 65q0 78 -100 78q-74 0 -158 -31l-63 -20l-25 149l62 21q103 35 204 35q127 0 195 -53.5t68 -161.5q0 -79 -52 -144l-22 -31l24 -26q68 -68 68 -152 q0 -108 -76 -166.5t-207 -58.5q-104 0 -217 37z" />
<glyph unicode="&#xb4;" horiz-adv-x="1099" d="M332 1333q0 49 41 90l151 140h377l-344 -277q-57 -47 -121 -47q-49 0 -76.5 28.5t-27.5 65.5z" />
<glyph unicode="&#xb5;" d="M115 -381v1505h293v-706q0 -84 41.5 -130t140.5 -46q85 0 198 32v850h299v-901q0 -73 -36.5 -116t-110.5 -64q-182 -49 -365 -49q-124 0 -167 37v-412h-293z" />
<glyph unicode="&#xb6;" horiz-adv-x="1300" d="M68 987q0 113 33 209.5t97 170t166.5 115.5t233.5 42h598v-1905h-235v1690h-207v-1690h-242v838q-145 14 -247 89t-149.5 187.5t-47.5 253.5z" />
<glyph unicode="&#xb7;" horiz-adv-x="765" d="M219 745q0 74 44.5 118t123.5 44q78 0 123 -44t45 -118q0 -75 -45 -119t-123 -44q-79 0 -123.5 43.5t-44.5 119.5z" />
<glyph unicode="&#xb8;" horiz-adv-x="1087" d="M324 -360l36 116q85 -39 164 -39q68 0 68 45q0 33 -41 44t-129 8l-19 26l84 160h119l-43 -88q81 0 131.5 -36.5t50.5 -108.5q0 -81 -58.5 -128t-162.5 -47q-96 0 -200 48z" />
<glyph unicode="&#xb9;" horiz-adv-x="636" d="M45 948v148h203v475h-19q-67 0 -120 -31l-33 148q73 36 180 36h70q54 0 83 -27t29 -77v-524h162v-148h-555z" />
<glyph unicode="&#xba;" d="M180 1096q0 210 114 328t310 118q197 0 308.5 -117.5t111.5 -328.5t-114 -330t-310 -119q-197 0 -308.5 118.5t-111.5 330.5zM424 1096q0 -132 46 -202.5t134 -70.5t133 70.5t45 202.5q0 129 -47 198.5t-135 69.5t-132 -69t-44 -199z" />
<glyph unicode="&#xbb;" horiz-adv-x="1193" d="M43 180l387 398l-387 397h299l272 -277q52 -58 52 -120q0 -65 -52 -123l-272 -275h-299zM502 180l383 398l-383 397h299l266 -277q53 -56 53 -120q0 -67 -53 -123l-266 -275h-299z" />
<glyph unicode="&#xbc;" horiz-adv-x="1456" d="M37 748v147h203v475h-19q-68 0 -121 -31l-32 148q75 37 180 37h69q54 0 83.5 -27.5t29.5 -77.5v-524h162v-147h-555zM322 0l716 1524h205l-715 -1524h-206zM817 205q0 32 25 74l264 434q39 65 121 65q110 0 110 -102v-414h74v-143h-74v-125h-180v125h-252q-43 0 -65.5 23 t-22.5 63zM1024 262h133v225z" />
<glyph unicode="&#xbd;" horiz-adv-x="1456" d="M37 748v147h203v475h-19q-68 0 -121 -31l-32 148q75 37 180 37h69q54 0 83.5 -27.5t29.5 -77.5v-524h162v-147h-555zM279 0l716 1524h205l-715 -1524h-206zM866 88q0 49 33 78l225 209q54 52 74.5 84.5t20.5 79.5q0 45 -27.5 68.5t-77.5 23.5q-65 0 -156 -31l-61 -22 l-27 149l62 23q103 34 205 34q122 0 194 -58.5t72 -180.5q0 -67 -32 -129.5t-107 -132.5l-148 -138h289v-145h-451q-43 0 -65.5 23.5t-22.5 64.5z" />
<glyph unicode="&#xbe;" horiz-adv-x="1456" d="M27 795l28 151l64 -20q107 -35 178 -35q53 0 81 21.5t28 58.5q0 38 -29 67l-25 29h-157v139h153l19 29q24 27 24 65q0 78 -100 78q-76 0 -158 -30l-63 -21l-25 150l61 20q103 35 205 35q262 0 262 -215q0 -80 -51 -143l-22 -31l24 -27q68 -68 68 -151q0 -109 -76 -167.5 t-207 -58.5q-104 0 -217 37zM283 -2l716 1524h205l-715 -1524h-206zM817 211q0 32 25 74l264 434q39 65 121 65q110 0 110 -102v-414h74v-143h-74v-125h-180v125h-252q-43 0 -65.5 23t-22.5 63zM1024 268h133v226z" />
<glyph unicode="&#xbf;" horiz-adv-x="956" d="M53 -20q0 111 41 192t123 162l154 149v148l282 51v-135q0 -74 -14 -116.5t-61 -90.5l-140 -141q-57 -62 -77.5 -100t-20.5 -101q0 -64 43.5 -100.5t128.5 -36.5q113 0 242 39l110 30l41 -239l-98 -29q-167 -49 -326 -49q-197 0 -312.5 98t-115.5 269zM344 1006 q0 71 44.5 113t123.5 42t123.5 -42t44.5 -113q0 -73 -44.5 -115.5t-123.5 -42.5t-123.5 42.5t-44.5 115.5z" />
<glyph unicode="&#xc0;" horiz-adv-x="1478" d="M18 0l484 1378q53 162 248 162q192 0 243 -160l465 -1380h-358l-88 272h-549l-90 -272h-355zM420 1868h373l143 -103q43 -31 43 -77q0 -32 -26 -57t-74 -25q-60 0 -119 39zM530 528h416l-203 658z" />
<glyph unicode="&#xc1;" horiz-adv-x="1478" d="M18 0l484 1378q53 162 248 162q192 0 243 -160l465 -1380h-358l-88 272h-549l-90 -272h-355zM518 1688q0 48 43 77l144 103h372l-342 -223q-59 -39 -117 -39q-49 0 -74.5 24.5t-25.5 57.5zM530 528h416l-203 658z" />
<glyph unicode="&#xc2;" horiz-adv-x="1478" d="M18 0l484 1378q53 162 248 162q192 0 243 -160l465 -1380h-358l-88 272h-549l-90 -272h-355zM344 1612l248 209q58 51 156 51q97 0 157 -51l248 -209h-301l-104 96l-101 -96h-303zM530 528h416l-203 658z" />
<glyph unicode="&#xc3;" horiz-adv-x="1478" d="M18 0l484 1378q53 162 248 162q192 0 243 -160l465 -1380h-358l-88 272h-549l-90 -272h-355zM328 1690q45 103 118.5 150.5t159.5 47.5q94 0 162 -43l72 -41q33 -20 78 -20q37 0 65 22.5t55 77.5l150 -80q-45 -103 -118 -150.5t-161 -47.5q-85 0 -161 43l-70 41 q-39 22 -80 22q-37 0 -65.5 -23t-55.5 -79zM530 528h416l-203 658z" />
<glyph unicode="&#xc4;" horiz-adv-x="1478" d="M18 0l484 1378q53 162 248 162q192 0 243 -160l465 -1380h-358l-88 272h-549l-90 -272h-355zM389 1747q0 63 41.5 101t112.5 38q70 0 110.5 -38t40.5 -101q0 -65 -40.5 -103t-110.5 -38q-72 0 -113 38t-41 103zM530 528h416l-203 658zM805 1747q0 64 41 101.5t112 37.5 t111.5 -37.5t40.5 -101.5q0 -65 -40.5 -103t-111.5 -38q-72 0 -112.5 38t-40.5 103z" />
<glyph unicode="&#xc5;" horiz-adv-x="1478" d="M18 0l484 1378q53 162 248 162q192 0 243 -160l465 -1380h-358l-88 272h-549l-90 -272h-355zM502 1808q0 91 69 147t177 56t177.5 -56t69.5 -147t-70 -148.5t-177 -57.5t-176.5 57.5t-69.5 148.5zM530 528h416l-203 658zM647 1808q0 -39 28 -63.5t73 -24.5t73.5 24.5 t28.5 63.5q0 36 -28.5 60t-73.5 24q-44 0 -72.5 -24t-28.5 -60z" />
<glyph unicode="&#xc6;" horiz-adv-x="2170" d="M18 0l551 1356q69 168 285 168h1227v-262h-727v-359h643v-252h-643v-389h733v-262h-889q-92 0 -144.5 46.5t-52.5 129.5v96h-522l-102 -272h-359zM565 528h436v732h-161z" />
<glyph unicode="&#xc7;" horiz-adv-x="1398" d="M84 762q0 189 53.5 338t150 243.5t226.5 143.5t287 49q189 0 420 -76l120 -37l-45 -282l-122 39q-180 59 -332 59q-189 0 -290 -117.5t-101 -359.5q0 -243 101.5 -361t289.5 -118q152 0 332 59l122 39l45 -285l-120 -37q-193 -62 -371 -71l-37 -76q81 0 131.5 -36.5 t50.5 -108.5q0 -81 -58.5 -128t-162.5 -47q-97 0 -201 48l37 116q85 -39 164 -39q68 0 68 45q0 33 -41 44t-129 8l-19 26l78 148q-299 19 -473 215.5t-174 558.5z" />
<glyph unicode="&#xc8;" horiz-adv-x="1288" d="M119 182v1159q0 85 52 134t144 49h883v-262h-727v-359h637v-254h-637v-387h733v-262h-889q-92 0 -144 48.5t-52 133.5zM324 1868h372l144 -103q43 -31 43 -77q0 -32 -26.5 -57t-74.5 -25q-59 0 -118 39z" />
<glyph unicode="&#xc9;" horiz-adv-x="1288" d="M119 182v1159q0 85 52 134t144 49h883v-262h-727v-359h637v-254h-637v-387h733v-262h-889q-92 0 -144 48.5t-52 133.5zM475 1688q0 48 43 77l144 103h372l-342 -223q-59 -39 -117 -39q-49 0 -74.5 24.5t-25.5 57.5z" />
<glyph unicode="&#xca;" horiz-adv-x="1288" d="M119 182v1159q0 85 52 134t144 49h883v-262h-727v-359h637v-254h-637v-387h733v-262h-889q-92 0 -144 48.5t-52 133.5zM262 1612l248 209q58 51 156 51q97 0 157 -51l248 -209h-301l-104 96l-101 -96h-303z" />
<glyph unicode="&#xcb;" horiz-adv-x="1288" d="M119 182v1159q0 85 52 134t144 49h883v-262h-727v-359h637v-254h-637v-387h733v-262h-889q-92 0 -144 48.5t-52 133.5zM317 1747q0 63 41.5 101t112.5 38q70 0 111 -38t41 -101q0 -65 -41 -103t-111 -38q-72 0 -113 38t-41 103zM733 1747q0 63 41.5 101t112.5 38 t111 -37.5t40 -101.5q0 -65 -40 -103t-111 -38q-72 0 -113 38t-41 103z" />
<glyph unicode="&#xcc;" horiz-adv-x="593" d="M-45 1868h373l143 -103q43 -31 43 -77q0 -32 -26 -57t-74 -25q-60 0 -119 39zM119 0v1524h356v-1524h-356z" />
<glyph unicode="&#xcd;" horiz-adv-x="593" d="M90 1688q0 48 43 77l143 103h373l-342 -223q-59 -39 -117 -39q-49 0 -74.5 24.5t-25.5 57.5zM119 0v1524h356v-1524h-356z" />
<glyph unicode="&#xce;" horiz-adv-x="593" d="M-109 1612l248 209q58 51 156 51t158 -51l247 -209h-301l-104 96l-100 -96h-304zM119 0v1524h356v-1524h-356z" />
<glyph unicode="&#xcf;" horiz-adv-x="593" d="M-59 1747q0 64 41 101.5t112 37.5q70 0 111 -38t41 -101q0 -65 -41 -103t-111 -38q-72 0 -112.5 38t-40.5 103zM119 0v1524h356v-1524h-356zM356 1747q0 63 41.5 101t112.5 38t111.5 -37.5t40.5 -101.5q0 -65 -40.5 -103t-111.5 -38q-72 0 -113 38t-41 103z" />
<glyph unicode="&#xd0;" horiz-adv-x="1538" d="M20 678v192h123v471q0 85 52 134t145 49h395q331 0 525 -204t194 -562q0 -238 -91 -410t-254 -260t-380 -88h-389q-93 0 -145 48.5t-52 133.5v496h-123zM496 270h227q184 0 283.5 126.5t99.5 361.5q0 233 -104 366t-291 133h-215v-387h335v-192h-335v-408z" />
<glyph unicode="&#xd1;" horiz-adv-x="1546" d="M119 0v1321q0 105 65 161t183 56q106 0 161.5 -45t98.5 -139l493 -875v1045h307v-1319q0 -105 -65.5 -161t-183.5 -56q-106 0 -161.5 45t-96.5 139l-494 875v-1047h-307zM365 1690q45 103 118.5 150.5t159.5 47.5q94 0 162 -43l72 -41q33 -20 77 -20q37 0 65.5 22.5 t55.5 77.5l150 -80q-45 -103 -118 -150.5t-161 -47.5q-86 0 -162 43l-69 41q-39 22 -80 22q-37 0 -65.5 -23t-55.5 -79z" />
<glyph unicode="&#xd2;" horiz-adv-x="1652" d="M84 760q0 364 204 569t543 205q337 0 537.5 -204t200.5 -570q0 -185 -54.5 -332t-153 -243.5t-236 -147.5t-304.5 -51q-337 0 -537 204t-200 570zM438 760q0 -249 103.5 -384.5t289.5 -135.5q182 0 281.5 134.5t99.5 385.5q0 247 -103 381.5t-288 134.5 q-183 0 -283 -134.5t-100 -381.5zM489 1868h373l144 -103q43 -31 43 -77q0 -32 -26.5 -57t-74.5 -25q-60 0 -119 39z" />
<glyph unicode="&#xd3;" horiz-adv-x="1652" d="M84 760q0 364 204 569t543 205q337 0 537.5 -204t200.5 -570q0 -185 -54.5 -332t-153 -243.5t-236 -147.5t-304.5 -51q-337 0 -537 204t-200 570zM438 760q0 -249 103.5 -384.5t289.5 -135.5q182 0 281.5 134.5t99.5 385.5q0 247 -103 381.5t-288 134.5 q-183 0 -283 -134.5t-100 -381.5zM645 1688q0 48 43 77l143 103h373l-342 -223q-59 -39 -117 -39q-49 0 -74.5 24.5t-25.5 57.5z" />
<glyph unicode="&#xd4;" horiz-adv-x="1652" d="M84 760q0 364 204 569t543 205q337 0 537.5 -204t200.5 -570q0 -185 -54.5 -332t-153 -243.5t-236 -147.5t-304.5 -51q-337 0 -537 204t-200 570zM430 1612l248 209q58 51 156 51q97 0 157 -51l248 -209h-301l-104 96l-101 -96h-303zM438 760q0 -249 103.5 -384.5 t289.5 -135.5q182 0 281.5 134.5t99.5 385.5q0 247 -103 381.5t-288 134.5q-183 0 -283 -134.5t-100 -381.5z" />
<glyph unicode="&#xd5;" horiz-adv-x="1652" d="M84 760q0 364 204 569t543 205q337 0 537.5 -204t200.5 -570q0 -185 -54.5 -332t-153 -243.5t-236 -147.5t-304.5 -51q-337 0 -537 204t-200 570zM414 1690q45 103 118.5 150.5t159.5 47.5q94 0 162 -43l72 -41q33 -20 78 -20q37 0 65 22.5t55 77.5l150 -80 q-45 -103 -118 -150.5t-161 -47.5q-85 0 -161 43l-70 41q-39 22 -80 22q-37 0 -65.5 -23t-55.5 -79zM438 760q0 -249 103.5 -384.5t289.5 -135.5q182 0 281.5 134.5t99.5 385.5q0 247 -103 381.5t-288 134.5q-183 0 -283 -134.5t-100 -381.5z" />
<glyph unicode="&#xd6;" horiz-adv-x="1652" d="M84 760q0 364 204 569t543 205q337 0 537.5 -204t200.5 -570q0 -185 -54.5 -332t-153 -243.5t-236 -147.5t-304.5 -51q-337 0 -537 204t-200 570zM438 760q0 -249 103.5 -384.5t289.5 -135.5q182 0 281.5 134.5t99.5 385.5q0 247 -103 381.5t-288 134.5 q-183 0 -283 -134.5t-100 -381.5zM467 1747q0 63 41.5 101t112.5 38q70 0 110.5 -38t40.5 -101q0 -65 -40.5 -103t-110.5 -38q-72 0 -113 38t-41 103zM883 1747q0 64 41 101.5t112 37.5t111.5 -37.5t40.5 -101.5q0 -65 -40.5 -103t-111.5 -38q-72 0 -112.5 38t-40.5 103z " />
<glyph unicode="&#xd7;" d="M104 281l314 315l-314 315l183 181l313 -314l315 314l183 -181l-314 -315l314 -315l-183 -183l-315 314l-313 -314z" />
<glyph unicode="&#xd8;" horiz-adv-x="1652" d="M84 760q0 364 204 569t543 205q151 0 273 -43l72 131h237l-123 -225q134 -99 206.5 -260.5t72.5 -376.5q0 -185 -54.5 -332t-153 -243.5t-236 -147.5t-304.5 -51q-153 0 -278 43l-74 -135h-242l127 233q-130 99 -200 259.5t-70 373.5zM438 760q0 -211 76 -344l457 831 q-72 29 -150 29q-183 0 -283 -134.5t-100 -381.5zM674 270q70 -30 157 -30q182 0 281.5 134.5t99.5 385.5q0 215 -79 348z" />
<glyph unicode="&#xd9;" horiz-adv-x="1495" d="M109 559v965h354v-963q0 -146 72 -220.5t213 -74.5q284 0 284 295v963h354v-965q0 -278 -165.5 -432t-475.5 -154q-308 0 -472 154t-164 432zM369 1868h372l144 -103q43 -31 43 -77q0 -32 -26.5 -57t-74.5 -25q-59 0 -118 39z" />
<glyph unicode="&#xda;" horiz-adv-x="1495" d="M109 559v965h354v-963q0 -146 72 -220.5t213 -74.5q284 0 284 295v963h354v-965q0 -278 -165.5 -432t-475.5 -154q-308 0 -472 154t-164 432zM586 1688q0 48 43 77l143 103h373l-342 -223q-59 -39 -117 -39q-49 0 -74.5 24.5t-25.5 57.5z" />
<glyph unicode="&#xdb;" horiz-adv-x="1495" d="M109 559v965h354v-963q0 -146 72 -220.5t213 -74.5q284 0 284 295v963h354v-965q0 -278 -165.5 -432t-475.5 -154q-308 0 -472 154t-164 432zM344 1612l248 209q58 51 156 51q97 0 157 -51l248 -209h-301l-104 96l-101 -96h-303z" />
<glyph unicode="&#xdc;" horiz-adv-x="1495" d="M109 559v965h354v-963q0 -146 72 -220.5t213 -74.5q284 0 284 295v963h354v-965q0 -278 -165.5 -432t-475.5 -154q-308 0 -472 154t-164 432zM395 1747q0 63 41.5 101t112.5 38q70 0 110.5 -38t40.5 -101q0 -65 -40.5 -103t-110.5 -38q-72 0 -113 38t-41 103zM811 1747 q0 63 41.5 101t112.5 38t111 -37.5t40 -101.5q0 -65 -40 -103t-111 -38q-72 0 -113 38t-41 103z" />
<glyph unicode="&#xdd;" horiz-adv-x="1470" d="M14 1524h385l346 -594l330 594h381l-541 -893v-631h-354v627zM584 1688q0 48 43 77l143 103h373l-342 -223q-59 -39 -117 -39q-49 0 -74.5 24.5t-25.5 57.5z" />
<glyph unicode="&#xde;" horiz-adv-x="1349" d="M119 0v1524h346v-244h313q226 0 361 -131.5t135 -357.5q0 -228 -140 -360t-376 -132h-293v-299h-346zM465 557h262q107 0 168 62t61 174q0 106 -60 168.5t-159 62.5h-272v-467z" />
<glyph unicode="&#xdf;" horiz-adv-x="1189" d="M109 0v1155q0 112 35 196.5t97.5 135t143 75.5t176.5 25q205 0 330 -103t125 -290q0 -142 -80 -268l-78 -115l113 -102q75 -70 112 -145.5t37 -170.5q0 -182 -119.5 -287.5t-328.5 -105.5h-144v238h131q87 0 132 47.5t45 124.5q0 46 -19 81.5t-59 77.5l-113 117 q-87 90 -22 211l67 119q41 74 41 168q0 77 -45.5 123.5t-122.5 46.5q-78 0 -119 -49t-41 -144v-1161h-294z" />
<glyph unicode="&#xe0;" horiz-adv-x="1239" d="M80 317q0 78 25 138.5t68 100t105 65t131.5 36.5t151.5 11h236v69q0 162 -193 162q-149 0 -336 -59l-110 -35l-39 231l110 33q233 70 406 70q98 0 176.5 -21t139 -66t93.5 -121.5t33 -180.5v-510l123 -74l-108 -193l-103 56q-67 37 -158 16l-61 -14q-172 -43 -293 -43 q-186 0 -291.5 87t-105.5 242zM285 1563h379l149 -140q43 -41 43 -90q0 -37 -27.5 -65.5t-78.5 -28.5q-64 0 -121 47zM369 328q0 -64 43 -96.5t120 -32.5q74 0 183 28l84 21v221h-232q-198 0 -198 -141z" />
<glyph unicode="&#xe1;" horiz-adv-x="1239" d="M80 317q0 78 25 138.5t68 100t105 65t131.5 36.5t151.5 11h236v69q0 162 -193 162q-149 0 -336 -59l-110 -35l-39 231l110 33q233 70 406 70q98 0 176.5 -21t139 -66t93.5 -121.5t33 -180.5v-510l123 -74l-108 -193l-103 56q-67 37 -158 16l-61 -14q-172 -43 -293 -43 q-186 0 -291.5 87t-105.5 242zM369 328q0 -64 43 -96.5t120 -32.5q74 0 183 28l84 21v221h-232q-198 0 -198 -141zM444 1333q0 49 41 90l152 140h377l-344 -277q-57 -47 -121 -47q-49 0 -77 28.5t-28 65.5z" />
<glyph unicode="&#xe2;" horiz-adv-x="1239" d="M80 317q0 78 25 138.5t68 100t105 65t131.5 36.5t151.5 11h236v69q0 162 -193 162q-149 0 -336 -59l-110 -35l-39 231l110 33q233 70 406 70q98 0 176.5 -21t139 -66t93.5 -121.5t33 -180.5v-510l123 -74l-108 -193l-103 56q-67 37 -158 16l-61 -14q-172 -43 -293 -43 q-186 0 -291.5 87t-105.5 242zM213 1237l256 270q66 62 160 62q100 0 159 -62l259 -270h-308l-110 139l-107 -139h-309zM369 328q0 -64 43 -96.5t120 -32.5q74 0 183 28l84 21v221h-232q-198 0 -198 -141z" />
<glyph unicode="&#xe3;" horiz-adv-x="1239" d="M80 317q0 78 25 138.5t68 100t105 65t131.5 36.5t151.5 11h236v69q0 162 -193 162q-149 0 -336 -59l-110 -35l-39 231l110 33q233 70 406 70q98 0 176.5 -21t139 -66t93.5 -121.5t33 -180.5v-510l123 -74l-108 -193l-103 56q-67 37 -158 16l-61 -14q-172 -43 -293 -43 q-186 0 -291.5 87t-105.5 242zM174 1333q47 126 125.5 184t171.5 58q95 0 168 -53l72 -52q42 -30 82 -30q38 0 69.5 29.5t59.5 97.5l153 -94q-45 -124 -125 -184t-172 -60q-93 0 -168 55l-69 51q-43 31 -84 31q-77 0 -129 -127zM369 328q0 -64 43 -96.5t120 -32.5 q74 0 183 28l84 21v221h-232q-198 0 -198 -141z" />
<glyph unicode="&#xe4;" horiz-adv-x="1239" d="M80 317q0 78 25 138.5t68 100t105 65t131.5 36.5t151.5 11h236v69q0 162 -193 162q-149 0 -336 -59l-110 -35l-39 231l110 33q233 70 406 70q98 0 176.5 -21t139 -66t93.5 -121.5t33 -180.5v-510l123 -74l-108 -193l-103 56q-67 37 -158 16l-61 -14q-172 -43 -293 -43 q-186 0 -291.5 87t-105.5 242zM260 1421q0 71 43 113.5t117 42.5q73 0 114 -42.5t41 -113.5t-41 -113t-114 -42q-74 0 -117 42t-43 113zM369 328q0 -64 43 -96.5t120 -32.5q74 0 183 28l84 21v221h-232q-198 0 -198 -141zM690 1421q0 71 42.5 113.5t115.5 42.5t115.5 -42.5 t42.5 -113.5t-42.5 -113t-115.5 -42t-115.5 42t-42.5 113z" />
<glyph unicode="&#xe5;" horiz-adv-x="1239" d="M80 317q0 78 25 138.5t68 100t105 65t131.5 36.5t151.5 11h236v69q0 162 -193 162q-149 0 -336 -59l-110 -35l-39 231l110 33q233 70 406 70q98 0 176.5 -21t139 -66t93.5 -121.5t33 -180.5v-510l123 -74l-108 -193l-103 56q-67 37 -158 16l-61 -14q-172 -43 -293 -43 q-186 0 -291.5 87t-105.5 242zM362 1448q0 110 75 178t188 68t188.5 -68t75.5 -178q0 -107 -77 -177.5t-187 -70.5t-186.5 70.5t-76.5 177.5zM369 328q0 -64 43 -96.5t120 -32.5q74 0 183 28l84 21v221h-232q-198 0 -198 -141zM516 1448q0 -46 30 -76.5t79 -30.5t79.5 30.5 t30.5 76.5q0 44 -30.5 75t-79.5 31t-79 -31t-30 -75z" />
<glyph unicode="&#xe6;" horiz-adv-x="1912" d="M80 317q0 78 25 138.5t68 100t105 65t131.5 36.5t151.5 11h236v69q0 162 -193 162q-149 0 -336 -59l-110 -35l-39 231l110 33q233 70 406 70q235 0 338 -135q137 137 354 137q242 0 379 -139t137 -412q0 -63 -29 -93t-92 -30h-639q10 -121 88 -181.5t207 -60.5 q138 0 305 49l109 35l37 -221l-109 -35q-201 -65 -364 -65q-171 0 -285 61q-69 32 -139 17l-162 -37q-210 -41 -293 -41q-186 0 -291.5 87t-105.5 242zM369 328q0 -64 43 -96.5t120 -32.5q78 0 183 24l147 33q-50 90 -59 213h-236q-198 0 -198 -141zM1081 666h475 q0 116 -59 189t-178 73q-105 0 -167.5 -70t-70.5 -192z" />
<glyph unicode="&#xe7;" horiz-adv-x="1087" d="M80 563q0 276 144.5 425t387.5 149q141 0 322 -54l94 -28l-37 -242l-90 29q-174 49 -256 49q-264 0 -264 -328q0 -330 264 -330q78 0 256 50l90 26l37 -239l-94 -29q-152 -47 -279 -53l-37 -76q81 0 132 -36.5t51 -108.5q0 -81 -58.5 -128t-162.5 -47q-97 0 -201 48 l37 116q85 -39 164 -39q67 0 67 45q0 33 -41 44t-129 8l-18 26l78 150q-212 21 -334.5 166.5t-122.5 406.5z" />
<glyph unicode="&#xe8;" horiz-adv-x="1200" d="M80 561q0 145 42.5 258t116.5 182t168.5 104.5t204.5 35.5q243 0 380.5 -139t137.5 -412q0 -63 -29.5 -93t-92.5 -30h-639q10 -121 88 -181.5t207 -60.5q138 0 305 49l108 35l39 -221l-108 -35q-204 -65 -365 -65q-261 0 -412 147t-151 426zM250 1563h379l149 -140 q43 -41 43 -90q0 -37 -27.5 -65.5t-78.5 -28.5q-64 0 -121 47zM367 666h475q0 115 -59.5 188.5t-178.5 73.5q-105 0 -167 -70t-70 -192z" />
<glyph unicode="&#xe9;" horiz-adv-x="1200" d="M80 561q0 145 42.5 258t116.5 182t168.5 104.5t204.5 35.5q243 0 380.5 -139t137.5 -412q0 -63 -29.5 -93t-92.5 -30h-639q10 -121 88 -181.5t207 -60.5q138 0 305 49l108 35l39 -221l-108 -35q-204 -65 -365 -65q-261 0 -412 147t-151 426zM367 666h475 q0 115 -59.5 188.5t-178.5 73.5q-105 0 -167 -70t-70 -192zM440 1333q0 49 41 90l152 140h377l-344 -277q-57 -47 -121 -47q-49 0 -77 28.5t-28 65.5z" />
<glyph unicode="&#xea;" horiz-adv-x="1200" d="M80 561q0 145 42.5 258t116.5 182t168.5 104.5t204.5 35.5q243 0 380.5 -139t137.5 -412q0 -63 -29.5 -93t-92.5 -30h-639q10 -121 88 -181.5t207 -60.5q138 0 305 49l108 35l39 -221l-108 -35q-204 -65 -365 -65q-261 0 -412 147t-151 426zM201 1237l256 270 q66 62 159 62q101 0 160 -62l258 -270h-307l-111 139l-106 -139h-309zM367 666h475q0 115 -59.5 188.5t-178.5 73.5q-105 0 -167 -70t-70 -192z" />
<glyph unicode="&#xeb;" horiz-adv-x="1200" d="M80 561q0 145 42.5 258t116.5 182t168.5 104.5t204.5 35.5q243 0 380.5 -139t137.5 -412q0 -63 -29.5 -93t-92.5 -30h-639q10 -121 88 -181.5t207 -60.5q138 0 305 49l108 35l39 -221l-108 -35q-204 -65 -365 -65q-261 0 -412 147t-151 426zM246 1421q0 71 43 113.5 t117 42.5q73 0 114 -42.5t41 -113.5t-41 -113t-114 -42q-74 0 -117 42t-43 113zM367 666h475q0 115 -59.5 188.5t-178.5 73.5q-105 0 -167 -70t-70 -192zM676 1421q0 71 42.5 113.5t115.5 42.5t115 -42.5t42 -113.5t-42 -113t-115 -42t-115.5 42t-42.5 113z" />
<glyph unicode="&#xec;" horiz-adv-x="532" d="M-98 1563h379l149 -140q43 -41 43 -90q0 -37 -27.5 -65.5t-78.5 -28.5q-64 0 -121 47zM121 0v1124h291v-1124h-291z" />
<glyph unicode="&#xed;" horiz-adv-x="532" d="M47 1333q0 49 41 90l152 140h376l-344 -277q-57 -47 -120 -47q-49 0 -77 28.5t-28 65.5zM121 0v1124h291v-1124h-291z" />
<glyph unicode="&#xee;" horiz-adv-x="532" d="M-145 1237l256 270q66 62 159 62q101 0 160 -62l258 -270h-307l-111 139l-106 -139h-309zM121 0v1124h291v-1124h-291z" />
<glyph unicode="&#xef;" horiz-adv-x="532" d="M-104 1421q0 71 42.5 113.5t116.5 42.5q73 0 114.5 -42.5t41.5 -113.5t-41.5 -113t-114.5 -42q-74 0 -116.5 42t-42.5 113zM121 0v1124h291v-1124h-291zM326 1421q0 71 42 113.5t115 42.5t115.5 -42.5t42.5 -113.5t-42.5 -113t-115.5 -42t-115 42t-42 113z" />
<glyph unicode="&#xf0;" horiz-adv-x="1280" d="M88 532q0 151 55 266.5t168 184t271 68.5q28 0 57 -2.5t50 -5.5t49.5 -9.5t43.5 -10.5t46 -12.5t42 -11.5v70q0 97 -34 164l-289 -141v168l178 88q-64 34 -156 34h-123v181h152q233 0 375 -93l223 111v-170l-109 -53q82 -122 82 -314v-536q0 -237 -141.5 -377.5 t-402.5 -140.5q-255 0 -396 150t-141 392zM389 528q0 -150 62 -232.5t180 -82.5q237 0 237 303v275q-141 34 -227 36q-132 0 -192 -80t-60 -219z" />
<glyph unicode="&#xf1;" horiz-adv-x="1200" d="M115 0v903q0 74 35.5 116.5t109.5 63.5q200 54 365 54q237 0 349.5 -108.5t112.5 -295.5v-733h-294v707q0 178 -181 178q-81 0 -200 -31v-854h-297zM156 1333q47 126 125.5 184t171.5 58q95 0 168 -53l71 -52q42 -30 82 -30q38 0 69.5 29.5t59.5 97.5l154 -94 q-45 -124 -125 -184t-172 -60q-93 0 -168 55l-70 51q-43 31 -84 31q-77 0 -129 -127z" />
<glyph unicode="&#xf2;" horiz-adv-x="1265" d="M80 563q0 272 149.5 423t407.5 151q257 0 403 -150.5t146 -423.5q0 -274 -149.5 -424.5t-407.5 -150.5q-257 0 -403 151.5t-146 423.5zM305 1563h379l150 -140q43 -41 43 -90q0 -37 -28 -65.5t-79 -28.5q-64 0 -121 47zM381 563q0 -177 65 -267.5t191 -90.5q124 0 187 91 t63 267q0 174 -66 265.5t-192 91.5q-123 0 -185.5 -91.5t-62.5 -265.5z" />
<glyph unicode="&#xf3;" horiz-adv-x="1265" d="M80 563q0 272 149.5 423t407.5 151q257 0 403 -150.5t146 -423.5q0 -274 -149.5 -424.5t-407.5 -150.5q-257 0 -403 151.5t-146 423.5zM381 563q0 -177 65 -267.5t191 -90.5q124 0 187 91t63 267q0 174 -66 265.5t-192 91.5q-123 0 -185.5 -91.5t-62.5 -265.5zM418 1333 q0 49 41 90l151 140h377l-344 -277q-57 -47 -121 -47q-49 0 -76.5 28.5t-27.5 65.5z" />
<glyph unicode="&#xf4;" horiz-adv-x="1265" d="M80 563q0 272 149.5 423t407.5 151q257 0 403 -150.5t146 -423.5q0 -274 -149.5 -424.5t-407.5 -150.5q-257 0 -403 151.5t-146 423.5zM219 1237l256 270q66 62 160 62q101 0 160 -62l258 -270h-308l-110 139l-107 -139h-309zM381 563q0 -177 65 -267.5t191 -90.5 q124 0 187 91t63 267q0 174 -66 265.5t-192 91.5q-123 0 -185.5 -91.5t-62.5 -265.5z" />
<glyph unicode="&#xf5;" horiz-adv-x="1265" d="M80 563q0 272 149.5 423t407.5 151q257 0 403 -150.5t146 -423.5q0 -274 -149.5 -424.5t-407.5 -150.5q-257 0 -403 151.5t-146 423.5zM199 1333q47 126 125.5 184t171.5 58q95 0 168 -53l71 -52q42 -30 82 -30q38 0 69.5 29.5t59.5 97.5l154 -94q-45 -124 -125 -184 t-172 -60q-93 0 -168 55l-70 51q-43 31 -84 31q-77 0 -129 -127zM381 563q0 -177 65 -267.5t191 -90.5q124 0 187 91t63 267q0 174 -66 265.5t-192 91.5q-123 0 -185.5 -91.5t-62.5 -265.5z" />
<glyph unicode="&#xf6;" horiz-adv-x="1265" d="M80 563q0 272 149.5 423t407.5 151q257 0 403 -150.5t146 -423.5q0 -274 -149.5 -424.5t-407.5 -150.5q-257 0 -403 151.5t-146 423.5zM268 1421q0 71 43 113.5t117 42.5q73 0 114.5 -42.5t41.5 -113.5t-41.5 -113t-114.5 -42q-74 0 -117 42t-43 113zM381 563 q0 -177 65 -267.5t191 -90.5q124 0 187 91t63 267q0 174 -66 265.5t-192 91.5q-123 0 -185.5 -91.5t-62.5 -265.5zM698 1421q0 71 42.5 113.5t115.5 42.5t115.5 -42.5t42.5 -113.5t-42.5 -113t-115.5 -42t-115.5 42t-42.5 113z" />
<glyph unicode="&#xf7;" d="M98 487v230h1010v-230h-1010zM436 197q0 68 44.5 108.5t121.5 40.5q76 0 121 -40.5t45 -108.5t-45 -109t-121 -41q-77 0 -121.5 41t-44.5 109zM436 1004q0 68 44.5 109.5t121.5 41.5q76 0 121 -41.5t45 -109.5t-45 -109t-121 -41q-77 0 -121.5 41t-44.5 109z" />
<glyph unicode="&#xf8;" horiz-adv-x="1265" d="M80 563q0 272 149.5 423t407.5 151q92 0 188 -27l60 109h213l-105 -191q193 -151 193 -465q0 -274 -149.5 -424.5t-407.5 -150.5q-105 0 -187 24l-63 -116h-213l108 198q-194 152 -194 469zM381 563q0 -132 33 -211l301 553q-41 15 -86 15q-123 0 -185.5 -91.5 t-62.5 -265.5zM553 217q37 -12 84 -12q124 0 187 91t63 267q0 124 -35 205z" />
<glyph unicode="&#xf9;" horiz-adv-x="1200" d="M115 391v733h293v-706q0 -84 41.5 -131t140.5 -47q85 0 198 32v852h299v-903q0 -73 -36.5 -116t-110.5 -62q-187 -53 -365 -53q-237 0 -348.5 107t-111.5 294zM238 1563h378l150 -140q43 -41 43 -90q0 -37 -28 -65.5t-79 -28.5q-63 0 -120 47z" />
<glyph unicode="&#xfa;" horiz-adv-x="1200" d="M115 391v733h293v-706q0 -84 41.5 -131t140.5 -47q85 0 198 32v852h299v-903q0 -73 -36.5 -116t-110.5 -62q-187 -53 -365 -53q-237 0 -348.5 107t-111.5 294zM393 1333q0 49 41 90l152 140h377l-345 -277q-57 -47 -120 -47q-49 0 -77 28.5t-28 65.5z" />
<glyph unicode="&#xfb;" horiz-adv-x="1200" d="M115 391v733h293v-706q0 -84 41.5 -131t140.5 -47q85 0 198 32v852h299v-903q0 -73 -36.5 -116t-110.5 -62q-187 -53 -365 -53q-237 0 -348.5 107t-111.5 294zM186 1237l256 270q66 62 160 62q101 0 160 -62l258 -270h-307l-111 139l-106 -139h-310z" />
<glyph unicode="&#xfc;" horiz-adv-x="1200" d="M115 391v733h293v-706q0 -84 41.5 -131t140.5 -47q85 0 198 32v852h299v-903q0 -73 -36.5 -116t-110.5 -62q-187 -53 -365 -53q-237 0 -348.5 107t-111.5 294zM231 1421q0 71 43 113.5t117 42.5q73 0 114.5 -42.5t41.5 -113.5t-41.5 -113t-114.5 -42q-74 0 -117 42 t-43 113zM662 1421q0 71 42 113.5t115 42.5t115.5 -42.5t42.5 -113.5t-42.5 -113t-115.5 -42t-115 42t-42 113z" />
<glyph unicode="&#xfd;" horiz-adv-x="1173" d="M33 1124h327l256 -782l222 782h309l-406 -1220q-94 -279 -383 -279q-108 0 -266 47l37 219q137 -36 197 -36q111 0 137 104l10 39zM455 1333q0 49 41 90l151 140h377l-344 -277q-57 -47 -121 -47q-49 0 -76.5 28.5t-27.5 65.5z" />
<glyph unicode="&#xfe;" horiz-adv-x="1230" d="M115 -381v1913l293 53v-489q171 37 243 37q250 0 375 -146t125 -420q0 -275 -129 -424t-377 -149q-91 0 -237 43v-365zM408 268q127 -34 198 -37q133 0 193.5 84t60.5 250q0 330 -256 330q-69 0 -196 -33v-594z" />
<glyph unicode="&#xff;" horiz-adv-x="1173" d="M33 1124h327l256 -782l222 782h309l-406 -1220q-94 -279 -383 -279q-108 0 -266 47l37 219q137 -36 197 -36q111 0 137 104l10 39zM233 1421q0 71 43 113.5t117 42.5q73 0 114.5 -42.5t41.5 -113.5t-41.5 -113t-114.5 -42q-74 0 -117 42t-43 113zM664 1421q0 71 42 113.5 t115 42.5t115.5 -42.5t42.5 -113.5t-42.5 -113t-115.5 -42t-115 42t-42 113z" />
<glyph unicode="&#x100;" horiz-adv-x="1478" d="M18 0l484 1378q53 162 248 162q192 0 243 -160l465 -1380h-358l-88 272h-549l-90 -272h-355zM391 1626v193h711v-193h-711zM530 528h416l-203 658z" />
<glyph unicode="&#x101;" horiz-adv-x="1239" d="M80 317q0 78 25 138.5t68 100t105 65t131.5 36.5t151.5 11h236v69q0 162 -193 162q-149 0 -336 -59l-110 -35l-39 231l110 33q233 70 406 70q98 0 176.5 -21t139 -66t93.5 -121.5t33 -180.5v-510l123 -74l-108 -193l-103 56q-67 37 -158 16l-61 -14q-172 -43 -293 -43 q-186 0 -291.5 87t-105.5 242zM244 1286v225h733v-225h-733zM369 328q0 -64 43 -96.5t120 -32.5q74 0 183 28l84 21v221h-232q-198 0 -198 -141z" />
<glyph unicode="&#x102;" horiz-adv-x="1478" d="M18 0l484 1378q53 162 248 162q192 0 243 -160l465 -1380h-358l-88 272h-549l-90 -272h-355zM367 1874h243q0 -51 38 -81t102 -30q63 0 101 30t38 81h241q0 -123 -109.5 -195.5t-270.5 -72.5q-164 0 -273.5 72t-109.5 196zM530 528h416l-203 658z" />
<glyph unicode="&#x103;" horiz-adv-x="1239" d="M80 317q0 78 25 138.5t68 100t105 65t131.5 36.5t151.5 11h236v69q0 162 -193 162q-149 0 -336 -59l-110 -35l-39 231l110 33q233 70 406 70q98 0 176.5 -21t139 -66t93.5 -121.5t33 -180.5v-510l123 -74l-108 -193l-103 56q-67 37 -158 16l-61 -14q-172 -43 -293 -43 q-186 0 -291.5 87t-105.5 242zM205 1563h256q0 -70 37.5 -110t101.5 -40q65 0 103 40t38 110h254q0 -149 -113 -241.5t-282 -92.5t-282 92.5t-113 241.5zM369 328q0 -64 43 -96.5t120 -32.5q74 0 183 28l84 21v221h-232q-198 0 -198 -141z" />
<glyph unicode="&#x104;" horiz-adv-x="1478" d="M18 0l484 1378q53 162 248 162q192 0 243 -160l465 -1380q-90 -55 -90 -127t92 -72q91 0 197 43l35 -141q-126 -53 -252 -53q-111 0 -180.5 43.5t-69.5 126.5q0 114 115 180h-205l-88 272h-549l-90 -272h-355zM530 528h416l-203 658z" />
<glyph unicode="&#x105;" horiz-adv-x="1239" d="M80 317q0 78 25 138.5t68 100t105 65t131.5 36.5t151.5 11h236v69q0 162 -193 162q-149 0 -336 -59l-110 -35l-39 231l110 33q233 70 406 70q98 0 176.5 -21t139 -66t93.5 -121.5t33 -180.5v-510l123 -74l-108 -193q-74 -43 -74 -112q0 -70 94 -70q90 0 197 41l32 -141 q-128 -51 -251 -51q-116 0 -183 47t-67 133q0 70 37.5 127.5t99.5 87.5q-67 28 -146 10l-61 -14q-172 -43 -293 -43q-186 0 -291.5 87t-105.5 242zM369 328q0 -64 43 -96.5t120 -32.5q74 0 183 28l84 21v221h-232q-198 0 -198 -141z" />
<glyph unicode="&#x106;" horiz-adv-x="1398" d="M84 762q0 189 53.5 338t150 243.5t226.5 143.5t287 49q189 0 420 -76l120 -37l-45 -282l-122 39q-180 59 -332 59q-189 0 -290 -117.5t-101 -359.5q0 -243 101.5 -361t289.5 -118q152 0 332 59l122 39l45 -285l-120 -37q-222 -73 -422 -73q-159 0 -289 48t-225.5 142 t-148 243.5t-52.5 342.5zM594 1688q0 48 43 77l143 103h373l-342 -223q-59 -39 -117 -39q-49 0 -74.5 24.5t-25.5 57.5z" />
<glyph unicode="&#x107;" horiz-adv-x="1087" d="M80 563q0 276 144.5 425t387.5 149q141 0 322 -54l94 -28l-37 -242l-90 29q-174 49 -256 49q-264 0 -264 -328q0 -330 264 -330q78 0 256 50l90 26l37 -239l-94 -29q-184 -55 -322 -55q-244 0 -388 147t-144 430zM412 1333q0 49 41 90l151 140h377l-344 -277 q-57 -47 -121 -47q-49 0 -76.5 28.5t-27.5 65.5z" />
<glyph unicode="&#x108;" horiz-adv-x="1398" d="M84 762q0 189 53.5 338t150 243.5t226.5 143.5t287 49q189 0 420 -76l120 -37l-45 -282l-122 39q-180 59 -332 59q-189 0 -290 -117.5t-101 -359.5q0 -243 101.5 -361t289.5 -118q152 0 332 59l122 39l45 -285l-120 -37q-222 -73 -422 -73q-159 0 -289 48t-225.5 142 t-148 243.5t-52.5 342.5zM397 1612l248 209q58 51 156 51q97 0 157 -51l248 -209h-301l-104 96l-101 -96h-303z" />
<glyph unicode="&#x109;" horiz-adv-x="1087" d="M80 563q0 276 144.5 425t387.5 149q141 0 322 -54l94 -28l-37 -242l-90 29q-174 49 -256 49q-264 0 -264 -328q0 -330 264 -330q78 0 256 50l90 26l37 -239l-94 -29q-184 -55 -322 -55q-244 0 -388 147t-144 430zM195 1237l256 270q66 62 159 62q101 0 160 -62l258 -270 h-307l-111 139l-106 -139h-309z" />
<glyph unicode="&#x10a;" horiz-adv-x="1398" d="M84 762q0 189 53.5 338t150 243.5t226.5 143.5t287 49q189 0 420 -76l120 -37l-45 -282l-122 39q-180 59 -332 59q-189 0 -290 -117.5t-101 -359.5q0 -243 101.5 -361t289.5 -118q152 0 332 59l122 39l45 -285l-120 -37q-222 -73 -422 -73q-159 0 -289 48t-225.5 142 t-148 243.5t-52.5 342.5zM631 1749q0 63 44 101t120 38t118.5 -37.5t42.5 -101.5q0 -66 -42.5 -104.5t-118.5 -38.5t-120 38.5t-44 104.5z" />
<glyph unicode="&#x10b;" horiz-adv-x="1087" d="M80 563q0 276 144.5 425t387.5 149q141 0 322 -54l94 -28l-37 -242l-90 29q-174 49 -256 49q-264 0 -264 -328q0 -330 264 -330q78 0 256 50l90 26l37 -239l-94 -29q-184 -55 -322 -55q-244 0 -388 147t-144 430zM442 1419q0 73 44.5 115.5t123.5 42.5q78 0 123 -43 t45 -115q0 -71 -45 -113t-123 -42q-79 0 -123.5 42t-44.5 113z" />
<glyph unicode="&#x10c;" horiz-adv-x="1398" d="M84 762q0 189 53.5 338t150 243.5t226.5 143.5t287 49q189 0 420 -76l120 -37l-45 -282l-122 39q-180 59 -332 59q-189 0 -290 -117.5t-101 -359.5q0 -243 101.5 -361t289.5 -118q152 0 332 59l122 39l45 -285l-120 -37q-222 -73 -422 -73q-159 0 -289 48t-225.5 142 t-148 243.5t-52.5 342.5zM399 1868h303l105 -99l100 99h301l-245 -211q-58 -51 -156 -51t-158 51z" />
<glyph unicode="&#x10d;" horiz-adv-x="1087" d="M80 563q0 276 144.5 425t387.5 149q141 0 322 -54l94 -28l-37 -242l-90 29q-174 49 -256 49q-264 0 -264 -328q0 -330 264 -330q78 0 256 50l90 26l37 -239l-94 -29q-184 -55 -322 -55q-244 0 -388 147t-144 430zM205 1565h309l111 -140l106 140h307l-256 -269 q-58 -61 -157 -61q-108 0 -160 61z" />
<glyph unicode="&#x10e;" horiz-adv-x="1515" d="M119 182v1159q0 85 52 134t144 49h396q332 0 526.5 -204t194.5 -562q0 -238 -91 -410t-254 -260t-380 -88h-392q-92 0 -144 48.5t-52 133.5zM297 1868h303l105 -99l100 99h301l-246 -211q-58 -51 -155 -51q-98 0 -158 51zM471 270h229q182 0 282.5 126.5t100.5 361.5 q0 233 -104.5 366t-292.5 133h-215v-987z" />
<glyph unicode="&#x10f;" horiz-adv-x="1572" d="M80 557q0 275 129 425.5t377 150.5q93 0 237 -46v445l293 53v-1364q0 -73 -32.5 -114.5t-106.5 -63.5q-185 -53 -359 -53q-255 0 -396.5 149t-141.5 418zM371 561q0 -162 65 -249t199 -87q63 0 188 25v606q-130 37 -200 37q-132 0 -192 -84t-60 -248zM1243 1219l84 352 h266l-116 -408q-29 -98 -125 -98q-73 0 -100 43.5t-9 110.5z" />
<glyph unicode="&#x110;" horiz-adv-x="1538" d="M20 678v192h123v471q0 85 52 134t145 49h395q331 0 525 -204t194 -562q0 -238 -91 -410t-254 -260t-380 -88h-389q-93 0 -145 48.5t-52 133.5v496h-123zM496 270h227q184 0 283.5 126.5t99.5 361.5q0 233 -104 366t-291 133h-215v-387h335v-192h-335v-408z" />
<glyph unicode="&#x111;" horiz-adv-x="1230" d="M80 557q0 275 129 425.5t377 150.5q93 0 237 -46v144h-295v192h295v109l293 53v-162h111v-192h-111v-1010q0 -73 -32.5 -114.5t-106.5 -63.5q-185 -53 -359 -53q-255 0 -396.5 149t-141.5 418zM371 561q0 -162 65 -249t199 -87q63 0 188 25v606q-130 37 -200 37 q-132 0 -192 -84t-60 -248z" />
<glyph unicode="&#x112;" horiz-adv-x="1288" d="M119 182v1159q0 85 52 134t144 49h883v-262h-727v-359h637v-254h-637v-387h733v-262h-889q-92 0 -144 48.5t-52 133.5zM319 1626v193h711v-193h-711z" />
<glyph unicode="&#x113;" horiz-adv-x="1200" d="M80 561q0 145 42.5 258t116.5 182t168.5 104.5t204.5 35.5q243 0 380.5 -139t137.5 -412q0 -63 -29.5 -93t-92.5 -30h-639q10 -121 88 -181.5t207 -60.5q138 0 305 49l108 35l39 -221l-108 -35q-204 -65 -365 -65q-261 0 -412 147t-151 426zM248 1286v225h733v-225h-733z M367 666h475q0 115 -59.5 188.5t-178.5 73.5q-105 0 -167 -70t-70 -192z" />
<glyph unicode="&#x114;" horiz-adv-x="1288" d="M119 182v1159q0 85 52 134t144 49h883v-262h-727v-359h637v-254h-637v-387h733v-262h-889q-92 0 -144 48.5t-52 133.5zM297 1874h244q0 -51 37.5 -81t101.5 -30q63 0 101 30t38 81h242q0 -123 -109.5 -195.5t-271.5 -72.5q-164 0 -273.5 72t-109.5 196z" />
<glyph unicode="&#x115;" horiz-adv-x="1200" d="M80 561q0 145 42.5 258t116.5 182t168.5 104.5t204.5 35.5q243 0 380.5 -139t137.5 -412q0 -63 -29.5 -93t-92.5 -30h-639q10 -121 88 -181.5t207 -60.5q138 0 305 49l108 35l39 -221l-108 -35q-204 -65 -365 -65q-261 0 -412 147t-151 426zM213 1563h256 q0 -70 37.5 -110t101.5 -40q65 0 103.5 40t38.5 110h254q0 -149 -113.5 -241.5t-282.5 -92.5t-282 92.5t-113 241.5zM367 666h475q0 115 -59.5 188.5t-178.5 73.5q-105 0 -167 -70t-70 -192z" />
<glyph unicode="&#x116;" horiz-adv-x="1288" d="M119 182v1159q0 85 52 134t144 49h883v-262h-727v-359h637v-254h-637v-387h733v-262h-889q-92 0 -144 48.5t-52 133.5zM535 1749q0 64 43.5 101.5t119.5 37.5t119 -37.5t43 -101.5q0 -66 -43 -104.5t-119 -38.5t-119.5 38.5t-43.5 104.5z" />
<glyph unicode="&#x117;" horiz-adv-x="1200" d="M80 561q0 145 42.5 258t116.5 182t168.5 104.5t204.5 35.5q243 0 380.5 -139t137.5 -412q0 -63 -29.5 -93t-92.5 -30h-639q10 -121 88 -181.5t207 -60.5q138 0 305 49l108 35l39 -221l-108 -35q-204 -65 -365 -65q-261 0 -412 147t-151 426zM367 666h475 q0 115 -59.5 188.5t-178.5 73.5q-105 0 -167 -70t-70 -192zM442 1419q0 73 44.5 115.5t123.5 42.5q78 0 123 -43t45 -115q0 -71 -45 -113t-123 -42q-79 0 -123.5 42t-44.5 113z" />
<glyph unicode="&#x118;" horiz-adv-x="1288" d="M119 182v1159q0 85 52 134t144 49h883v-262h-727v-359h637v-254h-637v-387h733v-262h-160q-90 -55 -90 -127t93 -72q90 0 196 43l35 -141q-126 -53 -252 -53q-111 0 -180.5 43.5t-69.5 126.5q0 114 115 180h-576q-92 0 -144 48.5t-52 133.5z" />
<glyph unicode="&#x119;" horiz-adv-x="1200" d="M80 561q0 145 42.5 258t116.5 182t168.5 104.5t204.5 35.5q243 0 380.5 -139t137.5 -412q0 -63 -29.5 -93t-92.5 -30h-639q10 -121 88 -181.5t207 -60.5q138 0 305 49l108 35l39 -221l-108 -35q-92 -30 -168 -45q-90 -55 -90 -127q0 -71 92 -71q90 0 196 43l35 -142 q-126 -53 -252 -53q-111 0 -180.5 43.5t-69.5 126.5q0 99 82 160h-10q-261 0 -412 147t-151 426zM367 666h475q0 115 -59.5 188.5t-178.5 73.5q-105 0 -167 -70t-70 -192z" />
<glyph unicode="&#x11a;" horiz-adv-x="1288" d="M119 182v1159q0 85 52 134t144 49h883v-262h-727v-359h637v-254h-637v-387h733v-262h-889q-92 0 -144 48.5t-52 133.5zM272 1868h303l105 -99l100 99h301l-245 -211q-58 -51 -156 -51t-158 51z" />
<glyph unicode="&#x11b;" horiz-adv-x="1200" d="M80 561q0 145 42.5 258t116.5 182t168.5 104.5t204.5 35.5q243 0 380.5 -139t137.5 -412q0 -63 -29.5 -93t-92.5 -30h-639q10 -121 88 -181.5t207 -60.5q138 0 305 49l108 35l39 -221l-108 -35q-204 -65 -365 -65q-261 0 -412 147t-151 426zM190 1565h310l110 -140 l107 140h307l-256 -269q-58 -61 -158 -61q-107 0 -159 61zM367 666h475q0 115 -59.5 188.5t-178.5 73.5q-105 0 -167 -70t-70 -192z" />
<glyph unicode="&#x11c;" horiz-adv-x="1521" d="M84 760q0 188 55 336t154 243.5t234 145t298 49.5q185 0 445 -76l127 -37l-49 -284l-129 39q-215 63 -361 63q-204 0 -314 -122t-110 -365q0 -252 111.5 -378t318.5 -126q111 0 221 20v291h-305v246h434q92 0 144.5 -48.5t52.5 -133.5v-385q0 -120 -129 -175 q-187 -77 -455 -77q-166 0 -301.5 48.5t-234 143.5t-153 243t-54.5 339zM418 1612l248 209q58 51 155 51q98 0 158 -51l248 -209h-301l-105 96l-100 -96h-303z" />
<glyph unicode="&#x11d;" horiz-adv-x="1245" d="M80 760q0 179 132 269.5t363 90.5h113q123 0 205 23l266 78l53 -217l-198 -56q3 -2 8 -7t18.5 -22t23.5 -37t18 -53t8 -69q0 -171 -128.5 -257.5t-361.5 -86.5q-25 0 -48 2t-34 4l-10 2q16 -21 16 -62q0 -47 -32 -88h313q193 0 289 -75.5t96 -210.5q0 -171 -146.5 -263 t-435.5 -92q-113 0 -205.5 18t-164 55t-111 99t-39.5 146q0 120 78 213l94 119q37 48 37 94q0 33 -15 56t-51 50q-30 22 -51.5 42.5t-47 54.5t-39 79.5t-13.5 100.5zM193 1253l256 271q65 61 159 61q102 0 160 -61l258 -271h-307l-111 140l-106 -140h-309zM352 -43 q0 -69 68 -99t198 -30q310 0 310 149q0 44 -35.5 69.5t-108.5 25.5h-393q-39 -42 -39 -115zM356 760q0 -166 228 -166q105 0 167 40.5t62 125.5q0 162 -229 162q-228 0 -228 -162z" />
<glyph unicode="&#x11e;" horiz-adv-x="1521" d="M84 760q0 188 55 336t154 243.5t234 145t298 49.5q185 0 445 -76l127 -37l-49 -284l-129 39q-215 63 -361 63q-204 0 -314 -122t-110 -365q0 -252 111.5 -378t318.5 -126q111 0 221 20v291h-305v246h434q92 0 144.5 -48.5t52.5 -133.5v-385q0 -120 -129 -175 q-187 -77 -455 -77q-166 0 -301.5 48.5t-234 143.5t-153 243t-54.5 339zM430 1874h244q0 -51 37.5 -81t101.5 -30q63 0 101 30t38 81h242q0 -123 -109.5 -195.5t-271.5 -72.5q-164 0 -273.5 72t-109.5 196z" />
<glyph unicode="&#x11f;" horiz-adv-x="1245" d="M80 760q0 179 132 269.5t363 90.5h113q123 0 205 23l266 78l53 -217l-198 -56q3 -2 8 -7t18.5 -22t23.5 -37t18 -53t8 -69q0 -171 -128.5 -257.5t-361.5 -86.5q-25 0 -48 2t-34 4l-10 2q16 -21 16 -62q0 -47 -32 -88h313q193 0 289 -75.5t96 -210.5q0 -171 -146.5 -263 t-435.5 -92q-113 0 -205.5 18t-164 55t-111 99t-39.5 146q0 120 78 213l94 119q37 48 37 94q0 33 -15 56t-51 50q-30 22 -51.5 42.5t-47 54.5t-39 79.5t-13.5 100.5zM215 1563h256q0 -70 37.5 -110t101.5 -40q65 0 103.5 40t38.5 110h254q0 -149 -113.5 -241.5t-282.5 -92.5 t-282 92.5t-113 241.5zM352 -43q0 -69 68 -99t198 -30q310 0 310 149q0 44 -35.5 69.5t-108.5 25.5h-393q-39 -42 -39 -115zM356 760q0 -166 228 -166q105 0 167 40.5t62 125.5q0 162 -229 162q-228 0 -228 -162z" />
<glyph unicode="&#x120;" horiz-adv-x="1521" d="M84 760q0 188 55 336t154 243.5t234 145t298 49.5q185 0 445 -76l127 -37l-49 -284l-129 39q-215 63 -361 63q-204 0 -314 -122t-110 -365q0 -252 111.5 -378t318.5 -126q111 0 221 20v291h-305v246h434q92 0 144.5 -48.5t52.5 -133.5v-385q0 -120 -129 -175 q-187 -77 -455 -77q-166 0 -301.5 48.5t-234 143.5t-153 243t-54.5 339zM657 1749q0 63 44 101t120 38t119 -37.5t43 -101.5q0 -66 -43 -104.5t-119 -38.5t-120 38.5t-44 104.5z" />
<glyph unicode="&#x121;" horiz-adv-x="1245" d="M80 760q0 179 132 269.5t363 90.5h113q123 0 205 23l266 78l53 -217l-198 -56q3 -2 8 -7t18.5 -22t23.5 -37t18 -53t8 -69q0 -171 -128.5 -257.5t-361.5 -86.5q-25 0 -48 2t-34 4l-10 2q16 -21 16 -62q0 -47 -32 -88h313q193 0 289 -75.5t96 -210.5q0 -171 -146.5 -263 t-435.5 -92q-113 0 -205.5 18t-164 55t-111 99t-39.5 146q0 120 78 213l94 119q37 48 37 94q0 33 -15 56t-51 50q-30 22 -51.5 42.5t-47 54.5t-39 79.5t-13.5 100.5zM352 -43q0 -69 68 -99t198 -30q310 0 310 149q0 44 -35.5 69.5t-108.5 25.5h-393q-39 -42 -39 -115z M356 760q0 -166 228 -166q105 0 167 40.5t62 125.5q0 162 -229 162q-228 0 -228 -162zM442 1419q0 73 44.5 115.5t123.5 42.5q78 0 123 -43t45 -115q0 -71 -45 -113t-123 -42q-79 0 -123.5 42t-44.5 113z" />
<glyph unicode="&#x122;" horiz-adv-x="1521" d="M84 760q0 188 55 336t154 243.5t234 145t298 49.5q185 0 445 -76l127 -37l-49 -284l-129 39q-215 63 -361 63q-204 0 -314 -122t-110 -365q0 -252 111.5 -378t318.5 -126q111 0 221 20v291h-305v246h434q92 0 144.5 -48.5t52.5 -133.5v-385q0 -120 -129 -175 q-187 -77 -455 -77q-166 0 -301.5 48.5t-234 143.5t-153 243t-54.5 339zM614 -281l50 191h284l-74 -248q-29 -98 -135 -98q-76 0 -109.5 45t-15.5 110z" />
<glyph unicode="&#x123;" horiz-adv-x="1245" d="M80 760q0 179 132 269.5t363 90.5h113q123 0 205 23l266 78l53 -217l-198 -56q3 -2 8 -7t18.5 -22t23.5 -37t18 -53t8 -69q0 -171 -128.5 -257.5t-361.5 -86.5q-25 0 -48 2t-34 4l-10 2q16 -21 16 -62q0 -47 -32 -88h313q193 0 289 -75.5t96 -210.5q0 -171 -146.5 -263 t-435.5 -92q-113 0 -205.5 18t-164 55t-111 99t-39.5 146q0 120 78 213l94 119q37 48 37 94q0 33 -15 56t-51 50q-30 22 -51.5 42.5t-47 54.5t-39 79.5t-13.5 100.5zM352 -43q0 -69 68 -99t198 -30q310 0 310 149q0 44 -35.5 69.5t-108.5 25.5h-393q-39 -42 -39 -115z M356 760q0 -166 228 -166q105 0 167 40.5t62 125.5q0 162 -229 162q-228 0 -228 -162zM436 1239l99 334q27 98 137 98q76 0 107.5 -44t15.5 -111l-66 -277h-293z" />
<glyph unicode="&#x124;" horiz-adv-x="1482" d="M119 0v1524h352v-621h541v621h352v-1524h-352v643h-541v-643h-352zM338 1612l248 209q58 51 155 51q98 0 158 -51l248 -209h-301l-105 96l-100 -96h-303z" />
<glyph unicode="&#x125;" horiz-adv-x="1187" d="M115 0v1532l297 53v-498q144 46 254 46q415 0 415 -404v-729h-293v707q0 174 -176 174q-70 0 -200 -37v-844h-297zM195 1634l247 209q58 51 156 51t158 -51l248 -209h-302l-104 97l-100 -97h-303z" />
<glyph unicode="&#x126;" horiz-adv-x="1482" d="M0 1085v201h119v238h352v-238h541v238h352v-238h119v-201h-119v-1085h-352v643h-541v-643h-352v1085h-119zM471 903h541v182h-541v-182z" />
<glyph unicode="&#x127;" horiz-adv-x="1187" d="M4 1231v192h111v109l297 53v-162h288v-192h-288v-144q144 46 254 46q415 0 415 -404v-729h-293v707q0 174 -176 174q-70 0 -200 -37v-844h-297v1231h-111z" />
<glyph unicode="&#x128;" horiz-adv-x="593" d="M-125 1690q45 103 119 150.5t160 47.5q93 0 161 -43l72 -41q33 -20 78 -20q37 0 65.5 22.5t55.5 77.5l149 -80q-86 -198 -278 -198q-86 0 -162 43l-70 41q-39 22 -80 22q-37 0 -65 -23t-55 -79zM119 0v1524h356v-1524h-356z" />
<glyph unicode="&#x129;" horiz-adv-x="532" d="M-180 1333q47 126 125.5 184t171.5 58q95 0 168 -53l71 -52q42 -30 82 -30q38 0 69.5 29.5t59.5 97.5l154 -94q-45 -124 -125 -184t-172 -60q-93 0 -168 55l-70 51q-43 31 -84 31q-77 0 -129 -127zM121 0v1124h291v-1124h-291z" />
<glyph unicode="&#x12a;" horiz-adv-x="593" d="M-57 1626v193h710v-193h-710zM119 0v1524h356v-1524h-356z" />
<glyph unicode="&#x12b;" horiz-adv-x="532" d="M-98 1286v225h733v-225h-733zM121 0v1124h291v-1124h-291z" />
<glyph unicode="&#x12c;" horiz-adv-x="593" d="M-80 1874h244q0 -51 37.5 -81t101.5 -30q63 0 101 30t38 81h242q0 -123 -109.5 -195.5t-271.5 -72.5q-164 0 -273.5 72t-109.5 196zM119 0v1524h356v-1524h-356z" />
<glyph unicode="&#x12d;" horiz-adv-x="532" d="M-127 1563h256q0 -70 37.5 -110t101.5 -40q65 0 103.5 40t38.5 110h254q0 -149 -113.5 -241.5t-282.5 -92.5t-282 92.5t-113 241.5zM121 0v1124h291v-1124h-291z" />
<glyph unicode="&#x12e;" horiz-adv-x="593" d="M119 0v1524h356v-1524q-90 -55 -90 -127t92 -72q91 0 197 43l35 -141q-126 -53 -252 -53q-111 0 -180.5 43.5t-69.5 126.5q0 114 115 180h-203z" />
<glyph unicode="&#x12f;" horiz-adv-x="532" d="M98 1419q0 72 45 115t123 43q79 0 123.5 -42.5t44.5 -115.5q0 -71 -44.5 -113t-123.5 -42q-78 0 -123 42t-45 113zM121 0v1124h291v-1120l2 -4q-90 -55 -90 -127t92 -72q90 0 196 43l35 -141q-126 -53 -252 -53q-111 0 -180.5 43.5t-69.5 126.5q0 114 115 180h-139z" />
<glyph unicode="&#x130;" horiz-adv-x="593" d="M119 0v1524h356v-1524h-356zM137 1749q0 63 44 101t120 38t119 -37.5t43 -101.5q0 -66 -43 -104.5t-119 -38.5t-120 38.5t-44 104.5z" />
<glyph unicode="&#x131;" horiz-adv-x="532" d="M121 0v1124h291v-1124h-291z" />
<glyph unicode="&#x134;" horiz-adv-x="923" d="M31 51l41 266q153 -41 219 -41q90 0 129 45t39 144v1059h352v-1088q0 -214 -121 -327t-336 -113q-133 0 -323 55zM227 1612l248 209q58 51 156 51q97 0 157 -51l248 -209h-301l-104 96l-101 -96h-303z" />
<glyph unicode="&#x135;" horiz-adv-x="544" d="M-141 1237l256 270q66 62 159 62q101 0 160 -62l258 -270h-307l-111 139l-106 -139h-309zM-16 -154q81 1 115 40.5t34 123.5v1114h291v-1120q0 -185 -111 -280t-329 -95v217z" />
<glyph unicode="&#x136;" horiz-adv-x="1437" d="M119 0v1524h346v-680l528 680h400l-426 -531l426 -993h-375l-307 713l-131 -158q-41 -50 -61 -78.5t-37 -78t-17 -107.5v-291h-346zM532 -281l50 191h284l-73 -248q-29 -98 -136 -98q-76 0 -109.5 45t-15.5 110z" />
<glyph unicode="&#x137;" horiz-adv-x="1128" d="M115 0v1532l291 53v-928l393 467h354l-328 -379l338 -745h-336l-231 502l-86 -94q-54 -59 -79 -108.5t-25 -129.5v-170h-291zM412 -281l49 191h284l-73 -248q-29 -98 -135 -98q-76 0 -109.5 45t-15.5 110z" />
<glyph unicode="&#x138;" horiz-adv-x="1214" d="M115 0v1124h291v-520q44 9 84.5 44t74 82t70.5 102t83.5 108t102.5 96.5t138.5 70t181.5 26.5v-269q-64 0 -120 -26.5t-93 -61.5t-82 -92l315 -684h-334l-211 453q-104 -111 -210 -131v-322h-291z" />
<glyph unicode="&#x139;" horiz-adv-x="1228" d="M119 182v1342h356v-1239h678v-285h-838q-92 0 -144 48.5t-52 133.5zM391 1688q0 48 43 77l144 103h372l-342 -223q-59 -39 -116 -39q-49 0 -75 24.5t-26 57.5z" />
<glyph unicode="&#x13a;" horiz-adv-x="530" d="M59 1694q0 49 43 78l144 102h372l-342 -223q-59 -39 -116 -39q-49 0 -75 24.5t-26 57.5zM115 0v1532l301 53v-1585h-301z" />
<glyph unicode="&#x13b;" horiz-adv-x="1228" d="M119 182v1342h356v-1239h678v-285h-838q-92 0 -144 48.5t-52 133.5zM449 -281l49 191h284l-73 -248q-29 -98 -136 -98q-76 0 -109 45t-15 110z" />
<glyph unicode="&#x13c;" horiz-adv-x="530" d="M63 -281l50 191h284l-73 -248q-29 -98 -136 -98q-76 0 -109.5 45t-15.5 110zM115 0v1532l301 53v-1585h-301z" />
<glyph unicode="&#x13d;" horiz-adv-x="1228" d="M119 182v1342h356v-1239h678v-285h-838q-92 0 -144 48.5t-52 133.5zM643 1196l90 367h273l-119 -418q-23 -90 -127 -90q-72 0 -101.5 40.5t-15.5 100.5z" />
<glyph unicode="&#x13e;" horiz-adv-x="870" d="M115 0v1532l301 53v-1585h-301zM541 1219l86 352h264l-117 -408q-29 -98 -123 -98q-74 0 -100 43t-10 111z" />
<glyph unicode="&#x13f;" horiz-adv-x="1228" d="M119 182v1342h356v-1239h678v-285h-838q-92 0 -144 48.5t-52 133.5zM682 745q0 74 44.5 118t123.5 44q78 0 123 -44t45 -118q0 -75 -45 -119t-123 -44q-79 0 -123.5 43.5t-44.5 119.5z" />
<glyph unicode="&#x140;" horiz-adv-x="858" d="M115 0v1532l301 53v-1585h-301zM524 745q0 74 44.5 118t123.5 44q78 0 123 -44t45 -118q0 -75 -45 -119t-123 -44q-79 0 -123.5 43.5t-44.5 119.5z" />
<glyph unicode="&#x141;" horiz-adv-x="1251" d="M20 635v215l121 47v627h357v-488l323 129v-217l-323 -127v-536h678v-285h-838q-92 0 -144.5 48.5t-52.5 133.5v500z" />
<glyph unicode="&#x142;" horiz-adv-x="587" d="M25 653v226l118 63v590l303 55v-485l121 65v-227l-121 -63v-877h-303v715z" />
<glyph unicode="&#x143;" horiz-adv-x="1509" d="M119 0v1321q0 105 65 161t183 56q106 0 161.5 -45t98.5 -139l493 -875v1045h307v-1319q0 -105 -65.5 -161t-183.5 -56q-106 0 -161.5 45t-96.5 139l-494 875v-1047h-307zM559 1688q0 48 43 77l143 103h373l-342 -223q-59 -39 -117 -39q-49 0 -74.5 24.5t-25.5 57.5z" />
<glyph unicode="&#x144;" horiz-adv-x="1200" d="M115 0v903q0 74 35.5 116.5t109.5 63.5q200 54 365 54q237 0 349.5 -108.5t112.5 -295.5v-733h-294v707q0 178 -181 178q-81 0 -200 -31v-854h-297zM348 1333q0 49 41 90l152 140h377l-345 -277q-57 -47 -120 -47q-49 0 -77 28.5t-28 65.5z" />
<glyph unicode="&#x145;" horiz-adv-x="1509" d="M119 0v1321q0 105 65 161t183 56q106 0 161.5 -45t98.5 -139l493 -875v1045h307v-1319q0 -105 -65.5 -161t-183.5 -56q-106 0 -161.5 45t-96.5 139l-494 875v-1047h-307zM582 -281l49 191h284l-73 -248q-29 -98 -135 -98q-76 0 -109.5 45t-15.5 110z" />
<glyph unicode="&#x146;" horiz-adv-x="1200" d="M115 0v903q0 74 35.5 116.5t109.5 63.5q200 54 365 54q237 0 349.5 -108.5t112.5 -295.5v-733h-294v707q0 178 -181 178q-81 0 -200 -31v-854h-297zM420 -281l49 191h285l-74 -248q-29 -98 -135 -98q-76 0 -109.5 45t-15.5 110z" />
<glyph unicode="&#x147;" horiz-adv-x="1509" d="M119 0v1321q0 105 65 161t183 56q106 0 161.5 -45t98.5 -139l493 -875v1045h307v-1319q0 -105 -65.5 -161t-183.5 -56q-106 0 -161.5 45t-96.5 139l-494 875v-1047h-307zM356 1868h303l105 -99l100 99h301l-245 -211q-58 -51 -156 -51t-158 51z" />
<glyph unicode="&#x148;" horiz-adv-x="1200" d="M115 0v903q0 74 35.5 116.5t109.5 63.5q200 54 365 54q237 0 349.5 -108.5t112.5 -295.5v-733h-294v707q0 178 -181 178q-81 0 -200 -31v-854h-297zM176 1565h309l111 -140l106 140h308l-256 -269q-58 -61 -158 -61q-108 0 -160 61z" />
<glyph unicode="&#x14a;" horiz-adv-x="1546" d="M119 0v1321q0 105 65 161t183 56q106 0 161.5 -38t98.5 -116l493 -784v924h307v-1528q0 -371 -458 -371v205q82 3 116.5 39t34.5 115v16l-694 1071v-1071h-307z" />
<glyph unicode="&#x14b;" horiz-adv-x="1200" d="M115 0v903q0 74 35.5 116.5t109.5 63.5q200 54 365 54q237 0 349.5 -108.5t112.5 -295.5v-729q0 -184 -113 -279.5t-331 -95.5v217q83 1 116.5 40.5t33.5 123.5v697q0 178 -181 178q-81 0 -200 -31v-854h-297z" />
<glyph unicode="&#x14c;" horiz-adv-x="1652" d="M84 760q0 364 204 569t543 205q337 0 537.5 -204t200.5 -570q0 -185 -54.5 -332t-153 -243.5t-236 -147.5t-304.5 -51q-337 0 -537 204t-200 570zM438 760q0 -249 103.5 -384.5t289.5 -135.5q182 0 281.5 134.5t99.5 385.5q0 247 -103 381.5t-288 134.5 q-183 0 -283 -134.5t-100 -381.5zM475 1626v193h711v-193h-711z" />
<glyph unicode="&#x14d;" horiz-adv-x="1265" d="M80 563q0 272 149.5 423t407.5 151q257 0 403 -150.5t146 -423.5q0 -274 -149.5 -424.5t-407.5 -150.5q-257 0 -403 151.5t-146 423.5zM270 1286v225h734v-225h-734zM381 563q0 -177 65 -267.5t191 -90.5q124 0 187 91t63 267q0 174 -66 265.5t-192 91.5 q-123 0 -185.5 -91.5t-62.5 -265.5z" />
<glyph unicode="&#x14e;" horiz-adv-x="1652" d="M84 760q0 364 204 569t543 205q337 0 537.5 -204t200.5 -570q0 -185 -54.5 -332t-153 -243.5t-236 -147.5t-304.5 -51q-337 0 -537 204t-200 570zM438 760q0 -249 103.5 -384.5t289.5 -135.5q182 0 281.5 134.5t99.5 385.5q0 247 -103 381.5t-288 134.5 q-183 0 -283 -134.5t-100 -381.5zM453 1874h243q0 -51 38 -81t102 -30q63 0 101 30t38 81h242q0 -123 -109.5 -195.5t-271.5 -72.5q-164 0 -273.5 72t-109.5 196z" />
<glyph unicode="&#x14f;" horiz-adv-x="1265" d="M80 563q0 272 149.5 423t407.5 151q257 0 403 -150.5t146 -423.5q0 -274 -149.5 -424.5t-407.5 -150.5q-257 0 -403 151.5t-146 423.5zM238 1563h256q0 -70 37.5 -110t101.5 -40q65 0 103 40t38 110h254q0 -149 -113 -241.5t-282 -92.5t-282 92.5t-113 241.5zM381 563 q0 -177 65 -267.5t191 -90.5q124 0 187 91t63 267q0 174 -66 265.5t-192 91.5q-123 0 -185.5 -91.5t-62.5 -265.5z" />
<glyph unicode="&#x150;" horiz-adv-x="1652" d="M84 760q0 364 204 569t543 205q337 0 537.5 -204t200.5 -570q0 -185 -54.5 -332t-153 -243.5t-236 -147.5t-304.5 -51q-337 0 -537 204t-200 570zM438 760q0 -249 103.5 -384.5t289.5 -135.5q182 0 281.5 134.5t99.5 385.5q0 247 -103 381.5t-288 134.5 q-183 0 -283 -134.5t-100 -381.5zM489 1683q0 41 31 66l146 119h303l-269 -221q-47 -41 -116 -41q-44 0 -69.5 22.5t-25.5 54.5zM901 1681q0 39 31 66l143 121h309l-274 -223q-44 -41 -115 -41q-45 0 -69.5 22t-24.5 55z" />
<glyph unicode="&#x151;" horiz-adv-x="1265" d="M80 563q0 272 149.5 423t407.5 151q257 0 403 -150.5t146 -423.5q0 -274 -149.5 -424.5t-407.5 -150.5q-257 0 -403 151.5t-146 423.5zM309 1329q0 44 31 80l149 154h314l-275 -277q-51 -51 -120 -51q-47 0 -73 27.5t-26 66.5zM381 563q0 -177 65 -267.5t191 -90.5 q124 0 187 91t63 267q0 174 -66 265.5t-192 91.5q-123 0 -185.5 -91.5t-62.5 -265.5zM731 1323q0 44 33 80l151 160h316l-281 -283q-48 -51 -119 -51q-48 0 -74 27t-26 67z" />
<glyph unicode="&#x152;" horiz-adv-x="2213" d="M84 758q0 358 194.5 562t526.5 204h1319v-262h-727v-359h637v-254h-637v-387h733v-262h-1321q-217 0 -380 88t-254 260t-91 410zM432 758q0 -235 100.5 -361.5t282.5 -126.5h229v987h-217q-187 0 -291 -133t-104 -366z" />
<glyph unicode="&#x153;" horiz-adv-x="2007" d="M80 563q0 272 149.5 423t407.5 151q268 0 399 -172q131 176 385 176q242 0 379 -139t137 -412q0 -64 -29 -93.5t-93 -29.5h-639q10 -121 89 -181.5t208 -60.5q136 0 303 49l110 35l37 -221l-108 -35q-204 -65 -365 -65q-282 0 -416 174q-133 -174 -405 -174 q-257 0 -403 151.5t-146 423.5zM381 563q0 -177 65 -267.5t191 -90.5q124 0 187 91t63 267q0 174 -66 265.5t-192 91.5q-123 0 -185.5 -91.5t-62.5 -265.5zM1176 666h475q0 115 -59.5 188.5t-180.5 73.5q-104 0 -165.5 -70t-69.5 -192z" />
<glyph unicode="&#x154;" horiz-adv-x="1425" d="M119 0v1341q0 86 51 134.5t143 48.5h529q226 0 352.5 -115.5t126.5 -327.5q0 -168 -133 -323l-84 -105l289 -653h-373l-232 555h-317v-555h-352zM471 807h379l61 84q72 103 72 180q0 94 -49 147.5t-150 53.5h-313v-465zM485 1688q0 48 43 77l144 103h372l-342 -223 q-59 -39 -116 -39q-49 0 -75 24.5t-26 57.5z" />
<glyph unicode="&#x155;" horiz-adv-x="790" d="M115 0v899q0 75 35.5 118t109.5 64q107 30 217.5 41t282.5 11v-242q-226 0 -354 -37v-854h-291zM264 1333q0 49 41 90l152 140h377l-345 -277q-57 -47 -120 -47q-49 0 -77 28.5t-28 65.5z" />
<glyph unicode="&#x156;" horiz-adv-x="1425" d="M119 0v1341q0 86 51 134.5t143 48.5h529q226 0 352.5 -115.5t126.5 -327.5q0 -168 -133 -323l-84 -105l289 -653h-373l-232 555h-317v-555h-352zM471 807h379l61 84q72 103 72 180q0 94 -49 147.5t-150 53.5h-313v-465zM537 -281l49 191h284l-73 -248q-29 -98 -135 -98 q-76 0 -109.5 45t-15.5 110z" />
<glyph unicode="&#x157;" horiz-adv-x="790" d="M72 -281l49 191h285l-74 -248q-29 -98 -135 -98q-76 0 -109.5 45t-15.5 110zM115 0v899q0 75 35.5 118t109.5 64q107 30 217.5 41t282.5 11v-242q-226 0 -354 -37v-854h-291z" />
<glyph unicode="&#x158;" horiz-adv-x="1425" d="M119 0v1341q0 86 51 134.5t143 48.5h529q226 0 352.5 -115.5t126.5 -327.5q0 -168 -133 -323l-84 -105l289 -653h-373l-232 555h-317v-555h-352zM299 1868h303l105 -99l100 99h301l-246 -211q-58 -51 -155 -51q-98 0 -158 51zM471 807h379l61 84q72 103 72 180 q0 94 -49 147.5t-150 53.5h-313v-465z" />
<glyph unicode="&#x159;" horiz-adv-x="790" d="M51 1565h309l111 -140l107 140h307l-256 -269q-58 -61 -158 -61q-108 0 -160 61zM115 0v899q0 75 35.5 118t109.5 64q107 30 217.5 41t282.5 11v-242q-226 0 -354 -37v-854h-291z" />
<glyph unicode="&#x15a;" horiz-adv-x="1341" d="M88 104l57 291l131 -45q250 -88 435 -88q92 0 151.5 42t59.5 128q0 66 -39.5 105.5t-126.5 58.5l-262 55q-198 41 -299 143t-101 279q0 153 72.5 259t192.5 155t276 49q230 0 489 -82l131 -41l-59 -297l-131 49q-243 90 -426 90q-96 0 -153.5 -42.5t-57.5 -127.5 q0 -66 39.5 -105t126.5 -58l262 -56q198 -40 298.5 -140.5t100.5 -279.5q0 -114 -42 -204t-116 -146t-171 -85t-211 -29q-253 0 -494 79zM455 1688q0 48 43 77l143 103h373l-342 -223q-59 -39 -117 -39q-49 0 -74.5 24.5t-25.5 57.5z" />
<glyph unicode="&#x15b;" horiz-adv-x="1126" d="M88 82l43 233l111 -36q220 -68 350 -68q71 0 115.5 28t44.5 89q0 91 -134 108l-204 33q-322 51 -322 315q0 115 59 196.5t156 119t223 37.5q199 0 402 -62l106 -33l-43 -233l-108 35q-214 69 -352 69q-70 0 -115 -28.5t-45 -87.5q0 -91 135 -111l203 -33 q321 -51 321 -311q0 -172 -121.5 -263t-316.5 -91q-201 0 -401 61zM383 1333q0 49 41 90l151 140h377l-344 -277q-57 -47 -121 -47q-49 0 -76.5 28.5t-27.5 65.5z" />
<glyph unicode="&#x15c;" horiz-adv-x="1341" d="M88 104l57 291l131 -45q250 -88 435 -88q92 0 151.5 42t59.5 128q0 66 -39.5 105.5t-126.5 58.5l-262 55q-198 41 -299 143t-101 279q0 153 72.5 259t192.5 155t276 49q230 0 489 -82l131 -41l-59 -297l-131 49q-243 90 -426 90q-96 0 -153.5 -42.5t-57.5 -127.5 q0 -66 39.5 -105t126.5 -58l262 -56q198 -40 298.5 -140.5t100.5 -279.5q0 -114 -42 -204t-116 -146t-171 -85t-211 -29q-253 0 -494 79zM276 1612l248 209q58 51 156 51t158 -51l247 -209h-301l-104 96l-100 -96h-304z" />
<glyph unicode="&#x15d;" horiz-adv-x="1126" d="M88 82l43 233l111 -36q220 -68 350 -68q71 0 115.5 28t44.5 89q0 91 -134 108l-204 33q-322 51 -322 315q0 115 59 196.5t156 119t223 37.5q199 0 402 -62l106 -33l-43 -233l-108 35q-214 69 -352 69q-70 0 -115 -28.5t-45 -87.5q0 -91 135 -111l203 -33 q321 -51 321 -311q0 -172 -121.5 -263t-316.5 -91q-201 0 -401 61zM147 1237l256 270q66 62 160 62q101 0 160 -62l258 -270h-307l-111 139l-106 -139h-310z" />
<glyph unicode="&#x15e;" horiz-adv-x="1341" d="M88 104l57 291l131 -45q250 -88 435 -88q92 0 151.5 42t59.5 128q0 66 -39.5 105.5t-126.5 58.5l-262 55q-198 41 -299 143t-101 279q0 153 72.5 259t192.5 155t276 49q230 0 489 -82l131 -41l-59 -297l-131 49q-243 90 -426 90q-96 0 -153.5 -42.5t-57.5 -127.5 q0 -66 39.5 -105t126.5 -58l262 -56q198 -40 298.5 -140.5t100.5 -279.5q0 -113 -41.5 -202.5t-114.5 -145.5t-168 -85t-208 -31l-33 -70q81 0 131.5 -36.5t50.5 -108.5q0 -81 -58.5 -128t-162.5 -47q-96 0 -200 48l36 116q85 -39 164 -39q68 0 68 45q0 33 -41 44t-129 8 l-19 26l76 146q-193 12 -385 75z" />
<glyph unicode="&#x15f;" horiz-adv-x="1126" d="M88 82l43 233l111 -36q220 -68 350 -68q71 0 115.5 28t44.5 89q0 91 -134 108l-204 33q-322 51 -322 315q0 115 59 196.5t156 119t223 37.5q199 0 402 -62l106 -33l-43 -233l-108 35q-214 69 -352 69q-70 0 -115 -28.5t-45 -87.5q0 -91 135 -111l203 -33 q321 -51 321 -311q0 -112 -55.5 -192t-147.5 -119t-213 -43l-36 -76q81 0 131.5 -36.5t50.5 -108.5q0 -81 -58.5 -128t-162.5 -47q-97 0 -201 48l37 116q85 -39 164 -39q67 0 67 45q0 33 -41 44t-129 8l-18 26l78 152q-145 9 -305 57z" />
<glyph unicode="&#x160;" horiz-adv-x="1337" d="M88 104l57 291l131 -45q250 -88 435 -88q92 0 151.5 42t59.5 128q0 66 -39.5 105.5t-126.5 58.5l-262 55q-198 41 -299 143t-101 279q0 153 72.5 259t192.5 155t276 49q230 0 489 -82l131 -41l-59 -297l-131 49q-243 90 -426 90q-96 0 -153.5 -42.5t-57.5 -127.5 q0 -66 39.5 -105t126.5 -58l262 -56q198 -40 298.5 -140.5t100.5 -279.5q0 -114 -42 -204t-116 -146t-171 -85t-211 -29q-253 0 -494 79zM287 1868h303l104 -99l101 99h301l-246 -211q-58 -51 -156 -51q-97 0 -157 51z" />
<glyph unicode="&#x161;" horiz-adv-x="1126" d="M88 82l43 233l111 -36q220 -68 350 -68q71 0 115.5 28t44.5 89q0 91 -134 108l-204 33q-322 51 -322 315q0 115 59 196.5t156 119t223 37.5q199 0 402 -62l106 -33l-43 -233l-108 35q-214 69 -352 69q-70 0 -115 -28.5t-45 -87.5q0 -91 135 -111l203 -33 q321 -51 321 -311q0 -172 -121.5 -263t-316.5 -91q-201 0 -401 61zM170 1565h309l111 -140l106 140h308l-256 -269q-58 -61 -158 -61q-108 0 -160 61z" />
<glyph unicode="&#x162;" horiz-adv-x="1345" d="M63 1253v271h1221v-271h-432v-1253h-354v1253h-435zM479 -281l49 191h285l-74 -248q-29 -98 -135 -98q-76 0 -109.5 45t-15.5 110z" />
<glyph unicode="&#x163;" horiz-adv-x="899" d="M29 893v223h157v238l289 53v-291h338v-223h-338v-506q0 -88 34.5 -127t115.5 -39q59 0 188 33l35 -223q-169 -43 -277 -43q-186 0 -285.5 95.5t-99.5 278.5v531h-157zM287 -281l49 191h285l-74 -248q-29 -98 -135 -98q-76 0 -109.5 45t-15.5 110z" />
<glyph unicode="&#x164;" horiz-adv-x="1345" d="M63 1253v271h1221v-271h-432v-1253h-354v1253h-435zM272 1868h303l105 -99l100 99h301l-245 -211q-58 -51 -156 -51t-158 51z" />
<glyph unicode="&#x165;" horiz-adv-x="1089" d="M29 893v223h157v238l289 53v-291h338v-223h-338v-506q0 -88 34.5 -127t115.5 -39q59 0 188 33l35 -223q-169 -43 -277 -43q-186 0 -285.5 95.5t-99.5 278.5v531h-157zM571 1350l64 221h264l-94 -277q-29 -98 -125 -98q-73 0 -99 43t-10 111z" />
<glyph unicode="&#x166;" horiz-adv-x="1345" d="M61 1253v271h1221v-271h-432v-379h301v-215h-301v-659h-354v659h-287v215h287v379h-435z" />
<glyph unicode="&#x167;" horiz-adv-x="899" d="M29 516v223h157v154h-157v223h157v238l289 53v-291h338v-223h-338v-154h338v-223h-338v-129q0 -88 34.5 -127t115.5 -39q59 0 188 33l35 -223q-169 -43 -277 -43q-186 0 -285.5 95.5t-99.5 278.5v154h-157z" />
<glyph unicode="&#x168;" horiz-adv-x="1495" d="M109 559v965h354v-963q0 -146 72 -220.5t213 -74.5q284 0 284 295v963h354v-965q0 -278 -165.5 -432t-475.5 -154q-308 0 -472 154t-164 432zM326 1690q45 103 118.5 150.5t159.5 47.5q94 0 162 -43l72 -41q33 -20 77 -20q37 0 65.5 22.5t55.5 77.5l150 -80 q-45 -103 -118 -150.5t-161 -47.5q-86 0 -162 43l-69 41q-39 22 -80 22q-37 0 -65.5 -23t-55.5 -79z" />
<glyph unicode="&#x169;" horiz-adv-x="1200" d="M115 391v733h293v-706q0 -84 41.5 -131t140.5 -47q85 0 198 32v852h299v-903q0 -73 -36.5 -116t-110.5 -62q-187 -53 -365 -53q-237 0 -348.5 107t-111.5 294zM152 1333q47 126 125.5 184t171.5 58q94 0 167 -53l72 -52q42 -30 82 -30q38 0 69.5 29.5t59.5 97.5l154 -94 q-45 -124 -125 -184t-172 -60q-93 0 -168 55l-70 51q-43 31 -84 31q-77 0 -129 -127z" />
<glyph unicode="&#x16a;" horiz-adv-x="1495" d="M109 559v965h354v-963q0 -146 72 -220.5t213 -74.5q284 0 284 295v963h354v-965q0 -278 -165.5 -432t-475.5 -154q-308 0 -472 154t-164 432zM395 1626v193h711v-193h-711z" />
<glyph unicode="&#x16b;" horiz-adv-x="1200" d="M115 391v733h293v-706q0 -84 41.5 -131t140.5 -47q85 0 198 32v852h299v-903q0 -73 -36.5 -116t-110.5 -62q-187 -53 -365 -53q-237 0 -348.5 107t-111.5 294zM236 1286v225h733v-225h-733z" />
<glyph unicode="&#x16c;" horiz-adv-x="1495" d="M109 559v965h354v-963q0 -146 72 -220.5t213 -74.5q284 0 284 295v963h354v-965q0 -278 -165.5 -432t-475.5 -154q-308 0 -472 154t-164 432zM367 1874h243q0 -51 38 -81t102 -30q63 0 101 30t38 81h241q0 -123 -109.5 -195.5t-270.5 -72.5q-164 0 -273.5 72t-109.5 196z " />
<glyph unicode="&#x16d;" horiz-adv-x="1200" d="M115 391v733h293v-706q0 -84 41.5 -131t140.5 -47q85 0 198 32v852h299v-903q0 -73 -36.5 -116t-110.5 -62q-187 -53 -365 -53q-237 0 -348.5 107t-111.5 294zM205 1563h256q0 -70 37.5 -110t101.5 -40q65 0 103 40t38 110h254q0 -149 -113 -241.5t-282 -92.5t-282 92.5 t-113 241.5z" />
<glyph unicode="&#x16e;" horiz-adv-x="1495" d="M109 559v965h354v-963q0 -146 72 -220.5t213 -74.5q284 0 284 295v963h354v-965q0 -278 -165.5 -432t-475.5 -154q-308 0 -472 154t-164 432zM502 1808q0 91 69 147t177 56t177.5 -56t69.5 -147t-70 -148.5t-177 -57.5t-176.5 57.5t-69.5 148.5zM647 1808q0 -39 28 -63.5 t73 -24.5t73.5 24.5t28.5 63.5q0 36 -28.5 60t-73.5 24q-44 0 -72.5 -24t-28.5 -60z" />
<glyph unicode="&#x16f;" horiz-adv-x="1200" d="M115 391v733h293v-706q0 -84 41.5 -131t140.5 -47q85 0 198 32v852h299v-903q0 -73 -36.5 -116t-110.5 -62q-187 -53 -365 -53q-237 0 -348.5 107t-111.5 294zM336 1448q0 110 74.5 178t187.5 68t188.5 -68t75.5 -178q0 -107 -77 -177.5t-187 -70.5t-186 70.5t-76 177.5z M489 1448q0 -46 30 -76.5t79 -30.5t80 30.5t31 76.5q0 44 -30.5 75t-80.5 31q-49 0 -79 -31t-30 -75z" />
<glyph unicode="&#x170;" horiz-adv-x="1495" d="M109 559v965h354v-963q0 -146 72 -220.5t213 -74.5q284 0 284 295v963h354v-965q0 -278 -165.5 -432t-475.5 -154q-308 0 -472 154t-164 432zM414 1683q0 42 30 66l146 119h303l-268 -221q-47 -41 -117 -41q-44 0 -69 22.5t-25 54.5zM825 1681q0 39 31 66l143 121h310 l-275 -223q-44 -41 -114 -41q-45 0 -70 22t-25 55z" />
<glyph unicode="&#x171;" horiz-adv-x="1200" d="M115 391v733h293v-706q0 -84 41.5 -131t140.5 -47q85 0 198 32v852h299v-903q0 -73 -36.5 -116t-110.5 -62q-187 -53 -365 -53q-237 0 -348.5 107t-111.5 294zM258 1329q0 44 31 80l149 154h314l-275 -277q-51 -51 -121 -51q-47 0 -72.5 27.5t-25.5 66.5zM680 1323 q0 44 33 80l151 160h316l-281 -283q-48 -51 -119 -51q-48 0 -74 27t-26 67z" />
<glyph unicode="&#x172;" horiz-adv-x="1495" d="M109 559v965h354v-963q0 -146 72 -220.5t213 -74.5q284 0 284 295v963h354v-965q0 -192 -80 -326t-235 -200q-78 -52 -78 -121q0 -72 92 -72q91 0 197 43l35 -141q-126 -53 -252 -53q-111 0 -180.5 43.5t-69.5 126.5q0 68 43 121q-65 -7 -113 -7q-308 0 -472 154 t-164 432z" />
<glyph unicode="&#x173;" horiz-adv-x="1200" d="M115 391v733h293v-706q0 -84 41.5 -131t140.5 -47q85 0 198 32v852h299v-903q0 -73 -36.5 -116t-110.5 -62q-66 -20 -90 -25q-84 -52 -84 -122q0 -72 92 -72q91 0 197 43l35 -141q-128 -54 -252 -54q-111 0 -180.5 43.5t-69.5 126.5q0 91 69 150q-29 -2 -82 -2 q-237 0 -348.5 107t-111.5 294z" />
<glyph unicode="&#x174;" horiz-adv-x="1982" d="M29 1524h338l172 -1141l272 1020q13 59 62 90t124 31q73 0 122.5 -31t64.5 -90l264 -1022l174 1143h332l-260 -1372q-17 -82 -75.5 -126t-154.5 -44q-194 0 -237 157l-236 887l-243 -887q-44 -157 -238 -157q-95 0 -152.5 44.5t-72.5 125.5zM594 1612l248 209 q58 51 155 51q98 0 158 -51l248 -209h-301l-105 96l-100 -96h-303z" />
<glyph unicode="&#x175;" horiz-adv-x="1681" d="M43 1124h305l129 -798l207 702q13 52 55.5 78.5t106.5 26.5q62 0 104.5 -27.5t55.5 -77.5l204 -704l131 800h297l-215 -995q-32 -152 -202 -152t-211 140l-170 563l-178 -565q-40 -138 -209 -138q-85 0 -137.5 39.5t-67.5 112.5zM430 1237l256 270q66 62 160 62 q101 0 160 -62l258 -270h-308l-110 139l-107 -139h-309z" />
<glyph unicode="&#x176;" horiz-adv-x="1470" d="M14 1524h385l346 -594l330 594h381l-541 -893v-631h-354v627zM332 1612l248 209q58 51 155 51q98 0 158 -51l248 -209h-301l-105 96l-100 -96h-303z" />
<glyph unicode="&#x177;" horiz-adv-x="1173" d="M33 1124h327l256 -782l222 782h309l-406 -1220q-94 -279 -383 -279q-108 0 -266 47l37 219q137 -36 197 -36q111 0 137 104l10 39zM180 1247l256 271q65 61 160 61q102 0 160 -61l258 -271h-307l-111 139l-107 -139h-309z" />
<glyph unicode="&#x178;" horiz-adv-x="1470" d="M14 1524h385l346 -594l330 594h381l-541 -893v-631h-354v627zM383 1747q0 63 41.5 101t112.5 38q70 0 110.5 -38t40.5 -101q0 -65 -40.5 -103t-110.5 -38q-72 0 -113 38t-41 103zM799 1747q0 64 41 101.5t112 37.5t111.5 -37.5t40.5 -101.5q0 -65 -40.5 -103t-111.5 -38 q-72 0 -112.5 38t-40.5 103z" />
<glyph unicode="&#x179;" horiz-adv-x="1372" d="M78 168q0 74 57 147l717 947h-735v262h999q83 0 124.5 -45.5t41.5 -122.5t-55 -148l-713 -946h764v-262h-1034q-82 0 -124 45.5t-42 122.5zM467 1688q0 48 43 77l143 103h373l-342 -223q-59 -39 -117 -39q-49 0 -74.5 24.5t-25.5 57.5z" />
<glyph unicode="&#x17a;" horiz-adv-x="1130" d="M80 150q0 76 51 133l545 622h-574v219h807q71 0 108.5 -40t37.5 -107q0 -72 -51 -133l-543 -623h590v-221h-826q-71 0 -108 40.5t-37 109.5zM354 1333q0 49 41 90l152 140h377l-344 -277q-57 -47 -121 -47q-49 0 -77 28.5t-28 65.5z" />
<glyph unicode="&#x17b;" horiz-adv-x="1372" d="M78 168q0 74 57 147l717 947h-735v262h999q83 0 124.5 -45.5t41.5 -122.5t-55 -148l-713 -946h764v-262h-1034q-82 0 -124 45.5t-42 122.5zM541 1749q0 63 44 101t120 38t118.5 -37.5t42.5 -101.5q0 -66 -42.5 -104.5t-118.5 -38.5t-120 38.5t-44 104.5z" />
<glyph unicode="&#x17c;" horiz-adv-x="1130" d="M80 150q0 76 51 133l545 622h-574v219h807q71 0 108.5 -40t37.5 -107q0 -72 -51 -133l-543 -623h590v-221h-826q-71 0 -108 40.5t-37 109.5zM406 1419q0 73 44 115.5t123 42.5q78 0 123 -43t45 -115q0 -71 -45 -113t-123 -42q-79 0 -123 42t-44 113z" />
<glyph unicode="&#x17d;" horiz-adv-x="1372" d="M78 168q0 74 57 147l717 947h-735v262h999q83 0 124.5 -45.5t41.5 -122.5t-55 -148l-713 -946h764v-262h-1034q-82 0 -124 45.5t-42 122.5zM285 1868h303l104 -99l101 99h301l-246 -211q-58 -51 -156 -51q-97 0 -157 51z" />
<glyph unicode="&#x17e;" horiz-adv-x="1130" d="M80 150q0 76 51 133l545 622h-574v219h807q71 0 108.5 -40t37.5 -107q0 -72 -51 -133l-543 -623h590v-221h-826q-71 0 -108 40.5t-37 109.5zM168 1565h309l111 -140l106 140h307l-256 -269q-58 -61 -157 -61q-108 0 -160 61z" />
<glyph unicode="&#x192;" d="M231 893v223h158v80q0 182 101.5 276.5t287.5 94.5q115 0 279 -45l-35 -222q-129 33 -195 33q-82 0 -114.5 -35.5t-32.5 -123.5v-58h324v-223h-324v-889q0 -185 -111.5 -280t-328.5 -95v217q81 1 115 40.5t34 123.5v883h-158z" />
<glyph unicode="&#x218;" horiz-adv-x="1341" d="M88 104l57 291l131 -45q250 -88 435 -88q92 0 151.5 42t59.5 128q0 66 -39.5 105.5t-126.5 58.5l-262 55q-198 41 -299 143t-101 279q0 153 72.5 259t192.5 155t276 49q230 0 489 -82l131 -41l-59 -297l-131 49q-243 90 -426 90q-96 0 -153.5 -42.5t-57.5 -127.5 q0 -66 39.5 -105t126.5 -58l262 -56q198 -40 298.5 -140.5t100.5 -279.5q0 -114 -42 -204t-116 -146t-171 -85t-211 -29q-253 0 -494 79zM485 -281l50 191h284l-74 -248q-29 -98 -135 -98q-76 0 -109.5 45t-15.5 110z" />
<glyph unicode="&#x219;" horiz-adv-x="1126" d="M88 82l43 233l111 -36q220 -68 350 -68q71 0 115.5 28t44.5 89q0 91 -134 108l-204 33q-322 51 -322 315q0 115 59 196.5t156 119t223 37.5q199 0 402 -62l106 -33l-43 -233l-108 35q-214 69 -352 69q-70 0 -115 -28.5t-45 -87.5q0 -91 135 -111l203 -33 q321 -51 321 -311q0 -172 -121.5 -263t-316.5 -91q-201 0 -401 61zM375 -281l49 191h285l-74 -248q-29 -98 -135 -98q-76 0 -109.5 45t-15.5 110z" />
<glyph unicode="&#x237;" horiz-adv-x="544" d="M-16 -154q81 1 115 40.5t34 123.5v1114h291v-1120q0 -185 -111 -280t-329 -95v217z" />
<glyph unicode="&#x2c6;" horiz-adv-x="1087" d="M160 1237l256 270q66 62 159 62q101 0 160 -62l258 -270h-307l-111 139l-106 -139h-309z" />
<glyph unicode="&#x2c7;" horiz-adv-x="1087" d="M158 1565h309l111 -140l106 140h307l-256 -269q-58 -61 -157 -61q-108 0 -160 61z" />
<glyph unicode="&#x2d8;" horiz-adv-x="1087" d="M147 1563h256q0 -70 38 -110t102 -40q65 0 103 40t38 110h254q0 -149 -113 -241.5t-282 -92.5t-282.5 92.5t-113.5 241.5z" />
<glyph unicode="&#x2d9;" horiz-adv-x="1087" d="M377 1419q0 73 44.5 115.5t123.5 42.5q78 0 123 -43t45 -115q0 -71 -45 -113t-123 -42q-79 0 -123.5 42t-44.5 113z" />
<glyph unicode="&#x2da;" horiz-adv-x="1087" d="M307 1448q0 110 74.5 178t187.5 68t189 -68t76 -178q0 -107 -77 -177.5t-188 -70.5q-110 0 -186 70.5t-76 177.5zM461 1448q0 -47 29.5 -77t78.5 -30t80 30.5t31 76.5q0 44 -30.5 75t-80.5 31q-49 0 -78.5 -30.5t-29.5 -75.5z" />
<glyph unicode="&#x2db;" horiz-adv-x="1087" d="M293 -180q0 114 115 180l145 16l8 -16q-90 -55 -90 -127t92 -72q91 0 197 43l35 -141q-126 -53 -252 -53q-111 0 -180.5 43.5t-69.5 126.5z" />
<glyph unicode="&#x2dc;" horiz-adv-x="1087" d="M94 1333q47 126 125.5 184t171.5 58q95 0 168 -53l72 -52q42 -30 82 -30q38 0 69.5 29.5t59.5 97.5l153 -94q-45 -124 -125 -184t-172 -60q-93 0 -168 55l-69 51q-43 31 -84 31q-77 0 -129 -127z" />
<glyph unicode="&#x2dd;" horiz-adv-x="1087" d="M111 1329q0 45 30 80l150 154h313l-274 -277q-51 -51 -121 -51q-47 0 -72.5 27.5t-25.5 66.5zM532 1323q0 44 33 80l152 160h315l-280 -283q-48 -51 -119 -51q-48 0 -74.5 27.5t-26.5 66.5z" />
<glyph unicode="&#x3c0;" horiz-adv-x="1464" d="M55 903v221h1338v-221h-340v-516q0 -89 34 -127.5t115 -38.5q60 0 189 33l34 -223q-169 -43 -276 -43q-187 0 -286 95t-99 279v541h-262v-903h-291v903h-156z" />
<glyph unicode="&#x1e80;" horiz-adv-x="1982" d="M29 1524h338l172 -1141l272 1020q13 59 62 90t124 31q73 0 122.5 -31t64.5 -90l264 -1022l174 1143h332l-260 -1372q-17 -82 -75.5 -126t-154.5 -44q-194 0 -237 157l-236 887l-243 -887q-44 -157 -238 -157q-95 0 -152.5 44.5t-72.5 125.5zM629 1868h372l144 -103 q43 -31 43 -77q0 -32 -26.5 -57t-74.5 -25q-59 0 -118 39z" />
<glyph unicode="&#x1e81;" horiz-adv-x="1681" d="M43 1124h305l129 -798l207 702q13 52 55.5 78.5t106.5 26.5q62 0 104.5 -27.5t55.5 -77.5l204 -704l131 800h297l-215 -995q-32 -152 -202 -152t-211 140l-170 563l-178 -565q-40 -138 -209 -138q-85 0 -137.5 39.5t-67.5 112.5zM475 1563h379l150 -140q43 -41 43 -90 q0 -37 -28 -65.5t-79 -28.5q-64 0 -121 47z" />
<glyph unicode="&#x1e82;" horiz-adv-x="1982" d="M29 1524h338l172 -1141l272 1020q13 59 62 90t124 31q73 0 122.5 -31t64.5 -90l264 -1022l174 1143h332l-260 -1372q-17 -82 -75.5 -126t-154.5 -44q-194 0 -237 157l-236 887l-243 -887q-44 -157 -238 -157q-95 0 -152.5 44.5t-72.5 125.5zM766 1688q0 48 43 77l143 103 h373l-342 -223q-59 -39 -117 -39q-49 0 -74.5 24.5t-25.5 57.5z" />
<glyph unicode="&#x1e83;" horiz-adv-x="1681" d="M43 1124h305l129 -798l207 702q13 52 55.5 78.5t106.5 26.5q62 0 104.5 -27.5t55.5 -77.5l204 -704l131 800h297l-215 -995q-32 -152 -202 -152t-211 140l-170 563l-178 -565q-40 -138 -209 -138q-85 0 -137.5 39.5t-67.5 112.5zM629 1333q0 49 41 90l151 140h377 l-344 -277q-57 -47 -121 -47q-49 0 -76.5 28.5t-27.5 65.5z" />
<glyph unicode="&#x1e84;" horiz-adv-x="1982" d="M29 1524h338l172 -1141l272 1020q13 59 62 90t124 31q73 0 122.5 -31t64.5 -90l264 -1022l174 1143h332l-260 -1372q-17 -82 -75.5 -126t-154.5 -44q-194 0 -237 157l-236 887l-243 -887q-44 -157 -238 -157q-95 0 -152.5 44.5t-72.5 125.5zM635 1747q0 64 41 101.5 t112 37.5q70 0 111 -38t41 -101q0 -65 -41 -103t-111 -38q-72 0 -112.5 38t-40.5 103zM1051 1747q0 64 41 101.5t112 37.5t111.5 -37.5t40.5 -101.5q0 -65 -40.5 -103t-111.5 -38q-72 0 -112.5 38t-40.5 103z" />
<glyph unicode="&#x1e85;" horiz-adv-x="1681" d="M43 1124h305l129 -798l207 702q13 52 55.5 78.5t106.5 26.5q62 0 104.5 -27.5t55.5 -77.5l204 -704l131 800h297l-215 -995q-32 -152 -202 -152t-211 140l-170 563l-178 -565q-40 -138 -209 -138q-85 0 -137.5 39.5t-67.5 112.5zM473 1421q0 71 43 113.5t117 42.5 q73 0 114 -42.5t41 -113.5t-41 -113t-114 -42q-74 0 -117 42t-43 113zM903 1421q0 71 42.5 113.5t115.5 42.5t115.5 -42.5t42.5 -113.5t-42.5 -113t-115.5 -42t-115.5 42t-42.5 113z" />
<glyph unicode="&#x1ef2;" horiz-adv-x="1470" d="M14 1524h385l346 -594l330 594h381l-541 -893v-631h-354v627zM356 1868h373l143 -103q43 -31 43 -77q0 -32 -26 -57t-74 -25q-60 0 -119 39z" />
<glyph unicode="&#x1ef3;" horiz-adv-x="1173" d="M33 1124h327l256 -782l222 782h309l-406 -1220q-94 -279 -383 -279q-108 0 -266 47l37 219q137 -36 197 -36q111 0 137 104l10 39zM209 1563h379l149 -140q43 -41 43 -90q0 -37 -27.5 -65.5t-78.5 -28.5q-64 0 -121 47z" />
<glyph unicode="&#x2000;" horiz-adv-x="1005" />
<glyph unicode="&#x2001;" horiz-adv-x="2011" />
<glyph unicode="&#x2002;" horiz-adv-x="1005" />
<glyph unicode="&#x2003;" horiz-adv-x="2011" />
<glyph unicode="&#x2004;" horiz-adv-x="670" />
<glyph unicode="&#x2005;" horiz-adv-x="502" />
<glyph unicode="&#x2006;" horiz-adv-x="335" />
<glyph unicode="&#x2007;" horiz-adv-x="335" />
<glyph unicode="&#x2008;" horiz-adv-x="251" />
<glyph unicode="&#x2009;" horiz-adv-x="402" />
<glyph unicode="&#x200a;" horiz-adv-x="111" />
<glyph unicode="&#x2010;" horiz-adv-x="878" d="M88 522v234h703v-234h-703z" />
<glyph unicode="&#x2011;" horiz-adv-x="878" d="M88 522v234h703v-234h-703z" />
<glyph unicode="&#x2012;" d="M88 530v232h1030v-232h-1030z" />
<glyph unicode="&#x2013;" d="M100 518v234h1008v-234h-1008z" />
<glyph unicode="&#x2014;" horiz-adv-x="2048" d="M100 518v232h1848v-232h-1848z" />
<glyph unicode="&#x2018;" horiz-adv-x="503" d="M47 1024l121 440q26 99 141 99q79 0 112 -44.5t17 -109.5l-88 -385h-303z" />
<glyph unicode="&#x2019;" horiz-adv-x="503" d="M53 1174l90 389h306l-123 -447q-26 -98 -144 -98q-78 0 -110.5 44.5t-18.5 111.5z" />
<glyph unicode="&#x201a;" horiz-adv-x="503" d="M53 -100l90 393h306l-125 -449q-26 -98 -144 -98q-78 0 -110.5 44t-16.5 110z" />
<glyph unicode="&#x201c;" horiz-adv-x="886" d="M47 1020l119 444q29 99 135 99q72 0 100.5 -44.5t14.5 -111.5l-90 -387h-279zM451 1020l120 444q12 47 46.5 73t87.5 26q72 0 101 -44.5t13 -111.5l-88 -387h-280z" />
<glyph unicode="&#x201d;" horiz-adv-x="886" d="M53 1169l92 394h279l-121 -449q-29 -98 -133 -98q-72 0 -101.5 43.5t-15.5 109.5zM459 1169l90 394h280l-120 -449q-29 -98 -136 -98q-72 0 -100 43t-14 110z" />
<glyph unicode="&#x201e;" horiz-adv-x="886" d="M49 -106l94 399h279l-123 -455q-29 -98 -133 -98q-72 0 -101.5 43.5t-15.5 110.5zM455 -106l92 399h280l-122 -455q-29 -98 -136 -98q-72 0 -100 43.5t-14 110.5z" />
<glyph unicode="&#x2020;" d="M92 786v312l387 -31l-35 457h326l-33 -457l381 31v-312l-389 35l37 -1202h-320l37 1204z" />
<glyph unicode="&#x2021;" d="M92 45v311l397 -34l-47 251l47 250l-397 -37v312l387 -31l-35 457h326l-33 -457l381 31v-312l-393 35l49 -248l-49 -249l393 32v-309l-381 31l33 -459h-326l35 459z" />
<glyph unicode="&#x2022;" horiz-adv-x="933" d="M158 678q0 159 82.5 247.5t226.5 88.5q147 0 230 -88.5t83 -247.5q0 -158 -83 -246t-230 -88q-143 0 -226 88.5t-83 245.5z" />
<glyph unicode="&#x2026;" horiz-adv-x="1511" d="M84 143q0 74 45.5 118t124.5 44q78 0 123 -44t45 -118q0 -75 -45 -119t-123 -44q-79 0 -124.5 44t-45.5 119zM588 143q0 74 45.5 118t124.5 44q78 0 123 -44t45 -118q0 -75 -45 -119t-123 -44q-79 0 -124.5 44t-45.5 119zM1092 143q0 74 45.5 118t124.5 44q77 0 121 -44 t44 -118q0 -75 -43.5 -119t-121.5 -44q-79 0 -124.5 44t-45.5 119z" />
<glyph unicode="&#x202f;" horiz-adv-x="402" />
<glyph unicode="&#x2030;" horiz-adv-x="2082" d="M74 999v275q0 125 69 193.5t197 68.5q129 0 196.5 -68t67.5 -194v-270q0 -127 -67 -196t-195 -69q-130 0 -199 68t-69 192zM258 999q0 -108 82 -108t82 108v277q0 106 -82 106t-82 -106v-277zM264 0l717 1524h205l-715 -1524h-207zM846 250v272q0 126 69 195t197 69 q130 0 198 -68.5t68 -195.5v-268q0 -127 -67.5 -195.5t-196.5 -68.5q-130 0 -199 68t-69 192zM1030 250q0 -109 82 -109q84 0 84 109v276q0 107 -84 107q-82 0 -82 -107v-276zM1479 250v272q0 126 68.5 195t197.5 69t196.5 -68.5t67.5 -195.5v-268q0 -127 -67 -195.5 t-195 -68.5q-130 0 -199 68t-69 192zM1661 250q0 -109 84 -109q82 0 82 109v276q0 107 -82 107q-84 0 -84 -107v-276z" />
<glyph unicode="&#x2039;" horiz-adv-x="759" d="M72 578q0 63 51 120l270 277h324l-381 -397l381 -398h-324l-270 275q-51 57 -51 123z" />
<glyph unicode="&#x203a;" horiz-adv-x="759" d="M43 180l383 398l-383 397h324l270 -277q53 -56 53 -120q0 -67 -53 -123l-270 -275h-324z" />
<glyph unicode="&#x2044;" horiz-adv-x="40" d="M-440 0l716 1524h205l-714 -1524h-207z" />
<glyph unicode="&#x205f;" horiz-adv-x="502" />
<glyph unicode="&#x2070;" horiz-adv-x="636" d="M51 1198v272q0 127 69 196t197 69q129 0 197 -69t68 -196v-268q0 -127 -67.5 -195.5t-195.5 -68.5q-130 0 -199 68t-69 192zM236 1198q0 -108 81 -108q82 0 82 108v277q0 106 -82 106q-81 0 -81 -106v-277z" />
<glyph unicode="&#x2074;" horiz-adv-x="636" d="M23 1159q0 34 24 74l264 434q40 66 121 66q111 0 111 -103v-413h73v-144h-73v-125h-181v125h-251q-43 0 -65.5 23t-22.5 63zM229 1217h133v225z" />
<glyph unicode="&#x2075;" horiz-adv-x="636" d="M39 997l29 148l65 -21q106 -32 162 -32q57 0 86 30.5t29 85.5q0 113 -115 113q-39 0 -141 -25l-76 -22v450h487v-155h-329v-115q42 12 102 12q125 0 190.5 -65t65.5 -193q0 -129 -75.5 -198.5t-211.5 -69.5q-110 0 -205 35z" />
<glyph unicode="&#x2076;" horiz-adv-x="636" d="M49 1212v269q0 116 76 184t201 68q80 0 196 -33l64 -21l-29 -149l-65 20q-91 27 -154 27q-105 0 -105 -96v-31q67 16 113 16q254 0 254 -254q0 -121 -71.5 -195.5t-204.5 -74.5q-129 0 -202 73t-73 197zM233 1212q0 -118 93 -118q43 0 66.5 28.5t23.5 83.5 q0 109 -101 109q-32 0 -82 -12v-91z" />
<glyph unicode="&#x2077;" horiz-adv-x="636" d="M51 1571v153h453q46 0 71 -24.5t25 -65.5q0 -31 -18 -80l-250 -606h-201l264 623h-344z" />
<glyph unicode="&#x2078;" horiz-adv-x="636" d="M39 1163q0 88 63 154l25 26l-23 29q-47 62 -47 148q0 102 70.5 158.5t191.5 56.5t192 -56.5t71 -158.5q0 -86 -47 -148l-23 -29l25 -26q65 -71 65 -154q0 -106 -74 -164.5t-206 -58.5t-207.5 58.5t-75.5 164.5zM219 1165q0 -36 26 -58t74 -22t74.5 22t26.5 58 q0 37 -29 70l-24 31h-95l-26 -31q-27 -34 -27 -70zM231 1507q0 -32 27 -71l18 -29h89l18 27q25 41 25 73q0 35 -23 55.5t-66 20.5q-41 0 -64.5 -21.5t-23.5 -54.5z" />
<glyph unicode="&#x2079;" horiz-adv-x="636" d="M39 1460q0 122 72.5 197.5t203.5 75.5q129 0 202 -74t73 -197v-268q0 -116 -76 -184t-201 -68q-81 0 -196 33l-64 18l29 152l65 -21q91 -26 154 -26q54 0 78 23.5t24 70.5v33q-65 -17 -110 -17q-254 0 -254 252zM225 1468q0 -110 99 -110q29 0 79 12v92q0 119 -92 119 q-41 0 -63.5 -29.5t-22.5 -83.5z" />
<glyph unicode="&#x207a;" horiz-adv-x="636" d="M51 1200v139h182v201h160v-201h187v-139h-187v-199h-160v199h-182z" />
<glyph unicode="&#x207b;" horiz-adv-x="636" d="M53 1200v141h527v-141h-527z" />
<glyph unicode="&#x207c;" horiz-adv-x="636" d="M51 1108v133h529v-133h-529zM51 1303v135h529v-135h-529z" />
<glyph unicode="&#x207d;" horiz-adv-x="393" d="M41 1305q0 76 10 138t27 105t42 75.5t51.5 51.5t59.5 31t62 16t63 4v-135q-18 -2 -32.5 -6.5t-35 -22t-34 -46t-23.5 -83t-10 -128.5q0 -77 10 -134t23.5 -86.5t34 -47.5t35 -22.5t32.5 -6.5v-136q-44 0 -83.5 9t-83.5 37.5t-75.5 74t-52 126t-20.5 186.5z" />
<glyph unicode="&#x207e;" horiz-adv-x="393" d="M35 872v136q19 2 33.5 6.5t35.5 22.5t34.5 47.5t23.5 86.5t10 134q0 74 -10 128.5t-23.5 83t-34.5 46t-35.5 22t-33.5 6.5v135q34 0 63.5 -4t62.5 -15.5t59.5 -31t51 -52t41.5 -75.5t27 -105t10 -138q0 -106 -20.5 -186.5t-52 -126t-75.5 -74t-83.5 -37.5t-83.5 -9z" />
<glyph unicode="&#x207f;" horiz-adv-x="784" d="M92 844v538q0 93 94 117q130 31 217 31q144 0 213.5 -66.5t69.5 -179.5v-440h-199v426q0 92 -92 92q-44 0 -102 -16v-502h-201z" />
<glyph unicode="&#x2080;" horiz-adv-x="636" d="M51 45v272q0 127 69 196t197 69q129 0 197 -69t68 -196v-268q0 -127 -67.5 -195.5t-195.5 -68.5q-130 0 -199 68t-69 192zM236 45q0 -108 81 -108q82 0 82 108v277q0 106 -82 106q-81 0 -81 -106v-277z" />
<glyph unicode="&#x2081;" horiz-adv-x="636" d="M45 -57h203v475h-19q-67 0 -120 -31l-33 148q73 36 180 36h70q54 0 83 -27t29 -77v-524h162v-148h-555v148z" />
<glyph unicode="&#x2082;" horiz-adv-x="636" d="M43 -117q0 49 33 78l225 209q53 51 73.5 84t20.5 80q0 92 -104 92q-65 0 -156 -31l-61 -22l-27 149l62 23q107 35 204 35q122 0 194.5 -59t72.5 -181q0 -67 -32 -129.5t-108 -132.5l-147 -137h289v-146h-451q-43 0 -65.5 23.5t-22.5 64.5z" />
<glyph unicode="&#x2083;" horiz-adv-x="636" d="M33 -158l28 152l64 -21q104 -34 178 -34q53 0 81 21t28 58q0 39 -29 68l-25 29h-157v139h153l19 29q24 27 24 65q0 78 -100 78q-74 0 -158 -31l-63 -20l-25 149l62 21q103 35 204 35q127 0 195 -53.5t68 -161.5q0 -79 -52 -144l-22 -31l24 -26q68 -68 68 -152 q0 -108 -76 -166.5t-207 -58.5q-104 0 -217 37z" />
<glyph unicode="&#x2084;" horiz-adv-x="636" d="M23 6q0 34 24 74l264 434q40 66 121 66q111 0 111 -103v-414h73v-143h-73v-125h-181v125h-251q-43 0 -65.5 23t-22.5 63zM229 63h133v226z" />
<glyph unicode="&#x2085;" horiz-adv-x="636" d="M39 -156l29 148l65 -21q106 -32 162 -32q57 0 86 30.5t29 85.5q0 113 -115 113q-39 0 -141 -25l-76 -22v450h487v-155h-329v-115q42 12 102 12q125 0 190.5 -65t65.5 -193q0 -129 -75.5 -198.5t-211.5 -69.5q-110 0 -205 35z" />
<glyph unicode="&#x2086;" horiz-adv-x="636" d="M49 59v269q0 116 76 184t201 68q80 0 196 -33l64 -21l-29 -149l-65 20q-91 27 -154 27q-105 0 -105 -96v-31q67 16 113 16q254 0 254 -254q0 -121 -71.5 -195.5t-204.5 -74.5q-129 0 -202 73t-73 197zM233 59q0 -118 93 -118q43 0 66.5 28.5t23.5 83.5q0 109 -101 109 q-32 0 -82 -12v-91z" />
<glyph unicode="&#x2087;" horiz-adv-x="636" d="M51 418v153h453q46 0 71 -24.5t25 -65.5q0 -31 -18 -80l-250 -606h-201l264 623h-344z" />
<glyph unicode="&#x2088;" horiz-adv-x="636" d="M39 10q0 88 63 154l25 26l-23 29q-47 62 -47 148q0 102 70.5 158.5t191.5 56.5t192 -56.5t71 -158.5q0 -86 -47 -148l-23 -29l25 -26q65 -71 65 -154q0 -106 -74 -164.5t-206 -58.5t-207.5 58.5t-75.5 164.5zM219 12q0 -36 26 -58t74 -22t74.5 22t26.5 58q0 37 -29 70 l-24 31h-95l-26 -31q-27 -34 -27 -70zM231 354q0 -32 27 -71l18 -29h89l18 27q25 41 25 73q0 35 -23 55.5t-66 20.5q-41 0 -64.5 -21.5t-23.5 -54.5z" />
<glyph unicode="&#x2089;" horiz-adv-x="636" d="M39 307q0 122 72.5 197.5t203.5 75.5q129 0 202 -74t73 -197v-268q0 -116 -76 -184t-201 -68q-81 0 -196 33l-64 18l29 152l65 -21q91 -26 154 -26q54 0 78 23.5t24 70.5v33q-65 -17 -110 -17q-254 0 -254 252zM225 315q0 -110 99 -110q29 0 79 12v92q0 119 -92 119 q-41 0 -63.5 -29.5t-22.5 -83.5z" />
<glyph unicode="&#x208d;" horiz-adv-x="393" d="M41 152q0 76 10 138t27 105t42 75.5t51.5 51.5t59.5 31t62 16t63 4v-135q-18 -2 -32.5 -6.5t-35 -22t-34 -46t-23.5 -83t-10 -128.5q0 -77 10 -134t23.5 -86.5t34 -47.5t35 -22.5t32.5 -6.5v-136q-44 0 -83.5 9t-83.5 37.5t-75.5 74t-52 126t-20.5 186.5z" />
<glyph unicode="&#x208e;" horiz-adv-x="393" d="M35 -145q19 2 33.5 6.5t35.5 22.5t34.5 47.5t23.5 86.5t10 134q0 74 -10 128.5t-23.5 83t-34.5 46t-35.5 22t-33.5 6.5v135q34 0 63.5 -4t62.5 -15.5t59.5 -31t51 -52t41.5 -75.5t27 -105t10 -138q0 -106 -20.5 -186.5t-52 -126t-75.5 -74t-83.5 -37.5t-83.5 -9v136z" />
<glyph unicode="&#x20ac;" d="M53 512v193h137v122h-137v193h142q12 249 158 384.5t378 135.5q141 0 322 -55l94 -29l-35 -242l-92 27q-162 49 -256 49q-252 0 -264 -270h403v-193h-409v-122h409v-193h-403q4 -140 72.5 -209.5t191.5 -69.5q78 0 256 50l92 26l35 -241l-94 -29q-174 -53 -322 -53 q-152 0 -269.5 58.5t-188.5 178.5t-78 289h-142z" />
<glyph unicode="&#x2113;" horiz-adv-x="800" d="M31 434l151 115v244q0 127 16 234t49 192.5t88.5 133.5t129.5 48q91 0 138.5 -75t47.5 -181q0 -108 -41.5 -210.5t-105 -184t-160.5 -172.5v-168q0 -185 46.5 -257.5t141.5 -72.5q130 0 230 149l39 -34q-128 -220 -342 -220q-70 0 -118.5 16t-85.5 55.5t-55 110 t-18 175.5v147l-125 -92zM344 662q91 106 146 229t55 248q0 86 -26 143t-73 57q-57 0 -79.5 -98t-22.5 -330v-249z" />
<glyph unicode="&#x2122;" horiz-adv-x="1867" d="M88 1358v166h684v-166h-233v-688h-217v688h-234zM870 670v735q0 62 42.5 95.5t113.5 33.5q137 0 166 -113l125 -436l129 434q26 113 166 113q71 0 110 -32.5t39 -92.5v-737h-192v561l-148 -492q-17 -71 -108 -71q-93 0 -113 71l-141 490v-559h-189z" />
<glyph unicode="&#x2126;" horiz-adv-x="1652" d="M84 0v221h354q-39 21 -79.5 51t-92 85t-90 119.5t-65.5 159t-27 198.5q0 216 96 376t263 242t384 82q216 0 383 -81.5t263 -241.5t96 -377q0 -104 -27 -198.5t-66 -159t-91 -119.5t-93 -85t-80 -51h357v-221h-539q-137 0 -137 145q0 40 16 77.5t47 58.5q258 163 258 510 q0 230 -106 359.5t-283 129.5t-282 -129.5t-105 -359.5q0 -349 258 -510q31 -21 47.5 -59t16.5 -77q0 -67 -37.5 -106t-108.5 -39h-530z" />
<glyph unicode="&#x212e;" horiz-adv-x="1560" d="M59 627q0 175 96.5 324t262.5 236t360 87q149 0 283.5 -53t230 -142.5t151.5 -212.5t56 -258h-1165q-10 0 -10 -8v-352q0 -23 16 -39q156 -162 440 -162q304 0 463 184h105q-98 -116 -248.5 -182.5t-321.5 -66.5q-194 0 -360 86.5t-262.5 235t-96.5 323.5zM324 686 q0 -12 10 -12h893q8 0 8 12v324q0 23 -18 41q-166 163 -437 163t-438 -170q-18 -15 -18 -43v-315z" />
<glyph unicode="&#x2153;" horiz-adv-x="1456" d="M37 748v147h203v475h-19q-68 0 -121 -31l-32 148q75 37 180 37h69q54 0 83.5 -27.5t29.5 -77.5v-524h162v-147h-555zM276 0l717 1524h205l-715 -1524h-207zM846 47l28 152l64 -21q107 -35 178 -35q53 0 81 21.5t28 58.5q0 39 -29 68l-25 28h-157v140h153l19 28 q24 27 24 66q0 78 -100 78q-74 0 -158 -31l-63 -20l-25 149l62 21q101 34 204 34q127 0 195 -53.5t68 -161.5q0 -78 -52 -143l-22 -31l24 -26q68 -68 68 -152q0 -108 -76 -166.5t-207 -58.5q-104 0 -217 37z" />
<glyph unicode="&#x2154;" horiz-adv-x="1456" d="M37 836q0 48 33 77l225 209q53 51 73.5 84t20.5 80q0 92 -104 92q-68 0 -156 -30l-61 -23l-27 150l61 22q107 35 205 35q122 0 194 -59t72 -181q0 -67 -32 -129.5t-107 -132.5l-147 -137h288v-145h-450q-43 0 -65.5 23.5t-22.5 64.5zM266 0l717 1524h205l-715 -1524h-207 zM846 47l28 152l64 -21q107 -35 178 -35q53 0 81 21.5t28 58.5q0 39 -29 68l-25 28h-157v140h153l19 28q24 27 24 66q0 78 -100 78q-74 0 -158 -31l-63 -20l-25 149l62 21q101 34 204 34q127 0 195 -53.5t68 -161.5q0 -78 -52 -143l-22 -31l24 -26q68 -68 68 -152 q0 -108 -76 -166.5t-207 -58.5q-104 0 -217 37z" />
<glyph unicode="&#x2155;" horiz-adv-x="1456" d="M37 748v147h203v475h-19q-68 0 -121 -31l-32 148q75 37 180 37h69q54 0 83.5 -27.5t29.5 -77.5v-524h162v-147h-555zM274 0l717 1524h205l-715 -1524h-207zM848 49l29 148l65 -21q109 -33 162 -33q57 0 86 31t29 86q0 113 -115 113q-39 0 -141 -25l-76 -22v450h487v-155 h-330v-115q42 12 103 12q125 0 190.5 -65t65.5 -193q0 -129 -75.5 -198.5t-211.5 -69.5q-110 0 -205 35z" />
<glyph unicode="&#x2156;" horiz-adv-x="1456" d="M29 836q0 49 32 77l226 209q53 51 73.5 84t20.5 80q0 45 -27.5 68.5t-77.5 23.5q-67 0 -155 -30l-62 -23l-26 150l61 22q107 35 205 35q122 0 194 -59t72 -181q0 -67 -32 -129.5t-107 -132.5l-147 -137h288v-145h-450q-43 0 -65.5 23.5t-22.5 64.5zM264 0l717 1524h205 l-715 -1524h-207zM848 49l29 148l65 -21q109 -33 162 -33q57 0 86 31t29 86q0 113 -115 113q-39 0 -141 -25l-76 -22v450h487v-155h-330v-115q42 12 103 12q125 0 190.5 -65t65.5 -193q0 -129 -75.5 -198.5t-211.5 -69.5q-110 0 -205 35z" />
<glyph unicode="&#x2157;" horiz-adv-x="1456" d="M29 795l28 151l64 -20q107 -35 178 -35q53 0 81 21.5t28 58.5q0 38 -29 67l-25 29h-157v139h153l19 29q24 27 24 65q0 78 -100 78q-76 0 -158 -30l-63 -21l-25 150l62 20q103 35 204 35q262 0 262 -215q0 -80 -51 -143l-22 -31l24 -27q68 -68 68 -151q0 -109 -76 -167.5 t-207 -58.5q-104 0 -217 37zM252 0l717 1524h205l-715 -1524h-207zM850 49l29 148l65 -21q109 -33 162 -33q57 0 86 31t29 86q0 113 -115 113q-39 0 -141 -25l-76 -22v450h487v-155h-329v-115q42 12 102 12q125 0 190.5 -65t65.5 -193q0 -129 -75.5 -198.5t-211.5 -69.5 q-110 0 -205 35z" />
<glyph unicode="&#x2158;" horiz-adv-x="1456" d="M23 958q0 34 24 74l264 434q40 66 121 66q111 0 111 -102v-414h73v-144h-73v-124h-181v124h-251q-43 0 -65.5 23t-22.5 63zM229 1016h133v225zM266 0l717 1524h205l-715 -1524h-207zM850 49l29 148l65 -21q109 -33 162 -33q57 0 86 31t29 86q0 113 -115 113 q-39 0 -141 -25l-76 -22v450h487v-155h-329v-115q42 12 102 12q125 0 190.5 -65t65.5 -193q0 -129 -75.5 -198.5t-211.5 -69.5q-110 0 -205 35z" />
<glyph unicode="&#x2159;" horiz-adv-x="1456" d="M39 748v147h203v475h-19q-68 0 -121 -31l-32 148q75 37 180 37h69q54 0 83.5 -27.5t29.5 -77.5v-524h162v-147h-555zM287 0l717 1524h204l-714 -1524h-207zM864 264v268q0 116 76 184t201 68q84 0 196 -32l64 -21l-29 -149l-65 20q-91 27 -154 27q-104 0 -104 -97v-30 q67 16 112 16q254 0 254 -254q0 -121 -71.5 -195.5t-204.5 -74.5q-129 0 -202 73t-73 197zM1049 264q0 -119 92 -119q43 0 66.5 29t23.5 84q0 109 -101 109q-27 0 -81 -13v-90z" />
<glyph unicode="&#x215a;" horiz-adv-x="1456" d="M35 797l28 147l66 -20q109 -33 162 -33q57 0 86 31t29 86q0 112 -115 112q-43 0 -141 -24l-76 -23v451h487v-156h-330v-115q45 13 103 13q125 0 190.5 -65t65.5 -193q0 -130 -75.5 -199.5t-211.5 -69.5q-110 0 -205 35zM264 0l717 1524h205l-715 -1524h-207zM864 264v268 q0 116 76 184t201 68q84 0 196 -32l64 -21l-29 -149l-65 20q-91 27 -154 27q-104 0 -104 -97v-30q67 16 112 16q254 0 254 -254q0 -121 -71.5 -195.5t-204.5 -74.5q-129 0 -202 73t-73 197zM1049 264q0 -119 92 -119q43 0 66.5 29t23.5 84q0 109 -101 109q-27 0 -81 -13v-90 z" />
<glyph unicode="&#x215b;" horiz-adv-x="1456" d="M29 748v147h202v475h-18q-68 0 -121 -31l-33 148q75 37 181 37h69q54 0 83.5 -27.5t29.5 -77.5v-524h162v-147h-555zM287 0l717 1524h204l-714 -1524h-207zM852 215q0 88 63 154l25 26l-22 29q-48 63 -48 147q0 102 71 158.5t192 56.5t191.5 -56.5t70.5 -158.5 q0 -85 -47 -147l-23 -29l25 -26q65 -71 65 -154q0 -106 -74 -164.5t-206 -58.5t-207.5 58.5t-75.5 164.5zM1032 217q0 -36 26.5 -58t74.5 -22t74 22t26 58q0 37 -29 70l-24 30h-95l-26 -30q-27 -34 -27 -70zM1044 559q0 -33 27 -72l19 -28h88l18 26q25 41 25 74 q0 35 -22.5 55.5t-65.5 20.5q-42 0 -65.5 -21.5t-23.5 -54.5z" />
<glyph unicode="&#x215c;" horiz-adv-x="1456" d="M29 797l28 151l64 -20q107 -35 178 -35q53 0 81 21.5t28 58.5q0 38 -29 67l-25 29h-157v139h153l19 29q24 27 24 66q0 77 -100 77q-76 0 -158 -30l-63 -21l-25 150l62 20q103 35 204 35q262 0 262 -215q0 -80 -51 -143l-22 -31l24 -27q68 -68 68 -151q0 -109 -76 -167.5 t-207 -58.5q-104 0 -217 37zM268 0l717 1524h205l-715 -1524h-207zM852 215q0 88 63 154l25 26l-22 29q-48 63 -48 147q0 102 71 158.5t192 56.5t191.5 -56.5t70.5 -158.5q0 -85 -47 -147l-23 -29l25 -26q65 -71 65 -154q0 -106 -74 -164.5t-206 -58.5t-207.5 58.5 t-75.5 164.5zM1032 217q0 -36 26.5 -58t74.5 -22t74 22t26 58q0 37 -29 70l-24 30h-95l-26 -30q-27 -34 -27 -70zM1044 559q0 -33 27 -72l19 -28h88l18 26q25 41 25 74q0 35 -22.5 55.5t-65.5 20.5q-42 0 -65.5 -21.5t-23.5 -54.5z" />
<glyph unicode="&#x215d;" horiz-adv-x="1456" d="M35 797l28 147l66 -20q109 -33 162 -33q57 0 86 31t29 86q0 112 -115 112q-43 0 -141 -24l-76 -23v451h487v-156h-330v-115q45 13 103 13q125 0 190.5 -65t65.5 -193q0 -130 -75.5 -199.5t-211.5 -69.5q-110 0 -205 35zM264 0l717 1524h205l-715 -1524h-207zM852 215 q0 88 63 154l25 26l-22 29q-48 63 -48 147q0 102 71 158.5t192 56.5t191.5 -56.5t70.5 -158.5q0 -85 -47 -147l-23 -29l25 -26q65 -71 65 -154q0 -106 -74 -164.5t-206 -58.5t-207.5 58.5t-75.5 164.5zM1032 217q0 -36 26.5 -58t74.5 -22t74 22t26 58q0 37 -29 70l-24 30 h-95l-26 -30q-27 -34 -27 -70zM1044 559q0 -33 27 -72l19 -28h88l18 26q25 41 25 74q0 35 -22.5 55.5t-65.5 20.5q-42 0 -65.5 -21.5t-23.5 -54.5z" />
<glyph unicode="&#x215e;" horiz-adv-x="1456" d="M41 1370v154h453q46 0 71 -24.5t25 -65.5q0 -29 -19 -80l-249 -606h-201l264 622h-344zM229 0l717 1524h205l-715 -1524h-207zM852 215q0 88 63 154l25 26l-22 29q-48 63 -48 147q0 102 71 158.5t192 56.5t191.5 -56.5t70.5 -158.5q0 -85 -47 -147l-23 -29l25 -26 q65 -71 65 -154q0 -106 -74 -164.5t-206 -58.5t-207.5 58.5t-75.5 164.5zM1032 217q0 -36 26.5 -58t74.5 -22t74 22t26 58q0 37 -29 70l-24 30h-95l-26 -30q-27 -34 -27 -70zM1044 559q0 -33 27 -72l19 -28h88l18 26q25 41 25 74q0 35 -22.5 55.5t-65.5 20.5 q-42 0 -65.5 -21.5t-23.5 -54.5z" />
<glyph unicode="&#x215f;" horiz-adv-x="727" d="M37 748v147h203v475h-19q-68 0 -121 -31l-32 148q75 37 180 37h69q54 0 83.5 -27.5t29.5 -77.5v-524h162v-147h-555zM264 0l717 1524h205l-715 -1524h-207z" />
<glyph unicode="&#x2202;" d="M76 500q0 239 126.5 369t368.5 130q110 0 252 -43v97q0 227 -241 227q-125 0 -330 -61l-98 -33l-45 250l102 32q221 68 389 68q239 0 382.5 -131t143.5 -354v-541q0 -240 -139 -380t-387 -140q-250 0 -387 138t-137 372zM383 494q0 -122 57.5 -189t161.5 -67 q111 0 166 70.5t55 201.5v205q-132 37 -202 37q-128 0 -183 -67t-55 -191z" />
<glyph unicode="&#x2206;" d="M23 0l342 1382q37 156 241 156q202 0 240 -156l342 -1382h-1165zM373 258h465l-236 961z" />
<glyph unicode="&#x220f;" horiz-adv-x="1447" d="M63 1274v250h1321v-250h-192v-1274h-326v1274h-282v-1274h-326v1274h-195z" />
<glyph unicode="&#x2211;" d="M57 -203q0 76 52 148l434 635l-434 630q-52 75 -52 150q0 73 42.5 118.5t121.5 45.5h928v-445h-264v193h-494l469 -690l-469 -697h502v201h266v-453h-938q-79 0 -121.5 45.5t-42.5 118.5z" />
<glyph unicode="&#x2212;" d="M100 489v232h1008v-232h-1008z" />
<glyph unicode="&#x2215;" horiz-adv-x="40" d="M-440 0l716 1524h205l-714 -1524h-207z" />
<glyph unicode="&#x2219;" horiz-adv-x="770" d="M219 745q0 74 44.5 118t123.5 44q78 0 123 -44t45 -118q0 -75 -45 -119t-123 -44q-79 0 -123.5 43.5t-44.5 119.5z" />
<glyph unicode="&#x221a;" d="M20 901v223h369l182 -780l246 1180h395v-224h-153l-287 -1185q-19 -68 -73 -104t-134 -36t-133 36t-72 104l-217 786h-123z" />
<glyph unicode="&#x221e;" horiz-adv-x="1640" d="M82 610q0 205 101 327t296 122q125 0 240 -62l102 -51l103 51q118 62 241 62q194 0 296 -122t102 -327q0 -203 -103 -325.5t-295 -122.5q-125 0 -241 61l-101 53l-104 -53q-116 -61 -240 -61q-194 0 -295.5 122t-101.5 326zM332 610q0 -113 44.5 -170t117.5 -57 q63 0 129 31l63 28v338l-63 29q-63 31 -129 31q-74 0 -118 -57.5t-44 -172.5zM958 442l64 -28q66 -31 127 -31q74 0 118 56.5t44 170.5q0 116 -43.5 173t-118.5 57q-64 0 -127 -31l-64 -29v-338z" />
<glyph unicode="&#x222b;" d="M233 -154q83 1 117.5 40.5t34.5 123.5v1182q0 183 102 279t287 96q115 0 279 -45l-35 -222q-129 33 -195 33q-81 0 -115 -38.5t-34 -127.5v-1163q0 -185 -111.5 -280t-329.5 -95v217z" />
<glyph unicode="&#x2248;" d="M55 741q114 263 348 263q98 0 201 -64l94 -61q54 -35 103 -35q106 0 166 145l174 -115q-112 -258 -350 -258q-105 0 -203 64l-92 61q-60 35 -103 35q-100 0 -164 -143zM72 346q115 260 348 260q102 0 201 -61l94 -62q56 -34 102 -34q51 0 92 32t74 111l176 -115 q-114 -256 -350 -256q-105 0 -205 62l-92 61q-51 35 -102 35q-99 0 -162 -141z" />
<glyph unicode="&#x2260;" d="M100 317v218h355l73 153h-428v219h533l131 273h223l-131 -273h254v-219h-358l-72 -153h430v-218h-537l-114 -239h-226l115 239h-248z" />
<glyph unicode="&#x2264;" d="M92 702q0 132 131 170l893 261v-250l-708 -183l708 -182v-242l-889 256q-135 35 -135 170zM104 0v219h1010v-219h-1010z" />
<glyph unicode="&#x2265;" d="M92 276v242l709 182l-709 183v250l893 -261q66 -19 97.5 -60t31.5 -110q0 -135 -133 -170zM94 0v219h1010v-219h-1010z" />
<glyph unicode="&#x25ca;" d="M35 760l405 706q45 80 166 80q111 0 162 -80l406 -706l-408 -705q-49 -80 -164 -80t-162 82zM336 762l272 -481l269 481l-269 481z" />
<glyph unicode="&#xe000;" horiz-adv-x="1126" d="M0 0v1126h1126v-1126h-1126z" />
<glyph unicode="&#xf6c3;" horiz-adv-x="1087" d="M393 -281l49 191h285l-74 -248q-29 -98 -135 -98q-76 0 -109.5 45t-15.5 110z" />
<glyph unicode="&#xfb04;" horiz-adv-x="2113" d="M35 893v223h160v82q0 185 109.5 279t316.5 94q231 0 458 -78q104 78 273 78q145 0 344 -45l303 59v-1585h-301v1307q-197 32 -291 32t-133 -38t-39 -127v-58h324v-223h-324v-893h-289v893h-463v-893h-288v893h-160zM483 1116h463v82q0 60 10 94q-168 49 -294 49 q-96 0 -137.5 -38.5t-41.5 -128.5v-58z" />
<glyph horiz-adv-x="636" d="M51 250v272q0 126 68.5 195t197.5 69q130 0 197.5 -68.5t67.5 -195.5v-268q0 -127 -67.5 -195.5t-195.5 -68.5q-130 0 -199 68t-69 192zM236 250q0 -109 81 -109q82 0 82 109v276q0 107 -82 107q-81 0 -81 -107v-276z" />
<glyph horiz-adv-x="636" d="M45 0v147h203v476h-19q-67 0 -120 -31l-33 147q75 37 180 37h70q54 0 83 -27t29 -77v-525h162v-147h-555z" />
<glyph horiz-adv-x="636" d="M43 88q0 49 33 78l225 209q53 51 73.5 84t20.5 80q0 92 -104 92q-65 0 -156 -31l-61 -22l-27 149l62 23q103 34 204 34q122 0 194.5 -58.5t72.5 -180.5q0 -67 -32 -129.5t-108 -132.5l-147 -138h289v-145h-451q-43 0 -65.5 23.5t-22.5 64.5z" />
<glyph horiz-adv-x="636" d="M33 47l28 152l64 -21q107 -35 178 -35q53 0 81 21.5t28 58.5q0 39 -29 68l-25 28h-157v140h153l19 28q24 27 24 66q0 78 -100 78q-74 0 -158 -31l-63 -20l-25 149l62 21q101 34 204 34q127 0 195 -53.5t68 -161.5q0 -78 -52 -143l-22 -31l24 -26q68 -68 68 -152 q0 -108 -76 -166.5t-207 -58.5q-104 0 -217 37z" />
<glyph horiz-adv-x="636" d="M23 211q0 34 24 74l264 434q39 65 121 65q111 0 111 -102v-414h73v-143h-73v-125h-181v125h-251q-43 0 -65.5 23t-22.5 63zM229 268h133v226z" />
<glyph horiz-adv-x="636" d="M39 49l29 148l65 -21q109 -33 162 -33q57 0 86 31t29 86q0 113 -115 113q-39 0 -141 -25l-76 -22v450h487v-155h-329v-115q42 12 102 12q125 0 190.5 -65t65.5 -193q0 -129 -75.5 -198.5t-211.5 -69.5q-110 0 -205 35z" />
<glyph horiz-adv-x="636" d="M49 264v268q0 116 76 184t201 68q84 0 196 -32l64 -21l-29 -149l-65 20q-91 27 -154 27q-105 0 -105 -97v-30q67 16 113 16q254 0 254 -254q0 -121 -71.5 -195.5t-204.5 -74.5q-129 0 -202 73t-73 197zM233 264q0 -57 24 -88t69 -31q43 0 66.5 29t23.5 84q0 109 -101 109 q-28 0 -82 -13v-90z" />
<glyph horiz-adv-x="636" d="M51 623v153h453q46 0 71 -24.5t25 -65.5q0 -31 -18 -80l-250 -606h-201l264 623h-344z" />
<glyph horiz-adv-x="636" d="M39 215q0 88 63 154l25 26l-23 29q-47 62 -47 147q0 102 70.5 158.5t191.5 56.5t192 -56.5t71 -158.5q0 -85 -47 -147l-23 -29l25 -26q65 -71 65 -154q0 -106 -74 -164.5t-206 -58.5t-207.5 58.5t-75.5 164.5zM219 217q0 -36 26 -58t74 -22t74.5 22t26.5 58q0 37 -29 70 l-24 30h-95l-26 -30q-27 -34 -27 -70zM231 559q0 -33 27 -72l18 -28h89l18 26q25 41 25 74q0 35 -23 55.5t-66 20.5q-41 0 -64.5 -21.5t-23.5 -54.5z" />
<glyph horiz-adv-x="636" d="M39 512q0 122 72 197t204 75q129 0 202 -73.5t73 -196.5v-268q0 -116 -76 -184t-201 -68q-81 0 -196 33l-64 18l29 152l65 -21q91 -26 154 -26q54 0 78 23.5t24 70.5v32q-61 -16 -110 -16q-254 0 -254 252zM225 520q0 -110 99 -110q29 0 79 12v92q0 119 -92 119 q-41 0 -63.5 -29.5t-22.5 -83.5z" />
<glyph horiz-adv-x="636" d="M59 289q0 117 53 191t144 95v138h152v-133q48 -6 94 -21l57 -16l-24 -146l-58 17q-77 24 -123 24q-114 0 -114 -149q0 -146 116 -146q52 0 119 21l62 18l22 -143l-57 -19q-35 -11 -94 -22v-133h-152v139q-92 21 -144.5 93t-52.5 192z" />
<glyph horiz-adv-x="636" d="M41 47l31 168l71 -25q93 -34 185 -34q36 0 60 17.5t24 51.5q0 53 -64 68l-106 24q-95 23 -148 79t-53 145q0 100 56 160.5t147 74.5v127h149v-127q56 -5 133 -28l72 -21l-33 -168l-73 25q-93 34 -177 34q-40 0 -63 -17.5t-23 -51.5q0 -53 62 -68l108 -24 q199 -51 199 -221q0 -101 -57 -162.5t-148 -75.5v-129h-149v127q-65 9 -133 29z" />
<glyph horiz-adv-x="636" d="M29 248v117h69v53h-69v117h69q10 124 86 187.5t197 63.5q71 0 164 -26l55 -17l-22 -149l-58 16q-70 25 -125 25q-104 0 -112 -100h194v-117h-196v-53h196v-117h-194q12 -105 112 -105q52 0 123 23l60 18l22 -147l-57 -19q-79 -26 -162 -26q-122 0 -198 65t-85 191h-69z " />
<glyph horiz-adv-x="473" d="M45 264v142h379v-142h-379z" />
<glyph horiz-adv-x="636" d="M51 252v139h182v201h160v-201h187v-139h-187v-199h-160v199h-182z" />
<glyph horiz-adv-x="636" d="M53 252v141h527v-141h-527z" />
<glyph horiz-adv-x="636" d="M51 160v133h529v-133h-529zM51 354v135h529v-135h-529z" />
<glyph horiz-adv-x="393" d="M41 356q0 105 19.5 183.5t49.5 123t74 71.5t84 35.5t88 8.5v-135q-135 -11 -135 -287q0 -77 10 -134t23.5 -86.5t34 -47.5t35 -22.5t32.5 -6.5v-135q-44 0 -83.5 9t-83.5 37t-75.5 74t-52 126t-20.5 186z" />
<glyph horiz-adv-x="393" d="M35 59q19 2 33.5 6.5t35.5 22.5t34.5 47.5t23.5 86.5t10 134q0 74 -10 128.5t-23.5 83.5t-34.5 46.5t-35.5 22t-33.5 6.5v135q49 0 89 -8.5t84 -35.5t73.5 -71.5t49 -123t19.5 -183.5q0 -106 -20.5 -186t-52 -126t-75.5 -74t-83.5 -37t-83.5 -9v135z" />
<glyph horiz-adv-x="284" d="M27 -41l49 211h184l-67 -248q-16 -57 -87 -57q-49 0 -68.5 26t-10.5 68z" />
<glyph horiz-adv-x="284" d="M43 84q0 43 25.5 68.5t72.5 25.5t74 -25.5t27 -68.5t-27 -68.5t-74 -25.5t-72.5 25.5t-25.5 68.5z" />
<glyph d="M61 360v148h134q-2 16 -2 55v45h-132v146h152q47 186 181 284.5t329 98.5q144 0 321 -54l97 -28l-37 -242l-92 29q-171 49 -256 49q-172 0 -230 -137h361v-146h-393v-45q0 -39 2 -55h391v-148h-357q64 -127 228 -127q80 0 254 50l92 26l37 -239l-97 -29 q-181 -55 -321 -55q-195 0 -328.5 94.5t-179.5 279.5h-154z" />
<glyph d="M98 485v547q0 243 131.5 375.5t376.5 132.5q248 0 377 -131.5t129 -376.5v-543q0 -245 -127.5 -377t-374.5 -132q-248 0 -380 131t-132 374zM401 487l336 762q-51 39 -131 39q-205 0 -205 -248v-553zM477 268q46 -37 129 -37q205 0 205 248v547z" />
<glyph d="M98 485v547q0 243 131.5 375.5t376.5 132.5q248 0 377 -131.5t129 -376.5v-543q0 -245 -127.5 -377t-374.5 -132q-248 0 -380 131t-132 374zM401 479q0 -248 205 -248t205 248v561q0 248 -205 248t-205 -248v-561z" />
<glyph d="M92 0v244h408v1026h-56q-53 0 -122 -12.5t-111 -38.5l-49 241q64 32 155 48t172 16h132q95 0 145.5 -48t50.5 -135v-1097h330v-244h-1055z" />
<glyph d="M82 150q0 87 55 139l457 426q113 106 159 180.5t46 173.5q0 106 -64.5 158.5t-175.5 52.5q-132 0 -328 -63l-98 -33l-41 250l103 32q216 72 405 72q111 0 201.5 -26.5t160 -80.5t108 -143.5t38.5 -208.5q0 -130 -62 -251t-210 -261l-361 -329h633v-238h-881 q-71 0 -108 40.5t-37 109.5z" />
<glyph d="M63 90l46 248l106 -33q214 -69 365 -69q124 0 187.5 49t63.5 137q0 87 -63 156l-66 71h-301v232h295l52 67q53 68 53 154q0 87 -58 133.5t-176 46.5q-132 0 -329 -65l-99 -31l-41 250l103 32q230 70 403 70q241 0 370.5 -101.5t129.5 -306.5q0 -151 -98 -276l-60 -80 l70 -72q64 -67 93.5 -135.5t29.5 -152.5q0 -207 -143.5 -317.5t-395.5 -110.5q-194 0 -430 71z" />
<glyph d="M41 401q0 64 45 134l545 884q67 119 209 119q96 0 144 -43.5t48 -134.5v-868h150v-240h-150v-252h-297v252h-549q-71 0 -108 41t-37 108zM371 492h364v589z" />
<glyph d="M86 86l45 246l105 -31q219 -65 337 -65q132 0 197.5 69.5t65.5 194.5q0 258 -265 258q-114 0 -288 -49l-127 -35v850h925v-258h-667v-303q124 36 237 36q240 0 365 -124.5t125 -372.5t-144 -382t-401 -134q-186 0 -403 67z" />
<glyph d="M90 510v541q0 223 144 354t382 131q171 0 392 -68l102 -32l-47 -250l-96 33q-209 61 -330 61q-242 0 -242 -227v-97q142 43 258 43q245 0 367.5 -124.5t122.5 -364.5q0 -114 -34.5 -208.5t-100 -164t-166.5 -108.5t-228 -39q-246 0 -385 141t-139 379zM395 510 q0 -131 57.5 -201.5t168.5 -70.5q103 0 158 67t55 189q0 123 -55 189.5t-183 66.5q-58 0 -201 -35v-205z" />
<glyph d="M98 1270v254h887q80 0 121 -41t41 -113q0 -58 -37 -149l-498 -1221h-338l537 1270h-713z" />
<glyph d="M66 408q0 87 28.5 156.5t91.5 135.5l68 72l-59 80q-91 120 -91 276q0 195 135 303.5t365 108.5q232 0 367 -108t135 -304q0 -157 -90 -276l-60 -80l68 -72q63 -66 92 -136t29 -156q0 -203 -142.5 -314.5t-394.5 -111.5t-397 112t-145 314zM365 414q0 -88 62.5 -140.5 t178.5 -52.5t178 51.5t62 141.5q0 87 -66 159l-63 72h-223l-64 -72q-65 -74 -65 -159zM391 1108q0 -81 58 -160l47 -69h219l49 69q55 80 55 160q0 83 -54.5 133.5t-158.5 50.5t-159.5 -50.5t-55.5 -133.5z" />
<glyph d="M68 1016q0 232 138 376t390 144q246 0 385 -141.5t139 -380.5v-539q0 -223 -143.5 -354t-382.5 -131q-177 0 -391 65l-103 33l47 250l99 -31q201 -64 327 -61q242 0 242 227v96q-127 -43 -256 -43q-491 0 -491 490zM377 1030q0 -124 55 -190t182 -66q61 0 201 35v205 q0 132 -57 203t-168 71q-102 0 -157.5 -68t-55.5 -190z" />
<glyph d="M115 563q0 234 105.5 377.5t291.5 181.5v267h244v-263q104 -13 211 -45l96 -28l-37 -240l-92 27q-159 49 -256 49q-262 0 -262 -326q0 -330 264 -330q85 0 254 52l92 26l37 -241l-96 -27q-108 -36 -211 -45v-268h-244v272q-187 35 -292 176.5t-105 384.5z" />
<glyph d="M80 90l51 281l119 -39q218 -76 385 -76q85 0 143 44t58 130q0 67 -37.5 107t-118.5 59l-223 53q-179 41 -277 146t-98 278q0 102 31.5 185t88 137.5t129 86.5t158.5 42v252h242v-252q126 -10 289 -64l119 -35l-52 -280l-118 41q-225 74 -381 74q-88 0 -143.5 -44 t-55.5 -129q0 -66 37.5 -106t116.5 -59l221 -54q379 -89 379 -422q0 -102 -32 -184t-89 -137t-130.5 -88.5t-160.5 -44.5v-256h-242v256q-143 11 -290 61z" />
<glyph d="M53 512v193h137v122h-137v193h142q12 249 158 384.5t378 135.5q141 0 322 -55l94 -29l-35 -242l-92 27q-162 49 -256 49q-252 0 -264 -270h403v-193h-409v-122h409v-193h-403q4 -140 72.5 -209.5t191.5 -69.5q78 0 256 50l92 26l35 -241l-94 -29q-174 -53 -322 -53 q-152 0 -269.5 58.5t-188.5 178.5t-78 289h-142z" />
<glyph d="M98 485v156q0 241 131.5 373.5t376.5 132.5q248 0 377 -131.5t129 -376.5v-150q0 -245 -127.5 -377t-374.5 -132q-248 0 -380 131t-132 374zM401 508q0 -137 47 -207t158 -70q205 0 205 248v142q0 136 -47 206t-158 70q-110 0 -157.5 -69.5t-47.5 -206.5v-113z" />
<glyph d="M92 0v244h408v628h-56q-52 0 -121.5 -13.5t-111.5 -39.5l-49 244q63 31 154.5 46t172.5 15h132q95 0 145.5 -47.5t50.5 -134.5v-698h330v-244h-1055z" />
<glyph d="M82 150q0 101 86 151l397 219q98 54 141.5 106.5t43.5 116.5q0 76 -52.5 115t-150.5 39q-137 0 -316 -59l-98 -31l-41 235l107 33q216 70 426 70q222 0 346.5 -91.5t124.5 -262.5q0 -232 -271 -385l-295 -168h578v-238h-881q-71 0 -108 40.5t-37 109.5z" />
<glyph d="M63 -270l46 247l106 -32q218 -70 365 -70q123 0 187 48t64 134q0 44 -14.5 78t-48.5 72l-63 67h-304v230h295l52 67q53 65 53 146q0 170 -234 170q-135 0 -329 -64l-99 -30l-41 249l103 33q230 70 407 70q239 0 367.5 -99.5t128.5 -302.5q0 -145 -98 -270l-60 -76l70 -69 q64 -68 93.5 -133t29.5 -148q0 -203 -142.5 -314.5t-392.5 -111.5q-181 0 -434 76z" />
<glyph d="M41 150q0 71 45 133l543 739q83 119 211 119q96 0 144 -43.5t48 -134.5v-725h150v-238h-150v-365h-297v365h-549q-71 0 -108 40.5t-37 109.5zM367 238h368v507z" />
<glyph d="M86 -279l45 246l105 -30q217 -68 337 -66q132 0 197.5 67t65.5 189q0 252 -265 252q-114 0 -288 -49l-127 -35v829h925v-254h-667v-288q134 34 237 34q490 0 490 -487q0 -246 -143.5 -378t-401.5 -132q-177 0 -403 70z" />
<glyph d="M90 510v541q0 223 144 354t382 131q171 0 392 -68l102 -32l-47 -250l-96 33q-209 61 -330 61q-242 0 -242 -227v-97q142 43 258 43q245 0 367.5 -124.5t122.5 -364.5q0 -114 -34.5 -208.5t-100 -164t-166.5 -108.5t-228 -39q-246 0 -385 141t-139 379zM395 510 q0 -131 57.5 -201.5t168.5 -70.5q103 0 158 67t55 189q0 123 -55 189.5t-183 66.5q-58 0 -201 -35v-205z" />
<glyph d="M98 870v254h887q80 0 121 -39.5t41 -111.5q0 -63 -37 -150l-498 -1188h-338l537 1235h-713z" />
<glyph d="M66 408q0 87 28.5 156.5t91.5 135.5l68 72l-59 80q-91 132 -91 276q0 195 135 303.5t365 108.5q232 0 367 -108t135 -304q0 -157 -90 -276l-60 -80l68 -72q63 -66 92 -136t29 -156q0 -203 -142.5 -314.5t-394.5 -111.5t-397 112t-145 314zM365 414q0 -88 62.5 -140.5 t178.5 -52.5t178 51.5t62 141.5q0 87 -66 159l-63 72h-223l-64 -72q-65 -74 -65 -159zM391 1108q0 -77 58 -160l47 -69h219l49 69q55 83 55 160q0 83 -54.5 133.5t-158.5 50.5t-159.5 -50.5t-55.5 -133.5z" />
<glyph d="M68 629q0 233 137.5 374.5t390.5 141.5q246 0 385 -139.5t139 -376.5v-529q0 -222 -143 -350.5t-383 -128.5q-167 0 -391 68l-103 32l47 246l99 -30q204 -65 327 -62q242 0 242 225v88q-138 -43 -256 -43q-491 0 -491 484zM377 643q0 -122 54.5 -186t182.5 -64 q53 0 201 37v199q0 130 -56.5 198t-168.5 68q-103 0 -158 -64.5t-55 -187.5z" />
<glyph d="M115 563q0 234 105.5 377.5t291.5 181.5v267h244v-263q104 -13 211 -45l96 -28l-37 -240l-92 27q-159 49 -256 49q-262 0 -262 -326q0 -330 264 -330q85 0 254 52l92 26l37 -241l-96 -27q-108 -36 -211 -45v-268h-244v272q-187 35 -292 176.5t-105 384.5z" />
<glyph d="M131 82l41 233l111 -36q220 -68 350 -68q71 0 115.5 28t44.5 89q0 91 -134 108l-204 33q-320 51 -320 315q0 152 97 241.5t255 107.5v256h244v-263q101 -10 242 -51l106 -33l-43 -233l-108 35q-214 69 -353 69q-70 0 -113.5 -28.5t-43.5 -87.5q0 -92 133 -111l205 -33 q319 -51 319 -311q0 -151 -94.5 -239.5t-249.5 -108.5v-262h-244v264q-111 11 -249 53z" />
<glyph d="M61 360v148h134q-2 16 -2 55v45h-132v146h152q47 186 181 284.5t329 98.5q144 0 321 -54l97 -28l-37 -242l-92 29q-171 49 -256 49q-172 0 -230 -137h361v-146h-393v-45q0 -39 2 -55h391v-148h-357q64 -127 228 -127q80 0 254 50l92 26l37 -239l-97 -29 q-181 -55 -321 -55q-195 0 -328.5 94.5t-179.5 279.5h-154z" />
<glyph d="M98 485v156q0 241 131.5 373.5t376.5 132.5q248 0 377 -131.5t129 -376.5v-150q0 -245 -127.5 -377t-374.5 -132q-248 0 -380 131t-132 374zM401 508q0 -86 17 -141l280 512q-38 18 -92 18q-110 0 -157.5 -69.5t-47.5 -206.5v-113zM520 246q38 -15 86 -15q205 0 205 248 v142q0 76 -14 131z" />
<glyph d="M98 485v156q0 241 131.5 373.5t376.5 132.5q248 0 377 -131.5t129 -376.5v-150q0 -245 -127.5 -377t-374.5 -132q-248 0 -380 131t-132 374zM401 508q0 -137 47 -207t158 -70q205 0 205 248v142q0 136 -47 206t-158 70q-110 0 -157.5 -69.5t-47.5 -206.5v-113z" />
<glyph d="M92 0v244h408v628h-56q-52 0 -121.5 -13.5t-111.5 -39.5l-49 244q63 31 154.5 46t172.5 15h132q95 0 145.5 -47.5t50.5 -134.5v-698h330v-244h-1055z" />
<glyph d="M82 150q0 101 86 151l397 219q98 54 141.5 106.5t43.5 116.5q0 76 -52.5 115t-150.5 39q-137 0 -316 -59l-98 -31l-41 235l107 33q216 70 426 70q222 0 346.5 -91.5t124.5 -262.5q0 -232 -271 -385l-295 -168h578v-238h-881q-71 0 -108 40.5t-37 109.5z" />
<glyph d="M63 -270l46 247l106 -32q218 -70 365 -70q123 0 187 48t64 134q0 44 -14.5 78t-48.5 72l-63 67h-304v230h295l52 67q53 65 53 146q0 170 -234 170q-135 0 -329 -64l-99 -30l-41 249l103 33q230 70 407 70q239 0 367.5 -99.5t128.5 -302.5q0 -145 -98 -270l-60 -76l70 -69 q64 -68 93.5 -133t29.5 -148q0 -203 -142.5 -314.5t-392.5 -111.5q-181 0 -434 76z" />
<glyph d="M41 150q0 71 45 133l543 739q83 119 211 119q96 0 144 -43.5t48 -134.5v-725h150v-238h-150v-365h-297v365h-549q-71 0 -108 40.5t-37 109.5zM367 238h368v507z" />
<glyph d="M86 -279l45 246l105 -30q217 -68 337 -66q132 0 197.5 67t65.5 189q0 252 -265 252q-114 0 -288 -49l-127 -35v829h925v-254h-667v-288q134 34 237 34q490 0 490 -487q0 -246 -143.5 -378t-401.5 -132q-177 0 -403 70z" />
<glyph d="M90 510v541q0 223 144 354t382 131q171 0 392 -68l102 -32l-47 -250l-96 33q-209 61 -330 61q-242 0 -242 -227v-97q142 43 258 43q245 0 367.5 -124.5t122.5 -364.5q0 -114 -34.5 -208.5t-100 -164t-166.5 -108.5t-228 -39q-246 0 -385 141t-139 379zM395 510 q0 -131 57.5 -201.5t168.5 -70.5q103 0 158 67t55 189q0 123 -55 189.5t-183 66.5q-58 0 -201 -35v-205z" />
<glyph d="M98 870v254h887q80 0 121 -39.5t41 -111.5q0 -63 -37 -150l-498 -1188h-338l537 1235h-713z" />
<glyph d="M66 408q0 87 28.5 156.5t91.5 135.5l68 72l-59 80q-91 132 -91 276q0 195 135 303.5t365 108.5q232 0 367 -108t135 -304q0 -157 -90 -276l-60 -80l68 -72q63 -66 92 -136t29 -156q0 -203 -142.5 -314.5t-394.5 -111.5t-397 112t-145 314zM365 414q0 -88 62.5 -140.5 t178.5 -52.5t178 51.5t62 141.5q0 87 -66 159l-63 72h-223l-64 -72q-65 -74 -65 -159zM391 1108q0 -77 58 -160l47 -69h219l49 69q55 83 55 160q0 83 -54.5 133.5t-158.5 50.5t-159.5 -50.5t-55.5 -133.5z" />
<glyph d="M68 629q0 233 137.5 374.5t390.5 141.5q246 0 385 -139.5t139 -376.5v-529q0 -222 -143 -350.5t-383 -128.5q-167 0 -391 68l-103 32l47 246l99 -30q204 -65 327 -62q242 0 242 225v88q-138 -43 -256 -43q-491 0 -491 484zM377 643q0 -122 54.5 -186t182.5 -64 q53 0 201 37v199q0 130 -56.5 198t-168.5 68q-103 0 -158 -64.5t-55 -187.5z" />
<glyph d="M115 563q0 234 105.5 377.5t291.5 181.5v267h244v-263q104 -13 211 -45l96 -28l-37 -240l-92 27q-159 49 -256 49q-262 0 -262 -326q0 -330 264 -330q85 0 254 52l92 26l37 -241l-96 -27q-108 -36 -211 -45v-268h-244v272q-187 35 -292 176.5t-105 384.5z" />
<glyph d="M131 82l41 233l111 -36q220 -68 350 -68q71 0 115.5 28t44.5 89q0 91 -134 108l-204 33q-320 51 -320 315q0 152 97 241.5t255 107.5v256h244v-263q101 -10 242 -51l106 -33l-43 -233l-108 35q-214 69 -353 69q-70 0 -113.5 -28.5t-43.5 -87.5q0 -92 133 -111l205 -33 q319 -51 319 -311q0 -151 -94.5 -239.5t-249.5 -108.5v-262h-244v264q-111 11 -249 53z" />
<glyph horiz-adv-x="636" d="M59 84q0 118 53 192t144 95v137h152v-133q48 -6 94 -21l57 -16l-24 -145l-58 16q-77 24 -123 24q-114 0 -114 -149q0 -145 116 -145q55 0 119 20l62 18l22 -143l-57 -18q-44 -13 -94 -23v-133h-152v139q-92 21 -144.5 93t-52.5 192z" />
<glyph horiz-adv-x="636" d="M41 -158l31 168l71 -24q96 -35 185 -35q36 0 60 17.5t24 51.5q0 53 -64 68l-106 25q-95 23 -148 78.5t-53 144.5q0 100 56 160.5t147 74.5v127h149v-127q56 -5 133 -28l72 -21l-33 -168l-73 25q-96 35 -177 35q-40 0 -63 -18t-23 -52q0 -53 62 -68l108 -24 q199 -51 199 -221q0 -101 -57 -162.5t-148 -75.5v-129h-149v127q-65 9 -133 29z" />
<glyph horiz-adv-x="636" d="M29 43v117h69v53h-69v117h69q10 124 86 188t197 64q68 0 164 -27l55 -16l-22 -150l-58 17q-67 24 -125 24q-104 0 -112 -100h194v-117h-196v-53h196v-117h-194q12 -104 112 -104q55 0 123 22l60 19l22 -148l-57 -18q-82 -27 -162 -27q-122 0 -198 65t-85 191h-69z" />
<glyph horiz-adv-x="473" d="M45 59v142h379v-142h-379z" />
<glyph horiz-adv-x="636" d="M51 47v139h182v201h160v-201h187v-139h-187v-199h-160v199h-182z" />
<glyph horiz-adv-x="636" d="M53 47v141h527v-141h-527z" />
<glyph horiz-adv-x="636" d="M51 -45v133h529v-133h-529zM51 150v135h529v-135h-529z" />
<glyph horiz-adv-x="284" d="M27 -246l49 211h184l-67 -248q-16 -57 -87 -57q-49 0 -68.5 26t-10.5 68z" />
<glyph horiz-adv-x="284" d="M43 -121q0 43 25.5 68.5t72.5 25.5t74 -25.5t27 -68.5t-27 -68.5t-74 -25.5t-72.5 25.5t-25.5 68.5z" />
<glyph horiz-adv-x="636" d="M51 45v272q0 127 69 196t197 69q129 0 197 -69t68 -196v-268q0 -127 -67.5 -195.5t-195.5 -68.5q-130 0 -199 68t-69 192zM236 74l129 340q-21 14 -48 14q-81 0 -81 -106v-248zM276 -53q17 -10 41 -10q82 0 82 108v231z" />
<glyph horiz-adv-x="636" d="M51 250v272q0 126 68.5 195t197.5 69q130 0 197.5 -68.5t67.5 -195.5v-268q0 -127 -67.5 -195.5t-195.5 -68.5q-130 0 -199 68t-69 192zM236 276l129 342q-23 15 -48 15q-81 0 -81 -107v-250zM276 150q18 -9 41 -9q82 0 82 109v229z" />
<glyph horiz-adv-x="636" d="M51 997v273q0 126 68.5 195t197.5 69q130 0 197.5 -68.5t67.5 -195.5v-269q0 -127 -67.5 -195.5t-195.5 -68.5q-130 0 -199 68t-69 192zM236 997q0 -108 81 -108q82 0 82 108v277q0 106 -82 106q-81 0 -81 -106v-277z" />
<glyph horiz-adv-x="636" d="M45 748v147h203v475h-19q-67 0 -120 -31l-33 148q75 37 180 37h70q54 0 83 -27.5t29 -77.5v-524h162v-147h-555z" />
<glyph horiz-adv-x="636" d="M43 836q0 48 33 77l225 209q53 51 73.5 84t20.5 80q0 92 -104 92q-68 0 -156 -30l-61 -23l-27 150l62 22q107 35 204 35q122 0 194.5 -59t72.5 -181q0 -67 -32 -129.5t-108 -132.5l-147 -137h289v-145h-451q-43 0 -65.5 23.5t-22.5 64.5z" />
<glyph horiz-adv-x="636" d="M33 795l28 151l64 -20q107 -35 178 -35q53 0 81 21.5t28 58.5q0 38 -29 67l-25 29h-157v139h153l19 29q24 27 24 65q0 78 -100 78q-76 0 -158 -30l-63 -21l-25 150l62 20q103 35 204 35q127 0 195 -53.5t68 -161.5q0 -78 -52 -143l-22 -31l24 -27q68 -68 68 -151 q0 -109 -76 -167.5t-207 -58.5q-104 0 -217 37z" />
<glyph horiz-adv-x="636" d="M23 958q0 34 24 74l264 434q40 66 121 66q111 0 111 -102v-414h73v-144h-73v-124h-181v124h-251q-43 0 -65.5 23t-22.5 63zM229 1016h133v225z" />
<glyph horiz-adv-x="636" d="M39 797l29 147l65 -20q109 -33 162 -33q57 0 86 31t29 86q0 112 -115 112q-43 0 -141 -24l-76 -23v451h487v-156h-329v-115q45 13 102 13q125 0 190.5 -65t65.5 -193q0 -130 -75.5 -199.5t-211.5 -69.5q-110 0 -205 35z" />
<glyph horiz-adv-x="636" d="M49 1012v268q0 116 76 184t201 68q80 0 196 -33l64 -20l-29 -150l-65 21q-87 26 -154 26q-105 0 -105 -96v-31q71 17 113 17q254 0 254 -254q0 -121 -72 -196t-204 -75q-129 0 -202 73.5t-73 197.5zM233 1012q0 -57 24 -88t69 -31q43 0 66.5 29t23.5 84q0 108 -101 108 q-32 0 -82 -12v-90z" />
<glyph horiz-adv-x="636" d="M51 1370v154h453q46 0 71 -24.5t25 -65.5q0 -31 -18 -80l-250 -606h-201l264 622h-344z" />
<glyph horiz-adv-x="636" d="M39 963q0 87 63 153l25 27l-23 28q-47 62 -47 148q0 102 70.5 158.5t191.5 56.5t192 -56.5t71 -158.5q0 -86 -47 -148l-23 -28l25 -27q65 -71 65 -153q0 -107 -74.5 -165.5t-205.5 -58.5q-132 0 -207.5 59t-75.5 165zM219 965q0 -36 26 -58t74 -22t74.5 22t26.5 58 t-29 69l-24 31h-95l-26 -31q-27 -34 -27 -69zM231 1307q0 -33 27 -72l18 -29h89l18 27q25 41 25 74q0 35 -23 55t-66 20q-42 0 -65 -21t-23 -54z" />
<glyph horiz-adv-x="636" d="M39 1260q0 122 72 197t204 75q129 0 202 -73.5t73 -196.5v-269q0 -116 -76 -184t-201 -68q-81 0 -196 33l-64 19l29 151l65 -20q95 -27 154 -27q54 0 78 23.5t24 70.5v33q-61 -16 -110 -16q-254 0 -254 252zM225 1268q0 -111 99 -111q29 0 79 12v93q0 118 -92 118 q-41 0 -63.5 -29t-22.5 -83z" />
<glyph horiz-adv-x="636" d="M59 1036q0 118 53 192t144 95v137h152v-133q53 -7 94 -20l57 -17l-24 -145l-58 16q-80 25 -123 25q-114 0 -114 -150q0 -145 116 -145q55 0 119 20l62 19l22 -144l-57 -18q-44 -13 -94 -23v-133h-152v140q-92 21 -144.5 92.5t-52.5 191.5z" />
<glyph horiz-adv-x="636" d="M41 795l31 168l71 -25q96 -35 185 -35q36 0 60 18t24 52q0 52 -64 67l-106 25q-95 23 -148 78.5t-53 144.5q0 100 56 161t147 75v127h149v-127q51 -5 133 -29l72 -20l-33 -168l-73 24q-96 35 -177 35q-40 0 -63 -18t-23 -52q0 -52 62 -67l108 -25q199 -51 199 -221 q0 -101 -57 -162.5t-148 -75.5v-129h-149v127q-65 9 -133 29z" />
<glyph horiz-adv-x="636" d="M29 995v117h69v53h-69v117h69q10 124 86 188t197 64q68 0 164 -27l55 -16l-22 -150l-58 17q-67 24 -125 24q-104 0 -112 -100h194v-117h-196v-53h196v-117h-194q12 -104 112 -104q55 0 123 22l60 19l22 -148l-57 -18q-82 -27 -162 -27q-122 0 -198 65t-85 191h-69z" />
<glyph horiz-adv-x="473" d="M45 1012v141h379v-141h-379z" />
<glyph horiz-adv-x="636" d="M51 999v140h182v200h160v-200h187v-140h-187v-198h-160v198h-182z" />
<glyph horiz-adv-x="636" d="M53 999v142h527v-142h-527z" />
<glyph horiz-adv-x="636" d="M51 907v133h529v-133h-529zM51 1102v135h529v-135h-529z" />
<glyph horiz-adv-x="393" d="M41 1104q0 105 19.5 183.5t49.5 123t74 71.5t84 35.5t88 8.5v-135q-135 -11 -135 -287q0 -77 10 -134t23.5 -86.5t34 -47.5t35 -22.5t32.5 -6.5v-135q-44 0 -83.5 9t-83.5 37t-75.5 74t-52 126t-20.5 186z" />
<glyph horiz-adv-x="393" d="M35 672v135q19 2 33.5 6.5t35.5 22.5t34.5 47.5t23.5 86.5t10 134q0 74 -10 128.5t-23.5 83.5t-34.5 46.5t-35.5 22t-33.5 6.5v135q49 0 89 -8.5t84 -35.5t73.5 -71.5t49 -123t19.5 -183.5q0 -106 -20.5 -186t-52 -126t-75.5 -74t-83.5 -37t-83.5 -9z" />
<glyph horiz-adv-x="284" d="M27 707l49 211h184l-67 -248q-17 -58 -87 -58q-49 0 -68.5 26.5t-10.5 68.5z" />
<glyph horiz-adv-x="284" d="M43 831q0 43 25.5 69t72.5 26t74 -26t27 -69t-27 -68.5t-74 -25.5t-72.5 25.5t-25.5 68.5z" />
<glyph horiz-adv-x="636" d="M51 997v273q0 126 68.5 195t197.5 69q130 0 197.5 -68.5t67.5 -195.5v-269q0 -127 -67.5 -195.5t-195.5 -68.5q-130 0 -199 68t-69 192zM236 1022l129 344q-21 14 -48 14q-81 0 -81 -106v-252zM276 897q16 -8 41 -8q82 0 82 108v228z" />
<glyph horiz-adv-x="636" d="M59 1237q0 118 53 192t144 95v137h152v-133q48 -6 94 -21l57 -16l-24 -145l-58 16q-77 24 -123 24q-114 0 -114 -149q0 -145 116 -145q55 0 119 20l62 18l22 -143l-57 -18q-44 -13 -94 -23v-133h-152v139q-92 21 -144.5 93t-52.5 192z" />
<glyph horiz-adv-x="636" d="M41 995l31 168l71 -24q96 -35 185 -35q36 0 60 18t24 52q0 52 -64 67l-106 25q-95 23 -148 78.5t-53 144.5q0 100 56 160.5t147 74.5v127h149v-127q56 -5 133 -28l72 -21l-33 -168l-73 25q-96 35 -177 35q-40 0 -63 -18t-23 -52q0 -52 62 -67l108 -25q199 -51 199 -221 q0 -101 -57 -162.5t-148 -75.5v-129h-149v127q-65 9 -133 29z" />
<glyph horiz-adv-x="636" d="M29 1196v117h69v53h-69v117h69q10 124 86 188t197 64q68 0 164 -27l55 -16l-22 -150l-58 17q-67 24 -125 24q-104 0 -112 -100h194v-117h-196v-53h196v-117h-194q12 -104 112 -104q55 0 123 22l60 19l22 -148l-57 -18q-82 -27 -162 -27q-122 0 -198 65t-85 191h-69z" />
<glyph horiz-adv-x="473" d="M45 1212v142h379v-142h-379z" />
<glyph horiz-adv-x="284" d="M27 907l49 211h184l-67 -248q-16 -57 -87 -57q-49 0 -68.5 26t-10.5 68z" />
<glyph horiz-adv-x="284" d="M43 1032q0 43 25.5 68.5t72.5 25.5t74 -25.5t27 -68.5t-27 -68.5t-74 -25.5t-72.5 25.5t-25.5 68.5z" />
<glyph horiz-adv-x="636" d="M51 1198v272q0 127 69 196t197 69q129 0 197 -69t68 -196v-268q0 -127 -67.5 -195.5t-195.5 -68.5q-130 0 -199 68t-69 192zM236 1225l129 342q-21 14 -48 14q-81 0 -81 -106v-250zM276 1098q16 -8 41 -8q82 0 82 108v229z" />
<glyph horiz-adv-x="1099" d="M352 1688q0 48 43 77l144 103h372l-342 -223q-59 -39 -116 -39q-49 0 -75 24.5t-26 57.5z" />
<glyph horiz-adv-x="1087" d="M188 1874h244q0 -51 37.5 -81t101.5 -30q63 0 101.5 30t38.5 81h241q0 -123 -109.5 -195.5t-271.5 -72.5q-164 0 -273.5 72t-109.5 196z" />
<glyph horiz-adv-x="1087" d="M170 1868h303l105 -99l100 99h301l-246 -211q-58 -51 -155 -51q-98 0 -158 51z" />
<glyph horiz-adv-x="1087" d="M172 1612l248 209q58 51 155 51q98 0 158 -51l248 -209h-301l-105 96l-100 -96h-303z" />
<glyph horiz-adv-x="1134" d="M227 1747q0 63 41.5 101t112.5 38q70 0 110.5 -38t40.5 -101q0 -65 -40.5 -103t-110.5 -38q-72 0 -113 38t-41 103zM643 1747q0 63 41.5 101t112.5 38t111 -37.5t40 -101.5q0 -65 -40 -103t-111 -38q-72 0 -113 38t-41 103z" />
<glyph horiz-adv-x="1087" d="M381 1749q0 63 44 101t120 38t119 -37.5t43 -101.5q0 -66 -43 -104.5t-119 -38.5t-120 38.5t-44 104.5z" />
<glyph horiz-adv-x="1099" d="M264 1868h373l143 -103q43 -31 43 -77q0 -32 -26 -57t-74 -25q-60 0 -119 39z" />
<glyph horiz-adv-x="1087" d="M160 1683q0 42 30 66l146 119h303l-268 -221q-47 -41 -117 -41q-44 0 -69 22.5t-25 54.5zM571 1681q0 39 31 66l143 121h310l-275 -223q-44 -41 -114 -41q-45 0 -70 22t-25 55z" />
<glyph horiz-adv-x="1087" d="M188 1626v193h711v-193h-711z" />
<glyph horiz-adv-x="1087" d="M324 1808q0 91 68.5 147t176.5 56q109 0 178.5 -56t69.5 -147t-70.5 -148.5t-177.5 -57.5t-176 57.5t-69 148.5zM469 1808q0 -40 28 -64t72 -24q45 0 74 24.5t29 63.5q0 36 -29 60t-74 24q-44 0 -72 -24t-28 -60z" />
<glyph horiz-adv-x="1087" d="M121 1690q45 103 118.5 150.5t159.5 47.5q94 0 162 -43l72 -41q33 -20 78 -20q37 0 65 22.5t55 77.5l150 -80q-45 -103 -118 -150.5t-161 -47.5q-85 0 -161 43l-70 41q-39 22 -80 22q-37 0 -65.5 -23t-55.5 -79z" />
<glyph horiz-adv-x="1110" d="M332 1335q0 49 41 90l151 138h377l-344 -275q-57 -47 -121 -47q-49 0 -76.5 28.5t-27.5 65.5z" />
<glyph horiz-adv-x="1087" d="M147 1563h256q0 -69 37.5 -104.5t102.5 -35.5q66 0 103.5 35.5t37.5 104.5h254q0 -148 -112 -235t-283 -87t-283.5 87t-112.5 235z" />
<glyph horiz-adv-x="1087" d="M158 1565h309l111 -135l106 135h309l-256 -258q-57 -60 -159 -60q-106 0 -160 60z" />
<glyph horiz-adv-x="1087" d="M324 -360l36 116q85 -39 164 -39q68 0 68 45q0 33 -41 44t-129 8l-19 26l84 160h119l-43 -88q81 0 131.5 -36.5t50.5 -108.5q0 -81 -58.5 -128t-162.5 -47q-96 0 -200 48z" />
<glyph horiz-adv-x="1087" d="M160 1253l256 256q64 60 159 60q100 0 160 -60l260 -256h-309l-111 133l-106 -133h-309z" />
<glyph horiz-adv-x="1097" d="M393 -281l49 191h285l-74 -248q-29 -98 -135 -98q-76 0 -109.5 45t-15.5 110z" />
<glyph horiz-adv-x="1171" d="M215 1430q0 68 42.5 107.5t117.5 39.5q73 0 114 -39.5t41 -107.5q0 -67 -41 -106.5t-114 -39.5q-74 0 -117 39.5t-43 106.5zM645 1430q0 68 42.5 107.5t115.5 39.5t115.5 -39.5t42.5 -107.5q0 -66 -42.5 -106t-115.5 -40t-115.5 40t-42.5 106z" />
<glyph horiz-adv-x="1087" d="M375 1430q0 68 45.5 107.5t124.5 39.5q78 0 123 -39.5t45 -107.5q0 -66 -45 -106t-123 -40q-79 0 -124.5 39.5t-45.5 106.5z" />
<glyph horiz-adv-x="1110" d="M270 1563h379l150 -140q43 -41 43 -90q0 -37 -28 -65.5t-79 -28.5q-64 0 -121 47z" />
<glyph horiz-adv-x="1087" d="M113 1331q0 42 32 80l150 152h311l-272 -273q-48 -51 -121 -51q-47 0 -73.5 27t-26.5 65zM535 1325q0 43 34 80l150 158h317l-280 -281q-51 -51 -119 -51q-48 0 -75 27.5t-27 66.5z" />
<glyph horiz-adv-x="1087" d="M176 1290v221h733v-221h-733z" />
<glyph horiz-adv-x="1087" d="M293 -180q0 114 115 180l145 16l8 -16q-90 -55 -90 -127t92 -72q91 0 197 43l35 -141q-126 -53 -252 -53q-111 0 -180.5 43.5t-69.5 126.5z" />
<glyph horiz-adv-x="1087" d="M307 1481q0 108 75.5 174.5t186.5 66.5t188 -67t77 -174q0 -106 -78 -175t-187 -69q-108 0 -185 69t-77 175zM461 1481q0 -46 30.5 -74.5t77.5 -28.5q48 0 79.5 29t31.5 74q0 43 -31 71.5t-80 28.5t-78.5 -28.5t-29.5 -71.5z" />
<glyph horiz-adv-x="1087" d="M94 1333q47 126 125.5 184t171.5 58q95 0 168 -53l72 -52q42 -30 82 -30q38 0 69.5 29.5t59.5 97.5l151 -84q-47 -125 -126 -183.5t-171 -58.5q-95 0 -168 53l-71 52q-42 30 -82 30q-39 0 -70.5 -28t-60.5 -97z" />
<glyph horiz-adv-x="1257" d="M39 0l387 1053q47 131 211 131q166 0 211 -129l371 -1055h-316l-67 205h-414l-70 -205h-313zM485 428h289l-141 430z" />
<glyph horiz-adv-x="1218" d="M125 152v868q0 72 43 111.5t125 39.5h420q180 0 275 -77t95 -232q0 -120 -79 -215l-39 -47l47 -45q112 -100 112 -238q0 -151 -104 -234t-301 -83h-426q-81 0 -124.5 40.5t-43.5 111.5zM428 217h256q68 0 104.5 30t36.5 79q0 53 -45 98l-57 59h-295v-266zM428 694h289 l39 56q35 44 35 100q0 49 -30 78.5t-91 29.5h-242v-264z" />
<glyph horiz-adv-x="1202" d="M94 586q0 146 43 260t121 186.5t183.5 110t232.5 37.5q157 0 338 -56l106 -30l-41 -246l-114 37q-145 43 -258 43q-140 0 -215.5 -84.5t-75.5 -257.5q0 -342 291 -342q116 0 258 45l114 33l41 -246l-108 -33q-178 -53 -338 -53q-129 0 -234 37t-182 109.5t-119.5 187 t-42.5 262.5z" />
<glyph horiz-adv-x="1284" d="M125 152v866q0 72 43 112.5t123 40.5h315q269 0 426.5 -155.5t157.5 -431.5t-160 -430t-428 -154h-311q-81 0 -123.5 40t-42.5 112zM434 233h164q136 0 210.5 91t74.5 260q0 166 -78 261t-217 95h-154v-707z" />
<glyph horiz-adv-x="1110" d="M125 152v866q0 72 43 112.5t123 40.5h717v-227h-574v-235h502v-222h-502v-260h576v-227h-719q-81 0 -123.5 40t-42.5 112z" />
<glyph horiz-adv-x="1077" d="M125 0v1018q0 72 43 112.5t123 40.5h700v-229h-555v-262h506v-221h-506v-459h-311z" />
<glyph horiz-adv-x="1277" d="M94 586q0 192 77.5 327.5t211.5 201t311 65.5q161 0 355 -56l112 -32l-43 -246l-119 33q-168 49 -280 49q-152 0 -235 -88t-83 -260q0 -181 83.5 -272t238.5 -91q87 0 160 12v189h-242v217h363q80 0 123.5 -41.5t43.5 -112.5v-235q0 -57 -10 -96q-10 -46 -59.5 -79.5 t-122.5 -50t-143 -23.5t-142 -7q-276 0 -438 152.5t-162 443.5z" />
<glyph horiz-adv-x="1261" d="M125 0v1171h309v-462h393v462h312v-1171h-312v481h-393v-481h-309z" />
<glyph horiz-adv-x="557" d="M125 0v1171h313v-1171h-313z" />
<glyph horiz-adv-x="825" d="M57 41l35 233q139 -34 189 -34q61 0 87.5 29.5t26.5 95.5v806h310v-827q0 -168 -99 -257t-276 -89q-125 0 -273 43z" />
<glyph horiz-adv-x="1224" d="M125 0v1171h305v-481l391 481h357l-351 -417q99 -214 340 -754h-327l-238 520l-86 -98q-45 -52 -65.5 -93.5t-20.5 -101.5v-227h-305z" />
<glyph horiz-adv-x="1054" d="M125 152v1019h313v-925h533v-246h-680q-81 0 -123.5 40t-42.5 112z" />
<glyph horiz-adv-x="1538" d="M125 0v1004q0 87 58 132.5t159 45.5t157 -40.5t79 -117.5l194 -586l205 588q44 156 231 156q96 0 150.5 -45t54.5 -131v-1006h-274v731l-215 -633q-35 -106 -160 -106q-133 0 -162 106l-211 635v-733h-266z" />
<glyph horiz-adv-x="1388" d="M94 586q0 279 164.5 436.5t437.5 157.5q275 0 436.5 -156.5t161.5 -437.5q0 -285 -163.5 -440.5t-440.5 -155.5q-274 0 -435 157t-161 439zM406 586q0 -180 76.5 -277.5t213.5 -97.5t212 96.5t75 278.5q0 175 -77.5 272.5t-215.5 97.5q-137 0 -210.5 -97t-73.5 -273z" />
<glyph horiz-adv-x="1157" d="M125 0v1018q0 72 43 112.5t123 40.5h371q185 0 295 -103.5t110 -281.5t-115 -281.5t-309 -103.5h-213v-401h-305zM430 627h191q76 0 118.5 41.5t42.5 117.5t-42 119t-113 43h-197v-321z" />
<glyph horiz-adv-x="1386" d="M94 584q0 279 164.5 437.5t437.5 158.5q274 0 435 -156t161 -436q0 -161 -65.5 -279t-177.5 -182q77 -25 161 -25h68v-221h-88q-137 0 -281 68q-45 18 -66 25.5t-62.5 16.5t-80.5 9q-180 0 -314.5 64t-213 197t-78.5 323zM406 586q0 -180 76 -274.5t214 -94.5t212.5 94 t74.5 275q0 175 -77.5 272.5t-215.5 97.5q-137 0 -210.5 -97t-73.5 -273z" />
<glyph horiz-adv-x="1212" d="M125 0v1020q0 71 42.5 111t123.5 40h418q186 0 288.5 -90t102.5 -256q0 -138 -107 -254l-59 -69l233 -502h-325l-187 416h-223v-416h-307zM432 635h270l48 57q53 64 53 127q0 61 -34 96t-105 35h-232v-315z" />
<glyph horiz-adv-x="1144" d="M94 82l51 250l121 -39q194 -66 336 -66q65 0 108.5 28t43.5 85q0 40 -29.5 68.5t-87.5 40.5l-209 40q-162 31 -245 112.5t-83 221.5q0 120 60 202t157.5 118.5t225.5 36.5q191 0 389 -60l119 -35l-54 -254l-120 41q-197 68 -330 68q-68 0 -109 -28.5t-41 -84.5 q0 -87 117 -110l207 -39q163 -32 245.5 -111.5t82.5 -220.5q0 -90 -34.5 -160t-95.5 -113t-140.5 -65t-172.5 -22q-208 0 -393 59z" />
<glyph horiz-adv-x="1146" d="M76 938v233h993v-233h-340v-938h-311v938h-342z" />
<glyph horiz-adv-x="1277" d="M119 434v737h309v-735q0 -207 209 -207t209 207v735h311v-737q0 -215 -134.5 -336t-385.5 -121q-250 0 -384 120.5t-134 336.5z" />
<glyph horiz-adv-x="1232" d="M39 1171h317l258 -833l265 833h313l-377 -1056q-44 -125 -207 -125q-159 0 -200 125z" />
<glyph horiz-adv-x="1646" d="M55 1171h295l127 -790l193 688q12 47 54.5 74.5t104.5 27.5q132 0 156 -102l189 -690l129 792h288l-209 -1046q-25 -139 -190 -139t-199 129l-170 606l-176 -606q-37 -129 -196 -129q-82 0 -130.5 36t-60.5 103z" />
<glyph horiz-adv-x="1282" d="M57 0l396 590l-385 581h348l229 -368l223 368h344l-376 -575l387 -596h-349l-233 389l-238 -389h-346z" />
<glyph horiz-adv-x="1265" d="M35 1171h346l258 -426l248 426h342l-438 -688v-483h-312v479z" />
<glyph horiz-adv-x="1171" d="M94 141q0 68 47 121l543 682h-561v227h803q73 0 110 -38t37 -103t-47 -121l-539 -680h582v-229h-829q-72 0 -109 38t-37 103z" />
<glyph horiz-adv-x="1298" d="M100 313q0 114 55 185t152 120q-104 110 -104 250q0 149 101 231.5t265 82.5t261.5 -76t97.5 -215q0 -67 -20 -120.5t-59 -92t-79 -64.5t-96 -51l198 -203q70 103 70 232v131h238v-135q0 -235 -144 -395l189 -193h-326l-51 53q-147 -69 -328 -69q-203 0 -311.5 92 t-108.5 237zM371 319q0 -58 41 -96.5t120 -38.5q84 0 160 31l-235 246q-86 -59 -86 -142zM446 868q0 -39 19.5 -74t62.5 -83q76 34 116 72t40 96q0 48 -28 77t-83 29q-64 0 -95.5 -31t-31.5 -86z" />
<glyph horiz-adv-x="1548" d="M137 551q0 135 51 254t140 202.5t213 132t266 48.5q270 0 439 -147.5t169 -385.5q0 -91 -30 -169.5t-79.5 -130.5t-114 -81.5t-132.5 -29.5q-38 0 -85.5 14t-66.5 14q-28 0 -90.5 -11t-109.5 -11q-140 0 -211.5 75.5t-71.5 200.5q0 92 40 170.5t123.5 129.5t194.5 51 q36 0 115 -9l4 43h182l-71 -516q27 -16 55 -16q67 0 116.5 71.5t49.5 192.5q0 176 -112.5 277.5t-313.5 101.5q-218 0 -350.5 -132.5t-132.5 -338.5q0 -186 105.5 -298t299.5 -112q67 0 185 29t180 29t112 -27l103 -57l-66 -138l-102 46q-23 10 -58 10q-37 0 -150 -26.5 t-212 -26.5q-180 0 -314 76.5t-202 205t-68 289.5zM616 522q0 -59 27 -93t82 -34q22 0 106 15l43 313q-54 8 -94 8q-80 0 -122 -59.5t-42 -149.5z" />
<glyph horiz-adv-x="1054" d="M113 379v409q0 189 107.5 292.5t307.5 103.5q202 0 308 -102t106 -291v-408q0 -191 -104.5 -294t-305.5 -103q-202 0 -310.5 102.5t-108.5 290.5zM383 375q0 -172 147 -172q144 0 144 172v420q0 170 -144 170q-147 0 -147 -170v-420z" />
<glyph horiz-adv-x="1054" d="M109 0v213h321v737h-35q-40 0 -93.5 -11t-94.5 -36l-47 213q115 55 276 55h105q82 0 127 -40.5t45 -112.5v-805h258v-213h-862z" />
<glyph horiz-adv-x="1054" d="M98 129q0 69 52 115l360 319q83 73 119.5 128.5t36.5 123.5q0 72 -46.5 106.5t-127.5 34.5q-114 0 -254 -45l-93 -30l-41 219l95 30q174 52 323 52q190 0 304 -88.5t114 -268.5q0 -207 -219 -397l-252 -219h473v-209h-713q-64 0 -97.5 34.5t-33.5 94.5z" />
<glyph horiz-adv-x="1054" d="M82 72l41 217l102 -31q170 -51 281 -51q91 0 137.5 33t46.5 92q0 58 -45 106l-47 47h-246v205h240l39 49q35 44 35 103q0 116 -168 116q-97 0 -256 -47l-92 -28l-39 219l92 28q172 52 323 52q410 0 410 -318q0 -131 -84 -221l-37 -45l47 -45q103 -94 103 -227 q0 -162 -118 -249t-323 -87q-158 0 -344 53z" />
<glyph horiz-adv-x="1054" d="M68 315q0 48 36 109l431 663q59 95 178 95q166 0 166 -150v-633h118v-209h-118v-190h-258v190h-422q-64 0 -97.5 34t-33.5 91zM362 399h259v389z" />
<glyph horiz-adv-x="1054" d="M102 70l41 215l97 -29q168 -47 262 -47q96 0 144 47.5t48 132.5q0 178 -192 178q-82 0 -223 -37l-119 -32v673h758v-225h-525v-188q92 20 170 20q197 0 299.5 -97t102.5 -292q0 -192 -117 -295.5t-328 -103.5q-159 0 -321 49z" />
<glyph horiz-adv-x="1054" d="M106 391v406q0 177 115.5 280t310.5 103q147 0 318 -50l94 -28l-45 -219l-92 28q-136 47 -254 47q-174 0 -174 -155v-51q95 26 186 26q201 0 301.5 -97t100.5 -284q0 -182 -112.5 -293.5t-317.5 -111.5q-202 0 -316.5 107.5t-114.5 291.5zM379 397q0 -90 40.5 -139 t119.5 -49q74 0 113.5 46.5t39.5 129.5q0 84 -39 130t-131 46q-45 0 -143 -20v-144z" />
<glyph horiz-adv-x="1054" d="M111 950v221h716q142 0 142 -129q0 -46 -31 -118l-397 -924h-297l422 950h-555z" />
<glyph horiz-adv-x="1054" d="M88 319q0 120 98 232l43 45l-34 47q-78 101 -78 217q0 155 110.5 239.5t300.5 84.5t300 -84.5t110 -239.5q0 -123 -74 -215l-39 -49l45 -45q99 -99 99 -232q0 -158 -116 -244.5t-321 -86.5q-207 0 -325.5 86.5t-118.5 244.5zM352 326q0 -58 47 -93.5t131 -35.5 q83 0 127.5 35t44.5 94q0 55 -47 108l-45 49h-164l-45 -49q-49 -49 -49 -108zM375 844q0 -49 39 -109l35 -45h157l35 45q41 54 41 109q0 56 -40 89.5t-114 33.5q-75 0 -114 -33.5t-39 -89.5z" />
<glyph horiz-adv-x="1054" d="M90 776q0 181 113 292.5t319 111.5q202 0 314 -107t112 -293v-403q0 -178 -114 -282.5t-310 -104.5q-143 0 -317 51h2l-96 29l43 219l94 -27q162 -50 254 -47q174 0 174 156v47q-118 -25 -186 -25q-201 0 -301.5 97.5t-100.5 285.5zM365 786q0 -174 172 -174q47 0 141 23 v139q0 90 -40.5 139.5t-119.5 49.5q-74 0 -113.5 -46.5t-39.5 -130.5z" />
<glyph horiz-adv-x="1054" d="M92 70l47 243l111 -34q181 -56 301 -56q59 0 99 28.5t40 86.5q0 85 -110 108l-174 41q-144 32 -226 115t-82 217q0 152 89 242t233 110v199h221v-199q87 -5 217 -45l107 -32l-47 -242l-111 37q-161 53 -295 53q-62 0 -101.5 -29.5t-39.5 -85.5q0 -84 110 -108l174 -39 q308 -70 308 -330q0 -151 -90 -241.5t-232 -112.5v-205h-221v203q-85 7 -219 47z" />
<glyph horiz-adv-x="1054" d="M78 381v170h108v74h-108v170h115q12 187 129 289t301 102q128 0 262 -39l88 -27l-33 -215l-88 27q-133 35 -207 35q-177 0 -180 -172h313v-170h-321v-74h321v-170h-315q3 -174 188 -174q71 0 201 35l88 26l33 -213l-88 -26q-141 -41 -262 -41q-184 0 -302 103t-128 290 h-115z" />
<glyph horiz-adv-x="503" d="M86 137q0 73 44.5 115.5t123.5 42.5q78 0 123 -43t45 -115t-45 -114.5t-123 -42.5q-79 0 -123.5 42t-44.5 115zM106 399v772h293v-720z" />
<glyph horiz-adv-x="503" d="M86 1034q0 71 44.5 113.5t123.5 42.5q78 0 123 -42.5t45 -113.5q0 -72 -45 -114.5t-123 -42.5q-79 0 -123.5 42t-44.5 115zM109 0v719l292 51v-770h-292z" />
<glyph horiz-adv-x="903" d="M66 1110l88 25q148 43 317 43q171 0 268 -76.5t97 -204.5q0 -99 -40.5 -169.5t-131.5 -133.5l-93 -66v-98l-288 -43v94q0 61 17 101.5t65 70.5l86 64q54 36 73 67t19 78q0 44 -34.5 67t-98.5 23q-116 0 -222 -32l-86 -27zM258 133q0 72 45 112t125 40q78 0 123 -40 t45 -112t-45 -112.5t-123 -40.5q-80 0 -125 40.5t-45 112.5z" />
<glyph horiz-adv-x="903" d="M68 266q0 180 155 283l109 80v98l289 43v-94q0 -61 -17 -101.5t-65 -70.5l-86 -64q-55 -36 -74 -66.5t-19 -78.5q0 -44 35.5 -68t98.5 -24q105 0 221 35l86 26l37 -217l-88 -24q-148 -43 -318 -43q-167 0 -265.5 75t-98.5 211zM307 1024q0 72 45 113t123 41 q79 0 123.5 -41t44.5 -113t-44 -112t-124 -40q-78 0 -123 40t-45 112z" />
<glyph horiz-adv-x="638" d="M96 449v172q133 0 133 63q0 28 -20.5 70t-41 93.5t-20.5 102.5q0 104 72.5 162.5t202.5 58.5h133v-196h-88q-37 0 -57.5 -18t-20.5 -52q0 -43 37 -124.5t37 -125.5q0 -35 -14.5 -63.5t-27.5 -40.5t-26 -19q13 -6 26.5 -17t27.5 -38.5t14 -62.5q0 -44 -37 -127t-37 -127 q0 -66 78 -66h88v-198h-133q-130 0 -202.5 59t-72.5 164q0 51 20.5 102t41 92.5t20.5 69.5q0 66 -133 66z" />
<glyph horiz-adv-x="638" d="M82 94h90q78 0 78 66q0 44 -38 127t-38 127q0 50 23.5 79.5t46.5 38.5q-24 12 -47 42.5t-23 80.5q0 44 38 125.5t38 124.5q0 34 -20.5 52t-57.5 18h-90v196h133q130 0 202 -58.5t72 -162.5q0 -51 -20.5 -102.5t-40.5 -93.5t-20 -70q0 -63 135 -63v-172q-135 0 -135 -66 q0 -28 20 -69.5t40.5 -92.5t20.5 -102q0 -105 -72 -164t-202 -59h-133v198z" />
<glyph horiz-adv-x="630" d="M129 -100v1271h426v-194h-180v-881h180v-196h-426z" />
<glyph horiz-adv-x="630" d="M78 96h178v881h-178v194h426v-1271h-426v196z" />
<glyph horiz-adv-x="649" d="M88 537q0 115 15.5 208.5t41 158.5t64 113.5t79 77.5t91 46.5t95 23.5t95.5 6v-194q-29 -2 -52.5 -9.5t-55.5 -34.5t-54 -71.5t-37.5 -128t-15.5 -196.5q0 -85 8 -154.5t21 -115t32 -80.5t37 -53.5t41.5 -30.5t39.5 -15.5t36 -5.5v-195q-47 0 -90 6.5t-92.5 25t-91 48.5 t-80.5 80.5t-66.5 116.5t-44 161.5t-16.5 211.5z" />
<glyph horiz-adv-x="649" d="M78 82q30 2 53.5 9.5t56 35t54 73.5t37.5 132.5t16 204.5q0 113 -15.5 196.5t-37.5 128t-54.5 71.5t-56.5 34.5t-53 9.5v194q51 0 96 -6t95.5 -23.5t91 -46t79 -77.5t64.5 -114t41.5 -158.5t15.5 -208.5q0 -116 -16.5 -211.5t-44 -161.5t-67 -116.5t-81.5 -80.5 t-91.5 -48.5t-92.5 -25t-90 -6.5v195z" />
<glyph horiz-adv-x="759" d="M72 573q0 64 51 121l270 277h324l-381 -398l381 -397h-324l-270 277q-51 54 -51 120z" />
<glyph horiz-adv-x="1193" d="M74 573q0 64 51 121l266 277h299l-381 -398l381 -397h-299l-266 277q-51 54 -51 120zM526 573q0 64 54 121l270 277h299l-387 -398l387 -397h-299l-270 277q-54 54 -54 120z" />
<glyph horiz-adv-x="1193" d="M43 176l387 397l-387 398h299l272 -277q52 -58 52 -121q0 -65 -52 -120l-272 -277h-299zM502 176l383 397l-383 398h299l266 -277q53 -56 53 -121q0 -67 -53 -120l-266 -277h-299z" />
<glyph horiz-adv-x="759" d="M43 176l383 397l-383 398h324l270 -277q53 -56 53 -121q0 -67 -53 -120l-270 -277h-324z" />
<glyph horiz-adv-x="878" d="M88 465v233h703v-233h-703z" />
<glyph horiz-adv-x="503" d="M55 -100l90 393h306l-123 -449q-29 -98 -144 -98q-80 0 -112.5 43.5t-16.5 110.5z" />
<glyph horiz-adv-x="503" d="M84 143q0 74 45.5 118t124.5 44q78 0 123 -44t45 -118q0 -75 -45 -119t-123 -44q-79 0 -124.5 44t-45.5 119z" />
<glyph horiz-adv-x="503" d="M53 -100l86 393h303l-116 -449q-26 -98 -144 -98q-79 0 -111 43.5t-18 110.5zM102 813q0 74 44.5 118t123.5 44q78 0 123 -44t45 -118q0 -75 -45 -118.5t-123 -43.5q-79 0 -123.5 43.5t-44.5 118.5z" />
<glyph horiz-adv-x="503" d="M84 143q0 74 45.5 118t124.5 44q78 0 123 -44t45 -118q0 -75 -45 -119t-123 -44q-79 0 -124.5 44t-45.5 119zM84 813q0 74 45.5 118t124.5 44q78 0 123 -44t45 -118q0 -75 -45 -118.5t-123 -43.5q-79 0 -124.5 43.5t-45.5 118.5z" />
<glyph horiz-adv-x="503" d="M47 717l121 440q26 98 141 98q80 0 112.5 -44t16.5 -109l-88 -385h-303z" />
<glyph horiz-adv-x="886" d="M47 713l119 444q29 98 135 98q72 0 100.5 -44t14.5 -111l-90 -387h-279zM451 713l120 444q26 98 134 98q72 0 101 -44.5t13 -110.5l-88 -387h-280z" />
<glyph horiz-adv-x="503" d="M53 852l90 389h306l-123 -446q-26 -99 -144 -99q-78 0 -110.5 44.5t-18.5 111.5z" />
<glyph horiz-adv-x="886" d="M53 848l92 393h279l-121 -448q-29 -99 -133 -99q-72 0 -101.5 43.5t-15.5 110.5zM459 848l90 393h280l-120 -448q-29 -99 -136 -99q-72 0 -100 43.5t-14 110.5z" />
<glyph horiz-adv-x="503" d="M53 -100l90 393h306l-125 -449q-26 -98 -144 -98q-78 0 -110.5 44t-16.5 110z" />
<glyph horiz-adv-x="886" d="M49 -106l94 399h279l-123 -455q-29 -98 -133 -98q-72 0 -101.5 43.5t-15.5 110.5zM455 -106l92 399h280l-122 -455q-29 -98 -136 -98q-72 0 -100 43.5t-14 110.5z" />
<glyph horiz-adv-x="501" d="M98 1235h305l-24 -508h-254z" />
<glyph horiz-adv-x="868" d="M98 1235h279l-27 -508h-227zM492 1235h278l-25 -508h-227z" />
<glyph horiz-adv-x="1308" d="M125 0v1004q0 87 55 132.5t156 45.5q89 0 135 -35.5t82 -110.5l360 -596v731h273v-1001q0 -88 -56 -134t-157 -46q-87 0 -134 36.5t-83 110.5l-359 596v-733h-272z" />
<glyph horiz-adv-x="1806" d="M39 0l444 1036q31 71 86 103t146 32h989v-227h-576v-235h510v-222h-510v-260h578v-227h-739q-75 0 -111.5 33.5t-36.5 103.5v68h-381l-82 -205h-317zM518 428h303v516h-100z" />
<glyph horiz-adv-x="1841" d="M100 584q0 276 156.5 431.5t425.5 155.5h1055v-227h-574v-235h502v-222h-502v-260h578v-227h-1055q-267 0 -426.5 154.5t-159.5 429.5zM406 584q0 -169 74.5 -260t209.5 -91h164v707h-154q-139 0 -216.5 -94.5t-77.5 -261.5z" />
<glyph horiz-adv-x="1388" d="M94 586q0 279 164.5 436.5t437.5 157.5q90 0 195 -25l49 90h213l-90 -168q111 -75 171 -200t60 -291q0 -285 -163.5 -440.5t-440.5 -155.5q-101 0 -194 22l-50 -92h-213l91 170q-111 75 -170.5 201t-59.5 295zM406 586q0 -152 53 -244l319 602q-41 12 -88 12 q-137 0 -210.5 -97t-73.5 -273zM608 223q40 -12 88 -12q137 0 212 96.5t75 278.5q0 144 -55 237z" />
<glyph horiz-adv-x="1163" d="M125 0v1171h305v-180h229q187 0 297.5 -103.5t110.5 -281.5t-114 -280.5t-310 -102.5h-213v-223h-305zM430 449h191q75 0 118 42t43 117q0 73 -42 115.5t-113 42.5h-197v-317z" />
<glyph horiz-adv-x="1300" d="M43 506v176h96v336q0 71 43.5 112t124.5 41h316q269 0 425 -155.5t156 -431.5t-159 -430t-427 -154h-311q-81 0 -124.5 40.5t-43.5 111.5v354h-96zM449 233h163q136 0 210.5 91t74.5 260q0 167 -77 261.5t-216 94.5h-155v-258h256v-176h-256v-273z" />
<glyph horiz-adv-x="1128" d="M88 580q0 246 115 398.5t309 188.5v203h221v-199q90 -10 221 -51l99 -30l-37 -242l-98 31q-158 51 -259 51q-268 0 -268 -350q0 -347 271 -347q101 0 256 50l98 28l37 -239l-99 -29q-116 -37 -221 -49v-203h-221v207q-197 35 -310.5 183t-113.5 399z" />
<glyph horiz-adv-x="1134" d="M100 459v227h334v356h256v-356h342v-227h-342v-355h-256v355h-334z" />
<glyph horiz-adv-x="1134" d="M102 453v229h930v-229h-930z" />
<glyph horiz-adv-x="1134" d="M100 293v221h932v-221h-932zM100 621v221h932v-221h-932z" />
<glyph horiz-adv-x="1257" d="M39 0l387 1053q47 131 211 131q166 0 211 -129l371 -1055h-316l-67 205h-414l-70 -205h-313zM324 1563h378l150 -140q43 -41 43 -90q0 -37 -28 -65.5t-79 -28.5q-63 0 -120 47zM485 428h289l-141 430z" />
<glyph horiz-adv-x="1257" d="M39 0l387 1053q47 131 211 131q166 0 211 -129l371 -1055h-316l-67 205h-414l-70 -205h-313zM393 1335q0 49 41 90l152 138h377l-345 -275q-57 -47 -120 -47q-49 0 -77 28.5t-28 65.5zM485 428h289l-141 430z" />
<glyph horiz-adv-x="1257" d="M39 0l387 1053q47 131 211 131q166 0 211 -129l371 -1055h-316l-67 205h-414l-70 -205h-313zM223 1253l256 256q64 60 160 60q100 0 160 -60l260 -256h-309l-111 133l-107 -133h-309zM485 428h289l-141 430z" />
<glyph horiz-adv-x="1257" d="M39 0l387 1053q47 131 211 131q166 0 211 -129l371 -1055h-316l-67 205h-414l-70 -205h-313zM178 1333q47 126 125.5 184t171.5 58q95 0 168 -53l72 -52q42 -30 82 -30q38 0 69.5 29.5t59.5 97.5l151 -84q-47 -125 -126 -183.5t-171 -58.5q-95 0 -168 53l-71 52 q-42 30 -82 30q-39 0 -70.5 -28t-60.5 -97zM485 428h289l-141 430z" />
<glyph horiz-adv-x="1257" d="M39 0l387 1053q47 131 211 131q166 0 211 -129l371 -1055h-316l-67 205h-414l-70 -205h-313zM270 1430q0 68 42.5 107.5t117.5 39.5q73 0 114.5 -39.5t41.5 -107.5q0 -67 -41.5 -106.5t-114.5 -39.5q-74 0 -117 39.5t-43 106.5zM485 428h289l-141 430zM700 1430 q0 68 42.5 107.5t115.5 39.5t115.5 -39.5t42.5 -107.5q0 -66 -42.5 -106t-115.5 -40t-115.5 40t-42.5 106z" />
<glyph horiz-adv-x="1257" d="M39 0l387 1053q47 131 211 131q166 0 211 -129l371 -1055h-316l-67 205h-414l-70 -205h-313zM373 1481q0 108 75.5 174.5t186.5 66.5q110 0 187 -67t77 -174q0 -106 -77.5 -175t-186.5 -69q-108 0 -185 69t-77 175zM485 428h289l-141 430zM526 1481q0 -45 30.5 -74 t78.5 -29t79 29t31 74q0 43 -30.5 71.5t-79.5 28.5t-79 -28.5t-30 -71.5z" />
<glyph horiz-adv-x="1257" d="M39 0l387 1053q47 131 211 131q166 0 211 -129l371 -1055h-316l-67 205h-414l-70 -205h-313zM256 1290v221h733v-221h-733zM485 428h289l-141 430z" />
<glyph horiz-adv-x="1257" d="M39 0l387 1053q47 131 211 131q166 0 211 -129l371 -1055h-316l-67 205h-414l-70 -205h-313zM242 1563h256q0 -69 37 -104.5t102 -35.5q66 0 103.5 35.5t37.5 104.5h254q0 -148 -112 -235t-283 -87t-283 87t-112 235zM485 428h289l-141 430z" />
<glyph horiz-adv-x="1257" d="M39 0l387 1053q47 131 211 131q166 0 211 -129l371 -1055q-91 -55 -91 -127t93 -72q90 0 196 43l35 -141q-126 -53 -252 -53q-111 0 -180.5 43.5t-69.5 126.5q0 114 115 180h-162l-67 205h-414l-70 -205h-313zM485 428h289l-141 430z" />
<glyph horiz-adv-x="1202" d="M94 586q0 146 43 260t121 186.5t183.5 110t232.5 37.5q157 0 338 -56l106 -30l-41 -246l-114 37q-145 43 -258 43q-140 0 -215.5 -84.5t-75.5 -257.5q0 -342 291 -342q116 0 258 45l114 33l41 -246l-108 -33q-160 -47 -301 -53l-37 -78q81 0 131.5 -36.5t50.5 -108.5 q0 -81 -58.5 -128t-162.5 -47q-97 0 -201 48l37 116q85 -39 164 -39q67 0 67 45q0 33 -41 44t-129 8l-18 26l80 154q-231 23 -364.5 172t-133.5 420z" />
<glyph horiz-adv-x="1202" d="M94 586q0 146 43 260t121 186.5t183.5 110t232.5 37.5q157 0 338 -56l106 -30l-41 -246l-114 37q-145 43 -258 43q-140 0 -215.5 -84.5t-75.5 -257.5q0 -342 291 -342q116 0 258 45l114 33l41 -246l-108 -33q-178 -53 -338 -53q-129 0 -234 37t-182 109.5t-119.5 187 t-42.5 262.5zM489 1335q0 49 41 90l152 138h377l-344 -275q-57 -47 -121 -47q-49 0 -77 28.5t-28 65.5z" />
<glyph horiz-adv-x="1202" d="M94 586q0 146 43 260t121 186.5t183.5 110t232.5 37.5q157 0 338 -56l106 -30l-41 -246l-114 37q-145 43 -258 43q-140 0 -215.5 -84.5t-75.5 -257.5q0 -342 291 -342q116 0 258 45l114 33l41 -246l-108 -33q-178 -53 -338 -53q-129 0 -234 37t-182 109.5t-119.5 187 t-42.5 262.5zM260 1253l256 256q64 60 160 60q100 0 160 -60l260 -256h-310l-110 133l-107 -133h-309z" />
<glyph horiz-adv-x="1202" d="M94 586q0 146 43 260t121 186.5t183.5 110t232.5 37.5q157 0 338 -56l106 -30l-41 -246l-114 37q-145 43 -258 43q-140 0 -215.5 -84.5t-75.5 -257.5q0 -342 291 -342q116 0 258 45l114 33l41 -246l-108 -33q-178 -53 -338 -53q-129 0 -234 37t-182 109.5t-119.5 187 t-42.5 262.5zM504 1430q0 68 45.5 107.5t124.5 39.5q78 0 123 -39.5t45 -107.5q0 -66 -45 -106t-123 -40q-79 0 -124.5 39.5t-45.5 106.5z" />
<glyph horiz-adv-x="1202" d="M94 586q0 146 43 260t121 186.5t183.5 110t232.5 37.5q157 0 338 -56l106 -30l-41 -246l-114 37q-145 43 -258 43q-140 0 -215.5 -84.5t-75.5 -257.5q0 -342 291 -342q116 0 258 45l114 33l41 -246l-108 -33q-178 -53 -338 -53q-129 0 -234 37t-182 109.5t-119.5 187 t-42.5 262.5zM258 1565h309l111 -135l106 135h310l-256 -258q-57 -60 -160 -60q-106 0 -160 60z" />
<glyph horiz-adv-x="1284" d="M125 152v866q0 72 43 112.5t123 40.5h315q269 0 426.5 -155.5t157.5 -431.5t-160 -430t-428 -154h-311q-81 0 -123.5 40t-42.5 112zM184 1565h310l110 -135l107 135h309l-256 -258q-57 -60 -160 -60q-106 0 -160 60zM434 233h164q136 0 210.5 91t74.5 260q0 166 -78 261 t-217 95h-154v-707z" />
<glyph horiz-adv-x="1300" d="M43 506v176h96v336q0 71 43.5 112t124.5 41h316q269 0 425 -155.5t156 -431.5t-159 -430t-427 -154h-311q-81 0 -124.5 40.5t-43.5 111.5v354h-96zM449 233h163q136 0 210.5 91t74.5 260q0 167 -77 261.5t-216 94.5h-155v-258h256v-176h-256v-273z" />
<glyph horiz-adv-x="1110" d="M125 152v866q0 72 43 112.5t123 40.5h717v-227h-574v-235h502v-222h-502v-260h576v-227h-719q-81 0 -123.5 40t-42.5 112zM205 1563h379l149 -140q43 -41 43 -90q0 -37 -27.5 -65.5t-78.5 -28.5q-64 0 -121 47z" />
<glyph horiz-adv-x="1110" d="M125 152v866q0 72 43 112.5t123 40.5h717v-227h-574v-235h502v-222h-502v-260h576v-227h-719q-81 0 -123.5 40t-42.5 112zM373 1335q0 49 41 90l151 138h377l-344 -275q-57 -47 -121 -47q-49 0 -76.5 28.5t-27.5 65.5z" />
<glyph horiz-adv-x="1110" d="M125 152v866q0 72 43 112.5t123 40.5h717v-227h-574v-235h502v-222h-502v-260h576v-227h-719q-81 0 -123.5 40t-42.5 112zM162 1253l256 256q64 60 160 60q99 0 159 -60l260 -256h-309l-110 133l-107 -133h-309z" />
<glyph horiz-adv-x="1110" d="M125 152v866q0 72 43 112.5t123 40.5h717v-227h-574v-235h502v-222h-502v-260h576v-227h-719q-81 0 -123.5 40t-42.5 112zM201 1430q0 68 42 107.5t117 39.5q73 0 114.5 -39.5t41.5 -107.5q0 -67 -41.5 -106.5t-114.5 -39.5q-74 0 -116.5 39.5t-42.5 106.5zM631 1430 q0 68 42 107.5t115 39.5t115.5 -39.5t42.5 -107.5q0 -66 -42.5 -106t-115.5 -40t-115 39.5t-42 106.5z" />
<glyph horiz-adv-x="1110" d="M125 152v866q0 72 43 112.5t123 40.5h717v-227h-574v-235h502v-222h-502v-260h576v-227h-719q-81 0 -123.5 40t-42.5 112zM205 1290v221h733v-221h-733z" />
<glyph horiz-adv-x="1110" d="M125 152v866q0 72 43 112.5t123 40.5h717v-227h-574v-235h502v-222h-502v-260h576v-227h-719q-81 0 -123.5 40t-42.5 112zM180 1563h256q0 -69 37 -104.5t102 -35.5q66 0 104 35.5t38 104.5h254q0 -148 -112.5 -235t-283.5 -87t-283 87t-112 235z" />
<glyph horiz-adv-x="1110" d="M125 152v866q0 72 43 112.5t123 40.5h717v-227h-574v-235h502v-222h-502v-260h576v-227h-719q-81 0 -123.5 40t-42.5 112zM416 1430q0 68 45.5 107.5t124.5 39.5q78 0 123 -39.5t45 -107.5q0 -66 -45 -106t-123 -40q-79 0 -124.5 39.5t-45.5 106.5z" />
<glyph horiz-adv-x="1110" d="M125 152v866q0 72 43 112.5t123 40.5h717v-227h-574v-235h502v-222h-502v-260h576v-227h-121q-90 -55 -90 -127t92 -72q90 0 196 43l35 -141q-126 -53 -252 -53q-111 0 -180 43.5t-69 126.5q0 115 114 180h-444q-81 0 -123.5 40t-42.5 112z" />
<glyph horiz-adv-x="1110" d="M125 152v866q0 72 43 112.5t123 40.5h717v-227h-574v-235h502v-222h-502v-260h576v-227h-719q-81 0 -123.5 40t-42.5 112zM164 1565h309l111 -135l106 135h309l-256 -258q-57 -60 -159 -60q-106 0 -160 60z" />
<glyph horiz-adv-x="1277" d="M94 586q0 192 77.5 327.5t211.5 201t311 65.5q161 0 355 -56l112 -32l-43 -246l-119 33q-168 49 -280 49q-152 0 -235 -88t-83 -260q0 -181 83.5 -272t238.5 -91q87 0 160 12v189h-242v217h363q80 0 123.5 -41.5t43.5 -112.5v-235q0 -57 -10 -96q-10 -46 -59.5 -79.5 t-122.5 -50t-143 -23.5t-142 -7q-276 0 -438 152.5t-162 443.5zM266 1253l256 256q64 60 160 60q100 0 160 -60l260 -256h-309l-111 133l-107 -133h-309z" />
<glyph horiz-adv-x="1277" d="M94 586q0 192 77.5 327.5t211.5 201t311 65.5q161 0 355 -56l112 -32l-43 -246l-119 33q-168 49 -280 49q-152 0 -235 -88t-83 -260q0 -181 83.5 -272t238.5 -91q87 0 160 12v189h-242v217h363q80 0 123.5 -41.5t43.5 -112.5v-235q0 -57 -10 -96q-10 -46 -59.5 -79.5 t-122.5 -50t-143 -23.5t-142 -7q-276 0 -438 152.5t-162 443.5zM283 1563h256q0 -69 37 -104.5t102 -35.5q66 0 103.5 35.5t37.5 104.5h254q0 -148 -112 -235t-283 -87t-283 87t-112 235z" />
<glyph horiz-adv-x="1277" d="M94 586q0 192 77.5 327.5t211.5 201t311 65.5q161 0 355 -56l112 -32l-43 -246l-119 33q-168 49 -280 49q-152 0 -235 -88t-83 -260q0 -181 83.5 -272t238.5 -91q87 0 160 12v189h-242v217h363q80 0 123.5 -41.5t43.5 -112.5v-235q0 -57 -10 -96q-10 -46 -59.5 -79.5 t-122.5 -50t-143 -23.5t-142 -7q-276 0 -438 152.5t-162 443.5zM506 1434q0 68 45.5 107.5t124.5 39.5q78 0 123 -39.5t45 -107.5q0 -66 -45 -106t-123 -40q-79 0 -124.5 39.5t-45.5 106.5z" />
<glyph horiz-adv-x="1277" d="M94 586q0 192 77.5 327.5t211.5 201t311 65.5q161 0 355 -56l112 -32l-43 -246l-119 33q-168 49 -280 49q-152 0 -235 -88t-83 -260q0 -181 83.5 -272t238.5 -91q87 0 160 12v189h-242v217h363q80 0 123.5 -41.5t43.5 -112.5v-235q0 -57 -10 -96q-10 -46 -59.5 -79.5 t-122.5 -50t-143 -23.5t-142 -7q-276 0 -438 152.5t-162 443.5zM485 -281l50 191h284l-74 -248q-29 -98 -135 -98q-76 0 -109.5 45t-15.5 110z" />
<glyph horiz-adv-x="1261" d="M125 0v1171h309v-462h393v462h312v-1171h-312v481h-393v-481h-309zM213 1253l256 256q64 60 160 60q99 0 159 -60l261 -256h-310l-110 133l-107 -133h-309z" />
<glyph horiz-adv-x="1259" d="M27 825v179h98v167h309v-167h393v167h312v-167h94v-179h-94v-825h-312v481h-393v-481h-309v825h-98zM434 709h393v116h-393v-116z" />
<glyph horiz-adv-x="1382" d="M125 0v1171h313v-1171h-313zM614 41l35 233q139 -34 189 -34q61 0 87.5 29.5t26.5 95.5v806h310v-827q0 -168 -99 -257t-276 -89q-125 0 -273 43z" />
<glyph horiz-adv-x="557" d="M-86 1563h379l149 -140q43 -41 43 -90q0 -37 -27.5 -65.5t-78.5 -28.5q-64 0 -121 47zM125 0v1171h313v-1171h-313z" />
<glyph horiz-adv-x="557" d="M80 1335q0 49 41 90l151 138h377l-344 -275q-57 -47 -121 -47q-49 0 -76.5 28.5t-27.5 65.5zM125 0v1171h313v-1171h-313z" />
<glyph horiz-adv-x="557" d="M-137 1253l256 256q64 60 160 60q99 0 159 -60l260 -256h-309l-110 133l-107 -133h-309zM125 0v1171h313v-1171h-313z" />
<glyph horiz-adv-x="557" d="M-90 1430q0 68 42.5 107.5t117.5 39.5q73 0 114 -39.5t41 -107.5q0 -67 -41 -106.5t-114 -39.5q-74 0 -117 39.5t-43 106.5zM125 0v1171h313v-1171h-313zM340 1430q0 68 42.5 107.5t115.5 39.5t115 -39.5t42 -107.5q0 -67 -42 -106.5t-115 -39.5t-115.5 40t-42.5 106z " />
<glyph horiz-adv-x="557" d="M-176 1333q47 126 125.5 184t171.5 58q95 0 168 -53l71 -52q42 -30 82 -30q38 0 69.5 29.5t59.5 97.5l152 -84q-47 -125 -126 -183.5t-171 -58.5q-95 0 -168 53l-72 52q-42 30 -82 30q-39 0 -70.5 -28t-60.5 -97zM125 0v1171h313v-1171h-313z" />
<glyph horiz-adv-x="557" d="M-84 1290v221h733v-221h-733zM125 0v1171h313v-1171h-313z" />
<glyph horiz-adv-x="557" d="M-111 1563h256q0 -69 37.5 -104.5t102.5 -35.5q66 0 103.5 35.5t37.5 104.5h254q0 -148 -112 -235t-283 -87t-283.5 87t-112.5 235zM125 0v1171h313v-1171h-313z" />
<glyph horiz-adv-x="557" d="M125 0v1171h313v-1171q-90 -55 -90 -127t92 -72q91 0 197 43l35 -141q-126 -53 -252 -53q-111 0 -180.5 43.5t-69.5 126.5q0 114 115 180h-160z" />
<glyph horiz-adv-x="557" d="M115 1430q0 68 45.5 107.5t124.5 39.5q78 0 123 -39.5t45 -107.5q0 -66 -45 -106t-123 -40q-79 0 -124.5 39.5t-45.5 106.5zM125 0v1171h313v-1171h-313z" />
<glyph horiz-adv-x="1075" d="M43 446v218l96 34v473h314v-356l252 94v-217l-252 -94v-352h532v-246h-682q-80 0 -122 40t-42 112v329z" />
<glyph horiz-adv-x="825" d="M57 41l35 233q139 -34 189 -34q61 0 87.5 29.5t26.5 95.5v806h310v-827q0 -168 -99 -257t-276 -89q-125 0 -273 43zM133 1253l256 256q64 60 160 60q100 0 160 -60l260 -256h-310l-110 133l-107 -133h-309z" />
<glyph horiz-adv-x="1224" d="M125 0v1171h305v-481l391 481h357l-351 -417q99 -214 340 -754h-327l-238 520l-86 -98q-45 -52 -65.5 -93.5t-20.5 -101.5v-227h-305zM424 -281l49 191h285l-74 -248q-29 -98 -135 -98q-76 0 -109.5 45t-15.5 110z" />
<glyph horiz-adv-x="1054" d="M125 152v1019h313v-925h533v-246h-680q-81 0 -123.5 40t-42.5 112zM332 1335q0 49 41 90l151 138h377l-344 -275q-57 -47 -121 -47q-49 0 -76.5 28.5t-27.5 65.5z" />
<glyph horiz-adv-x="1054" d="M125 152v1019h313v-925h533v-246h-680q-81 0 -123.5 40t-42.5 112zM334 -281l49 191h285l-74 -248q-29 -98 -135 -98q-76 0 -109.5 45t-15.5 110z" />
<glyph horiz-adv-x="1054" d="M125 152v1019h313v-925h533v-246h-680q-81 0 -123.5 40t-42.5 112zM563 909l84 340h264l-114 -395q-29 -98 -125 -98q-73 0 -100 44t-9 109z" />
<glyph horiz-adv-x="1054" d="M125 152v1019h313v-925h533v-246h-680q-81 0 -123.5 40t-42.5 112zM596 623q0 81 41 120t104 39q64 0 107 -39t43 -120t-42.5 -119.5t-107.5 -38.5q-63 0 -104 38.5t-41 119.5z" />
<glyph horiz-adv-x="1308" d="M125 0v1004q0 87 55 132.5t156 45.5q89 0 135 -35.5t82 -110.5l360 -596v731h273v-1001q0 -88 -56 -134t-157 -46q-87 0 -134 36.5t-83 110.5l-359 596v-733h-272zM211 1333q47 126 125.5 184t171.5 58q95 0 168 -53l72 -52q42 -30 81 -30q38 0 69.5 29.5t59.5 97.5 l152 -84q-47 -125 -126 -183.5t-171 -58.5q-95 0 -168 53l-72 52q-42 30 -81 30t-71 -28t-61 -97z" />
<glyph horiz-adv-x="1308" d="M125 0v1004q0 87 55 132.5t156 45.5q89 0 135 -35.5t82 -110.5l360 -596v731h273v-1001q0 -88 -56 -134t-157 -46q-87 0 -134 36.5t-83 110.5l-359 596v-733h-272zM483 1335q0 49 41 90l152 138h377l-344 -275q-57 -47 -121 -47q-49 0 -77 28.5t-28 65.5z" />
<glyph horiz-adv-x="1308" d="M125 0v1004q0 87 55 132.5t156 45.5q89 0 135 -35.5t82 -110.5l360 -596v731h273v-1001q0 -88 -56 -134t-157 -46q-87 0 -134 36.5t-83 110.5l-359 596v-733h-272zM444 -281l50 191h284l-73 -248q-29 -98 -136 -98q-76 0 -109.5 45t-15.5 110z" />
<glyph horiz-adv-x="1308" d="M125 0v1004q0 87 55 132.5t156 45.5q89 0 135 -35.5t82 -110.5l360 -596v731h273v-1001q0 -88 -56 -134t-157 -46q-87 0 -134 36.5t-83 110.5l-359 596v-733h-272zM246 1565h309l111 -135l106 135h309l-256 -258q-57 -60 -159 -60q-106 0 -160 60z" />
<glyph horiz-adv-x="1388" d="M94 586q0 279 164.5 436.5t437.5 157.5q275 0 436.5 -156.5t161.5 -437.5q0 -285 -163.5 -440.5t-440.5 -155.5q-274 0 -435 157t-161 439zM342 1563h379l149 -140q43 -41 43 -90q0 -37 -27.5 -65.5t-78.5 -28.5q-64 0 -121 47zM406 586q0 -180 76.5 -277.5t213.5 -97.5 t212 96.5t75 278.5q0 175 -77.5 272.5t-215.5 97.5q-137 0 -210.5 -97t-73.5 -273z" />
<glyph horiz-adv-x="1388" d="M94 586q0 279 164.5 436.5t437.5 157.5q275 0 436.5 -156.5t161.5 -437.5q0 -285 -163.5 -440.5t-440.5 -155.5q-274 0 -435 157t-161 439zM406 586q0 -180 76.5 -277.5t213.5 -97.5t212 96.5t75 278.5q0 175 -77.5 272.5t-215.5 97.5q-137 0 -210.5 -97t-73.5 -273z M453 1335q0 49 41 90l151 138h377l-344 -275q-57 -47 -121 -47q-49 0 -76.5 28.5t-27.5 65.5z" />
<glyph horiz-adv-x="1388" d="M94 586q0 279 164.5 436.5t437.5 157.5q275 0 436.5 -156.5t161.5 -437.5q0 -285 -163.5 -440.5t-440.5 -155.5q-274 0 -435 157t-161 439zM274 1253l256 256q64 60 160 60q100 0 160 -60l260 -256h-309l-111 133l-106 -133h-310zM406 586q0 -180 76.5 -277.5 t213.5 -97.5t212 96.5t75 278.5q0 175 -77.5 272.5t-215.5 97.5q-137 0 -210.5 -97t-73.5 -273z" />
<glyph horiz-adv-x="1388" d="M94 586q0 279 164.5 436.5t437.5 157.5q275 0 436.5 -156.5t161.5 -437.5q0 -285 -163.5 -440.5t-440.5 -155.5q-274 0 -435 157t-161 439zM242 1333q47 126 125.5 184t171.5 58q95 0 168 -53l71 -52q42 -30 82 -30q38 0 69.5 29.5t59.5 97.5l152 -84 q-47 -125 -126 -183.5t-171 -58.5q-95 0 -168 53l-72 52q-42 30 -82 30q-39 0 -70.5 -28t-60.5 -97zM406 586q0 -180 76.5 -277.5t213.5 -97.5t212 96.5t75 278.5q0 175 -77.5 272.5t-215.5 97.5q-137 0 -210.5 -97t-73.5 -273z" />
<glyph horiz-adv-x="1388" d="M94 586q0 279 164.5 436.5t437.5 157.5q275 0 436.5 -156.5t161.5 -437.5q0 -285 -163.5 -440.5t-440.5 -155.5q-274 0 -435 157t-161 439zM319 1430q0 68 42.5 107.5t117.5 39.5q73 0 114.5 -39.5t41.5 -107.5q0 -67 -41.5 -106.5t-114.5 -39.5q-74 0 -117 39.5 t-43 106.5zM406 586q0 -180 76.5 -277.5t213.5 -97.5t212 96.5t75 278.5q0 175 -77.5 272.5t-215.5 97.5q-137 0 -210.5 -97t-73.5 -273zM750 1430q0 68 42 107.5t115 39.5t115.5 -39.5t42.5 -107.5q0 -66 -42.5 -106t-115.5 -40t-115 39.5t-42 106.5z" />
<glyph horiz-adv-x="1314" d="M127 0v1004q0 87 55 132.5t156 45.5q88 0 134 -29.5t83 -89.5l360 -537v645h273v-1237q0 -305 -393 -305v195q64 0 92 29.5t28 85.5v71l-516 754v-764h-272z" />
<glyph horiz-adv-x="1388" d="M94 586q0 279 164.5 436.5t437.5 157.5q275 0 436.5 -156.5t161.5 -437.5q0 -285 -163.5 -440.5t-440.5 -155.5q-274 0 -435 157t-161 439zM326 1290v221h733v-221h-733zM406 586q0 -180 76.5 -277.5t213.5 -97.5t212 96.5t75 278.5q0 175 -77.5 272.5t-215.5 97.5 q-137 0 -210.5 -97t-73.5 -273z" />
<glyph horiz-adv-x="1388" d="M94 586q0 279 164.5 436.5t437.5 157.5q275 0 436.5 -156.5t161.5 -437.5q0 -285 -163.5 -440.5t-440.5 -155.5q-274 0 -435 157t-161 439zM299 1563h256q0 -69 37 -104.5t102 -35.5q66 0 104 35.5t38 104.5h254q0 -148 -112.5 -235t-283.5 -87t-283 87t-112 235z M406 586q0 -180 76.5 -277.5t213.5 -97.5t212 96.5t75 278.5q0 175 -77.5 272.5t-215.5 97.5q-137 0 -210.5 -97t-73.5 -273z" />
<glyph horiz-adv-x="1388" d="M94 586q0 279 164.5 436.5t437.5 157.5q275 0 436.5 -156.5t161.5 -437.5q0 -285 -163.5 -440.5t-440.5 -155.5q-274 0 -435 157t-161 439zM352 1331q0 41 33 80l150 152h311l-273 -273q-48 -51 -120 -51q-47 0 -74 27t-27 65zM406 586q0 -180 76.5 -277.5t213.5 -97.5 t212 96.5t75 278.5q0 175 -77.5 272.5t-215.5 97.5q-137 0 -210.5 -97t-73.5 -273zM774 1325q0 42 35 80l149 158h318l-281 -281q-51 -51 -118 -51q-49 0 -76 27.5t-27 66.5z" />
<glyph horiz-adv-x="1212" d="M125 0v1020q0 71 42.5 111t123.5 40h418q186 0 288.5 -90t102.5 -256q0 -138 -107 -254l-59 -69l233 -502h-325l-187 416h-223v-416h-307zM428 1335q0 49 41 90l152 138h376l-344 -275q-57 -47 -121 -47q-49 0 -76.5 28.5t-27.5 65.5zM432 635h270l48 57q53 64 53 127 q0 61 -34 96t-105 35h-232v-315z" />
<glyph horiz-adv-x="1212" d="M125 0v1020q0 71 42.5 111t123.5 40h418q186 0 288.5 -90t102.5 -256q0 -138 -107 -254l-59 -69l233 -502h-325l-187 416h-223v-416h-307zM412 -281l49 191h284l-73 -248q-29 -98 -135 -98q-76 0 -109.5 45t-15.5 110zM432 635h270l48 57q53 64 53 127q0 61 -34 96 t-105 35h-232v-315z" />
<glyph horiz-adv-x="1212" d="M125 0v1020q0 71 42.5 111t123.5 40h418q186 0 288.5 -90t102.5 -256q0 -138 -107 -254l-59 -69l233 -502h-325l-187 416h-223v-416h-307zM174 1565h309l111 -135l106 135h310l-256 -258q-57 -60 -160 -60q-106 0 -160 60zM432 635h270l48 57q53 64 53 127q0 61 -34 96 t-105 35h-232v-315z" />
<glyph horiz-adv-x="1144" d="M94 82l51 250l121 -39q194 -66 336 -66q65 0 108.5 28t43.5 85q0 40 -29.5 68.5t-87.5 40.5l-209 40q-162 31 -245 112.5t-83 221.5q0 120 60 202t157.5 118.5t225.5 36.5q191 0 389 -60l119 -35l-54 -254l-120 41q-197 68 -330 68q-68 0 -109 -28.5t-41 -84.5 q0 -87 117 -110l207 -39q163 -32 245.5 -111.5t82.5 -220.5q0 -90 -34.5 -160t-95.5 -113t-140.5 -65t-172.5 -22q-208 0 -393 59zM377 1335q0 49 41 90l151 138h377l-344 -275q-57 -47 -121 -47q-49 0 -76.5 28.5t-27.5 65.5z" />
<glyph horiz-adv-x="1144" d="M94 82l51 250l121 -39q194 -66 336 -66q65 0 108.5 28t43.5 85q0 40 -29.5 68.5t-87.5 40.5l-209 40q-162 31 -245 112.5t-83 221.5q0 120 60 202t157.5 118.5t225.5 36.5q191 0 389 -60l119 -35l-54 -254l-120 41q-197 68 -330 68q-68 0 -109 -28.5t-41 -84.5 q0 -87 117 -110l207 -39q163 -32 245.5 -111.5t82.5 -220.5q0 -90 -34.5 -160t-95.5 -113t-140.5 -65t-172.5 -22q-208 0 -393 59zM156 1253l256 256q64 60 159 60q100 0 160 -60l260 -256h-309l-111 133l-106 -133h-309z" />
<glyph horiz-adv-x="1144" d="M94 82l51 250l121 -39q194 -66 336 -66q65 0 108.5 28t43.5 85q0 40 -29.5 68.5t-87.5 40.5l-209 40q-162 31 -245 112.5t-83 221.5q0 120 60 202t157.5 118.5t225.5 36.5q191 0 389 -60l119 -35l-54 -254l-120 41q-197 68 -330 68q-68 0 -109 -28.5t-41 -84.5 q0 -87 117 -110l207 -39q163 -32 245.5 -111.5t82.5 -220.5q0 -173 -119 -264t-307 -96l-35 -74q81 0 131.5 -36.5t50.5 -108.5q0 -81 -58.5 -128t-162.5 -47q-97 0 -201 48l37 116q85 -39 164 -39q67 0 67 45q0 33 -41 44t-129 8l-18 26l78 150q-154 9 -293 55z" />
<glyph horiz-adv-x="1144" d="M94 82l51 250l121 -39q194 -66 336 -66q65 0 108.5 28t43.5 85q0 40 -29.5 68.5t-87.5 40.5l-209 40q-162 31 -245 112.5t-83 221.5q0 120 60 202t157.5 118.5t225.5 36.5q191 0 389 -60l119 -35l-54 -254l-120 41q-197 68 -330 68q-68 0 -109 -28.5t-41 -84.5 q0 -87 117 -110l207 -39q163 -32 245.5 -111.5t82.5 -220.5q0 -90 -34.5 -160t-95.5 -113t-140.5 -65t-172.5 -22q-208 0 -393 59zM375 -281l49 191h285l-74 -248q-29 -98 -135 -98q-76 0 -109.5 45t-15.5 110z" />
<glyph horiz-adv-x="1144" d="M94 82l51 250l121 -39q194 -66 336 -66q65 0 108.5 28t43.5 85q0 40 -29.5 68.5t-87.5 40.5l-209 40q-162 31 -245 112.5t-83 221.5q0 120 60 202t157.5 118.5t225.5 36.5q191 0 389 -60l119 -35l-54 -254l-120 41q-197 68 -330 68q-68 0 -109 -28.5t-41 -84.5 q0 -87 117 -110l207 -39q163 -32 245.5 -111.5t82.5 -220.5q0 -90 -34.5 -160t-95.5 -113t-140.5 -65t-172.5 -22q-208 0 -393 59zM158 1565h309l111 -135l106 135h309l-256 -258q-57 -60 -159 -60q-106 0 -160 60z" />
<glyph horiz-adv-x="1146" d="M76 938v233h993v-233h-340v-938h-311v938h-342zM375 -281l49 191h285l-74 -248q-29 -98 -135 -98q-76 0 -109.5 45t-15.5 110z" />
<glyph horiz-adv-x="1146" d="M76 938v233h993v-233h-340v-938h-311v938h-342zM156 1565h309l110 -135l107 135h309l-256 -258q-57 -60 -160 -60q-105 0 -159 60z" />
<glyph horiz-adv-x="1146" d="M76 938v233h993v-233h-340v-268h234v-193h-234v-477h-311v477h-223v193h223v268h-342z" />
<glyph horiz-adv-x="1277" d="M119 434v737h309v-735q0 -207 209 -207t209 207v735h311v-737q0 -215 -134.5 -336t-385.5 -121q-250 0 -384 120.5t-134 336.5zM240 1563h378l150 -140q43 -41 43 -90q0 -37 -27.5 -65.5t-78.5 -28.5q-64 0 -121 47z" />
<glyph horiz-adv-x="1277" d="M119 434v737h309v-735q0 -207 209 -207t209 207v735h311v-737q0 -215 -134.5 -336t-385.5 -121q-250 0 -384 120.5t-134 336.5zM479 1335q0 49 41 90l152 138h377l-344 -275q-57 -47 -121 -47q-49 0 -77 28.5t-28 65.5z" />
<glyph horiz-adv-x="1277" d="M119 434v737h309v-735q0 -207 209 -207t209 207v735h311v-737q0 -215 -134.5 -336t-385.5 -121q-250 0 -384 120.5t-134 336.5zM221 1253l256 256q64 60 160 60q100 0 160 -60l260 -256h-309l-111 133l-107 -133h-309z" />
<glyph horiz-adv-x="1277" d="M119 434v737h309v-735q0 -207 209 -207t209 207v735h311v-737q0 -215 -134.5 -336t-385.5 -121q-250 0 -384 120.5t-134 336.5zM264 1430q0 68 42.5 107.5t117.5 39.5q73 0 114.5 -39.5t41.5 -107.5q0 -67 -41.5 -106.5t-114.5 -39.5q-74 0 -117 39.5t-43 106.5z M694 1430q0 68 42.5 107.5t115.5 39.5t115.5 -39.5t42.5 -107.5q0 -66 -42.5 -106t-115.5 -40t-115.5 40t-42.5 106z" />
<glyph horiz-adv-x="1277" d="M119 434v737h309v-735q0 -207 209 -207t209 207v735h311v-737q0 -215 -134.5 -336t-385.5 -121q-250 0 -384 120.5t-134 336.5zM190 1333q47 126 125.5 184t171.5 58q95 0 168 -53l72 -52q42 -30 82 -30q38 0 69.5 29.5t59.5 97.5l152 -84q-47 -125 -126 -183.5 t-171 -58.5q-95 0 -168 53l-72 52q-42 30 -82 30q-39 0 -70.5 -28t-60.5 -97z" />
<glyph horiz-adv-x="1277" d="M119 434v737h309v-735q0 -207 209 -207t209 207v735h311v-737q0 -215 -134.5 -336t-385.5 -121q-250 0 -384 120.5t-134 336.5zM272 1290v221h734v-221h-734z" />
<glyph horiz-adv-x="1277" d="M119 434v737h309v-735q0 -207 209 -207t209 207v735h311v-737q0 -215 -134.5 -336t-385.5 -121q-250 0 -384 120.5t-134 336.5zM246 1563h256q0 -69 37 -104.5t102 -35.5q66 0 103.5 35.5t37.5 104.5h254q0 -148 -112 -235t-283 -87t-283 87t-112 235z" />
<glyph horiz-adv-x="1277" d="M119 434v737h309v-735q0 -207 209 -207t209 207v735h311v-737q0 -215 -134.5 -336t-385.5 -121q-250 0 -384 120.5t-134 336.5zM377 1481q0 108 75.5 174.5t186.5 66.5q110 0 187 -67t77 -174q0 -106 -77.5 -175t-186.5 -69q-108 0 -185 69t-77 175zM530 1481 q0 -45 30.5 -74t78.5 -29t79.5 29t31.5 74q0 43 -31 71.5t-80 28.5t-79 -28.5t-30 -71.5z" />
<glyph horiz-adv-x="1277" d="M119 434v737h309v-735q0 -207 209 -207t209 207v735h311v-737q0 -215 -134.5 -336t-385.5 -121q-250 0 -384 120.5t-134 336.5zM295 1331q0 41 33 80l149 152h311l-272 -273q-48 -51 -121 -51q-47 0 -73.5 27t-26.5 65zM717 1325q0 42 35 80l149 158h318l-281 -281 q-51 -51 -119 -51q-48 0 -75 27.5t-27 66.5z" />
<glyph horiz-adv-x="1277" d="M119 434v737h309v-735q0 -207 209 -207t209 207v735h311v-737q0 -165 -81 -276.5t-236 -155.5q-80 -51 -80 -121q0 -71 92 -71q91 0 197 43l34 -142q-126 -53 -252 -53q-111 0 -180 43.5t-69 126.5q0 90 69 149h-14q-250 0 -384 120.5t-134 336.5z" />
<glyph horiz-adv-x="1646" d="M55 1171h295l127 -790l193 688q12 47 54.5 74.5t104.5 27.5q132 0 156 -102l189 -690l129 792h288l-209 -1046q-25 -139 -190 -139t-199 129l-170 606l-176 -606q-37 -129 -196 -129q-82 0 -130.5 36t-60.5 103zM414 1253l256 256q64 60 159 60q100 0 160 -60l260 -256 h-309l-111 133l-106 -133h-309z" />
<glyph horiz-adv-x="1646" d="M55 1171h295l127 -790l193 688q12 47 54.5 74.5t104.5 27.5q132 0 156 -102l189 -690l129 792h288l-209 -1046q-25 -139 -190 -139t-199 129l-170 606l-176 -606q-37 -129 -196 -129q-82 0 -130.5 36t-60.5 103zM461 1430q0 68 42.5 107.5t117.5 39.5q73 0 114 -39.5 t41 -107.5q0 -67 -41 -106.5t-114 -39.5q-74 0 -117 39.5t-43 106.5zM891 1430q0 68 42.5 107.5t115.5 39.5t115 -39.5t42 -107.5q0 -67 -42 -106.5t-115 -39.5t-115.5 40t-42.5 106z" />
<glyph horiz-adv-x="1646" d="M55 1171h295l127 -790l193 688q12 47 54.5 74.5t104.5 27.5q132 0 156 -102l189 -690l129 792h288l-209 -1046q-25 -139 -190 -139t-199 129l-170 606l-176 -606q-37 -129 -196 -129q-82 0 -130.5 36t-60.5 103zM618 1335q0 49 41 90l152 138h377l-344 -275 q-57 -47 -121 -47q-49 0 -77 28.5t-28 65.5z" />
<glyph horiz-adv-x="1646" d="M55 1171h295l127 -790l193 688q12 47 54.5 74.5t104.5 27.5q132 0 156 -102l189 -690l129 792h288l-209 -1046q-25 -139 -190 -139t-199 129l-170 606l-176 -606q-37 -129 -196 -129q-82 0 -130.5 36t-60.5 103zM485 1563h379l150 -140q43 -41 43 -90q0 -37 -28 -65.5 t-79 -28.5q-64 0 -121 47z" />
<glyph horiz-adv-x="1265" d="M35 1171h346l258 -426l248 426h342l-438 -688v-483h-312v479zM471 1335q0 49 41 90l152 138h376l-344 -275q-57 -47 -121 -47q-49 0 -76.5 28.5t-27.5 65.5z" />
<glyph horiz-adv-x="1265" d="M35 1171h346l258 -426l248 426h342l-438 -688v-483h-312v479zM264 1430q0 68 42.5 107.5t117.5 39.5q73 0 114.5 -39.5t41.5 -107.5q0 -67 -41.5 -106.5t-114.5 -39.5q-74 0 -117 39.5t-43 106.5zM694 1430q0 68 42.5 107.5t115.5 39.5t115.5 -39.5t42.5 -107.5 q0 -66 -42.5 -106t-115.5 -40t-115.5 40t-42.5 106z" />
<glyph horiz-adv-x="1265" d="M35 1171h346l258 -426l248 426h342l-438 -688v-483h-312v479zM221 1253l256 256q64 60 160 60q100 0 160 -60l260 -256h-309l-111 133l-107 -133h-309z" />
<glyph horiz-adv-x="1265" d="M35 1171h346l258 -426l248 426h342l-438 -688v-483h-312v479zM260 1563h379l149 -140q43 -41 43 -90q0 -37 -27.5 -65.5t-78.5 -28.5q-64 0 -121 47z" />
<glyph horiz-adv-x="1171" d="M94 141q0 68 47 121l543 682h-561v227h803q73 0 110 -38t37 -103t-47 -121l-539 -680h582v-229h-829q-72 0 -109 38t-37 103zM174 1565h309l111 -135l106 135h310l-256 -258q-57 -60 -160 -60q-106 0 -160 60z" />
<glyph horiz-adv-x="1171" d="M94 141q0 68 47 121l543 682h-561v227h803q73 0 110 -38t37 -103t-47 -121l-539 -680h582v-229h-829q-72 0 -109 38t-37 103zM395 1335q0 49 41 90l152 138h377l-344 -275q-57 -47 -121 -47q-49 0 -77 28.5t-28 65.5z" />
<glyph horiz-adv-x="1171" d="M94 141q0 68 47 121l543 682h-561v227h803q73 0 110 -38t37 -103t-47 -121l-539 -680h582v-229h-829q-72 0 -109 38t-37 103zM422 1430q0 68 45.5 107.5t124.5 39.5q78 0 123 -39.5t45 -107.5q0 -66 -45 -106t-123 -40q-79 0 -124.5 39.5t-45.5 106.5z" />
<glyph horiz-adv-x="1234" d="M125 0v795q0 177 128.5 283t379.5 106q111 0 201.5 -24t146.5 -63t89.5 -80.5t47.5 -84.5l-250 -281q281 -43 281 -305q0 -161 -100 -259.5t-295 -98.5q-105 0 -197 28l-55 17l49 227l47 -14q62 -19 121 -19q74 0 112.5 36t38.5 99q0 57 -40.5 88t-112.5 31h-23 q-60 0 -89.5 29t-29.5 82q0 29 7 47t28 43l187 213q-22 25 -65.5 45.5t-104.5 20.5q-102 0 -149.5 -46t-47.5 -118v-797h-305z" />
<glyph horiz-adv-x="1054" d="M113 379v409q0 189 107.5 292.5t307.5 103.5q202 0 308 -102t106 -291v-408q0 -191 -104.5 -294t-305.5 -103q-202 0 -310.5 102.5t-108.5 290.5zM383 381l209 573q-33 11 -62 11q-147 0 -147 -170v-414zM469 211q21 -8 61 -8q144 0 144 172v409z" />
<glyph horiz-adv-x="1054" d="M113 379v409q0 189 107.5 292.5t307.5 103.5q202 0 308 -102t106 -291v-408q0 -191 -104.5 -294t-305.5 -103q-202 0 -310.5 102.5t-108.5 290.5zM383 375q0 -172 147 -172q144 0 144 172v420q0 170 -144 170q-147 0 -147 -170v-420z" />
<glyph horiz-adv-x="1054" d="M109 0v213h321v737h-35q-40 0 -93.5 -11t-94.5 -36l-47 213q115 55 276 55h105q82 0 127 -40.5t45 -112.5v-805h258v-213h-862z" />
<glyph horiz-adv-x="1054" d="M98 129q0 69 52 115l360 319q83 73 119.5 128.5t36.5 123.5q0 72 -46.5 106.5t-127.5 34.5q-114 0 -254 -45l-93 -30l-41 219l95 30q174 52 323 52q190 0 304 -88.5t114 -268.5q0 -207 -219 -397l-252 -219h473v-209h-713q-64 0 -97.5 34.5t-33.5 94.5z" />
<glyph horiz-adv-x="1054" d="M82 72l41 217l102 -31q170 -51 281 -51q91 0 137.5 33t46.5 92q0 58 -45 106l-47 47h-246v205h240l39 49q35 44 35 103q0 116 -168 116q-97 0 -256 -47l-92 -28l-39 219l92 28q172 52 323 52q410 0 410 -318q0 -131 -84 -221l-37 -45l47 -45q103 -94 103 -227 q0 -162 -118 -249t-323 -87q-158 0 -344 53z" />
<glyph horiz-adv-x="1054" d="M68 315q0 48 36 109l431 663q59 95 178 95q166 0 166 -150v-633h118v-209h-118v-190h-258v190h-422q-64 0 -97.5 34t-33.5 91zM362 399h259v389z" />
<glyph horiz-adv-x="1054" d="M102 70l41 215l97 -29q168 -47 262 -47q96 0 144 47.5t48 132.5q0 178 -192 178q-82 0 -223 -37l-119 -32v673h758v-225h-525v-188q92 20 170 20q197 0 299.5 -97t102.5 -292q0 -192 -117 -295.5t-328 -103.5q-159 0 -321 49z" />
<glyph horiz-adv-x="1054" d="M106 391v406q0 177 115.5 280t310.5 103q147 0 318 -50l94 -28l-45 -219l-92 28q-136 47 -254 47q-174 0 -174 -155v-51q95 26 186 26q201 0 301.5 -97t100.5 -284q0 -182 -112.5 -293.5t-317.5 -111.5q-202 0 -316.5 107.5t-114.5 291.5zM379 397q0 -90 40.5 -139 t119.5 -49q74 0 113.5 46.5t39.5 129.5q0 84 -39 130t-131 46q-45 0 -143 -20v-144z" />
<glyph horiz-adv-x="1054" d="M111 950v221h716q142 0 142 -129q0 -46 -31 -118l-397 -924h-297l422 950h-555z" />
<glyph horiz-adv-x="1054" d="M88 319q0 120 98 232l43 45l-34 47q-78 101 -78 217q0 155 110.5 239.5t300.5 84.5t300 -84.5t110 -239.5q0 -123 -74 -215l-39 -49l45 -45q99 -99 99 -232q0 -158 -116 -244.5t-321 -86.5q-207 0 -325.5 86.5t-118.5 244.5zM352 326q0 -58 47 -93.5t131 -35.5 q83 0 127.5 35t44.5 94q0 55 -47 108l-45 49h-164l-45 -49q-49 -49 -49 -108zM375 844q0 -49 39 -109l35 -45h157l35 45q41 54 41 109q0 56 -40 89.5t-114 33.5q-75 0 -114 -33.5t-39 -89.5z" />
<glyph horiz-adv-x="1054" d="M90 776q0 181 113 292.5t319 111.5q202 0 314 -107t112 -293v-403q0 -178 -114 -282.5t-310 -104.5q-143 0 -317 51h2l-96 29l43 219l94 -27q162 -50 254 -47q174 0 174 156v47q-118 -25 -186 -25q-201 0 -301.5 97.5t-100.5 285.5zM365 786q0 -174 172 -174q47 0 141 23 v139q0 90 -40.5 139.5t-119.5 49.5q-74 0 -113.5 -46.5t-39.5 -130.5z" />
<glyph horiz-adv-x="1128" d="M88 580q0 246 115 398.5t309 188.5v203h221v-199q90 -10 221 -51l99 -30l-37 -242l-98 31q-158 51 -259 51q-268 0 -268 -350q0 -347 271 -347q101 0 256 50l98 28l37 -239l-99 -29q-116 -37 -221 -49v-203h-221v207q-197 35 -310.5 183t-113.5 399z" />
<glyph horiz-adv-x="1054" d="M92 70l47 243l111 -34q181 -56 301 -56q59 0 99 28.5t40 86.5q0 85 -110 108l-174 41q-144 32 -226 115t-82 217q0 152 89 242t233 110v199h221v-199q87 -5 217 -45l107 -32l-47 -242l-111 37q-161 53 -295 53q-62 0 -101.5 -29.5t-39.5 -85.5q0 -84 110 -108l174 -39 q308 -70 308 -330q0 -151 -90 -241.5t-232 -112.5v-205h-221v203q-85 7 -219 47z" />
<glyph horiz-adv-x="1054" d="M78 381v170h108v74h-108v170h115q12 187 129 289t301 102q128 0 262 -39l88 -27l-33 -215l-88 27q-133 35 -207 35q-177 0 -180 -172h313v-170h-321v-74h321v-170h-315q3 -174 188 -174q71 0 201 35l88 26l33 -213l-88 -26q-141 -41 -262 -41q-184 0 -302 103t-128 290 h-115z" />
<glyph horiz-adv-x="806" d="M74 1040q0 115 80 166t213 51h122v31q0 82 -98 82q-87 0 -194 -35l-76 -22l-27 155l76 23q125 39 240 39q125 0 197.5 -56.5t72.5 -181.5v-288l76 -46l-76 -133l-72 39q-38 20 -84 8l-35 -10q-77 -24 -174 -24q-113 0 -177 53.5t-64 148.5zM264 1049q0 -64 84 -64 q48 0 105 14l39 11v108h-123q-105 0 -105 -69z" />
<glyph horiz-adv-x="800" d="M94 985v774l195 37v-289q67 21 131 21q301 0 301 -342q0 -159 -86.5 -252.5t-239.5 -93.5q-109 0 -213 30q-88 27 -88 115zM289 1014q64 -15 98 -15q141 0 141 187q0 180 -135 180q-33 0 -104 -18v-334z" />
<glyph horiz-adv-x="716" d="M74 1184q0 166 87.5 256t233.5 90q74 0 191 -31l65 -18l-26 -166l-66 20q-114 29 -145 29q-140 0 -140 -180t140 -180q49 0 145 28l66 19l26 -162l-65 -21q-110 -30 -191 -30q-147 0 -234 88t-87 258z" />
<glyph horiz-adv-x="800" d="M74 1184q0 165 77.5 254.5t227.5 89.5q45 0 127 -21v254l194 35v-811q0 -81 -88 -108q-109 -37 -213 -37q-155 0 -240 90t-85 254zM266 1186q0 -89 35 -138t107 -49q37 0 98 15v334q-73 18 -105 18q-135 0 -135 -180z" />
<glyph horiz-adv-x="784" d="M74 1184q0 88 25.5 156.5t70 110t101.5 62.5t124 21q147 0 230.5 -84.5t83.5 -249.5q0 -43 -20 -63.5t-64 -20.5h-359q9 -58 51.5 -87.5t106.5 -29.5q82 0 176 27l76 25l29 -152l-76 -22q-121 -41 -215 -41q-158 0 -249 89.5t-91 258.5zM266 1255h250q-3 58 -34 93.5 t-91 35.5q-53 0 -86 -34t-39 -95z" />
<glyph horiz-adv-x="569" d="M47 1364v154h90v45q0 111 63 168t175 57q69 0 178 -31l-25 -151q-79 24 -122 24q-40 0 -57 -18.5t-17 -63.5v-30h186v-154h-186v-520h-195v520h-90z" />
<glyph horiz-adv-x="811" d="M74 1298q0 112 80.5 168t220.5 56h65q57 0 103 8l180 47l37 -145l-107 -29q35 -40 35 -105q0 -105 -79.5 -158t-219.5 -53h-37q4 -8 4 -22q0 -26 -10 -41h162q118 0 176.5 -47t58.5 -131q0 -106 -87 -162.5t-263 -56.5q-143 0 -229 47.5t-86 148.5q0 81 47 131l55 70 q19 25 19 49q0 21 -19.5 43t-43 40.5t-43 56t-19.5 85.5zM256 825q0 -63 143 -63q168 0 168 76q0 45 -71 45h-224q-16 -16 -16 -58zM258 1298q0 -86 121 -86q56 0 88.5 21t32.5 65q0 84 -121 84t-121 -84z" />
<glyph horiz-adv-x="778" d="M92 844v917l199 35v-289q80 23 135 23q256 0 256 -246v-440h-197v426q0 90 -90 90q-39 0 -104 -19v-497h-199z" />
<glyph horiz-adv-x="387" d="M82 1688q0 47 29 74.5t82 27.5q52 0 81 -28t29 -74q0 -47 -29 -75t-81 -28q-53 0 -82 28t-29 75zM94 844v680h197v-680h-197z" />
<glyph horiz-adv-x="393" d="M14 627v149q46 1 66 21.5t20 62.5v664h197v-668q0 -112 -72.5 -170.5t-210.5 -58.5zM88 1688q0 46 29.5 74t81.5 28t81 -28t29 -74q0 -47 -29 -75t-81 -28t-81.5 28.5t-29.5 74.5z" />
<glyph horiz-adv-x="776" d="M94 844v917l195 35v-524l209 252h239l-205 -236l205 -444h-225l-129 282l-37 -39q-31 -32 -44 -59t-13 -74v-110h-195z" />
<glyph horiz-adv-x="385" d="M90 844v917l201 35v-952h-201z" />
<glyph horiz-adv-x="1132" d="M96 844v538q0 36 20 64t50 43.5t71.5 25t77 12.5t74.5 3q118 0 174 -45q99 45 207 45q133 0 195.5 -63.5t62.5 -176.5v-446h-194v432q0 86 -84 86q-46 0 -99 -21q8 -24 8 -57v-440h-194v432q0 86 -82 86q-41 0 -92 -16v-502h-195z" />
<glyph horiz-adv-x="823" d="M74 1184q0 164 90.5 256t245.5 92q156 0 243.5 -91.5t87.5 -256.5q0 -164 -90 -256t-245 -92q-156 0 -244 91.5t-88 256.5zM274 1184q0 -195 136 -195q135 0 135 195q0 95 -35.5 145.5t-103.5 50.5q-64 0 -98 -51t-34 -145z" />
<glyph horiz-adv-x="800" d="M94 616v766q0 49 20 75.5t62 39.5q100 33 219 33q147 0 236.5 -91t89.5 -251q0 -166 -78 -256t-229 -90q-60 0 -125 20v-211zM289 1022q74 -18 104 -18q135 0 135 182q0 184 -141 184q-41 0 -98 -14v-334z" />
<glyph horiz-adv-x="800" d="M74 1184q0 160 86 253t241 93q117 0 220 -35q79 -26 79 -113v-733l-194 -35v246q-71 -18 -133 -18q-154 0 -226.5 86.5t-72.5 255.5zM266 1186q0 -182 135 -182q43 0 105 18v336q-61 12 -98 12q-72 0 -107 -48.5t-35 -135.5z" />
<glyph horiz-adv-x="540" d="M92 844v538q0 92 94 117q113 31 308 31v-164q-134 0 -207 -18v-504h-195z" />
</font>
</defs>
</svg>
